<?xml version="1.0" encoding="UTF-8" standalone="no"?>
<!-- Created with Inkscape (http://www.inkscape.org/) -->

<svg
   xmlns:dc="http://purl.org/dc/elements/1.1/"
   xmlns:cc="http://creativecommons.org/ns#"
   xmlns:rdf="http://www.w3.org/1999/02/22-rdf-syntax-ns#"
   xmlns:svg="http://www.w3.org/2000/svg"
   xmlns="http://www.w3.org/2000/svg"
   xmlns:sodipodi="http://sodipodi.sourceforge.net/DTD/sodipodi-0.dtd"
   xmlns:inkscape="http://www.inkscape.org/namespaces/inkscape"
   id="svg7384"
   height="16"
   width="16"
   version="1.1"
   sodipodi:docname="dialog-question-symbolic.svg"
   inkscape:version="0.92.1 r15371">
  <defs
     id="defs9" />
  <sodipodi:namedview
     pagecolor="#ffffff"
     bordercolor="#666666"
     borderopacity="1"
     objecttolerance="10"
     gridtolerance="10"
     guidetolerance="10"
     inkscape:pageopacity="0"
     inkscape:pageshadow="2"
     inkscape:window-width="1600"
     inkscape:window-height="808"
     id="namedview7"
     showgrid="false"
     inkscape:zoom="14.75"
     inkscape:cx="8"
     inkscape:cy="8"
     inkscape:window-x="0"
     inkscape:window-y="0"
     inkscape:window-maximized="1"
     inkscape:current-layer="svg7384" />
  <metadata
     id="metadata90">
    <rdf:RDF>
      <cc:Work
         rdf:about="">
        <dc:format>image/svg+xml</dc:format>
        <dc:type
           rdf:resource="http://purl.org/dc/dcmitype/StillImage" />
        <dc:title>Gnome Symbolic Icon Theme</dc:title>
      </cc:Work>
    </rdf:RDF>
  </metadata>
  <title
     id="title9167">Gnome Symbolic Icon Theme</title>
  <path
     inkscape:connector-curvature="0"
     style="fill:#cecfce;fill-opacity:1;stroke:none"
     d="m 7.9687497,-2.5e-7 c -1.7509299,0 -3.4068794,0.4216024 -4.9687494,1.26367245 l 0.777343,1.7871093 c 0.78092,-0.3835199 1.4827021,-0.6574787 2.1074221,-0.8242187 0.63297,-0.16673 1.2779263,-0.25 1.9355463,-0.25 0.986441,0 1.743422,0.2202494 2.2695323,0.6621094 0.5261,0.44187 0.789062,1.0750006 0.789062,1.9003906 0,0.44187 -0.0568,0.8305625 -0.171875,1.1640625 -0.11508,0.33348 -0.312307,0.66651 -0.591797,1 -0.2794803,0.33349 -0.8676713,0.883351 -1.7636723,1.650391 C 7.2514827,9.3568463 6.1004598,11.139 5.9999998,13 h 1.9999999 l -0.0059,-0.03125 c 0,-0.75868 0.131471,-1.367612 0.394531,-1.826172 0.27128,-0.46689 0.813133,-1.055002 1.6269533,-1.7636717 0.99467,-0.84207 1.657528,-1.47518 1.986328,-1.90039 0.33704,-0.4252 0.587553,-0.8743797 0.751953,-1.3496098 C 12.918406,5.6536765 13,5.1071947 13,4.4902347 13,3.0728947 12.55227,1.9711903 11.65625,1.1875003 10.76024,0.39546025 9.5306097,-2.5e-7 7.9687497,-2.5e-7 Z M 5.9999998,14 v 2 h 1.9999999 v -2 z"
     class="ColorScheme-Text"
     id="path4" />
</svg>
