<?xml version="1.0" encoding="UTF-8" standalone="no"?>
<!-- Created with Inkscape (http://www.inkscape.org/) -->

<svg
   xmlns:dc="http://purl.org/dc/elements/1.1/"
   xmlns:cc="http://creativecommons.org/ns#"
   xmlns:rdf="http://www.w3.org/1999/02/22-rdf-syntax-ns#"
   xmlns:svg="http://www.w3.org/2000/svg"
   xmlns="http://www.w3.org/2000/svg"
   xmlns:sodipodi="http://sodipodi.sourceforge.net/DTD/sodipodi-0.dtd"
   xmlns:inkscape="http://www.inkscape.org/namespaces/inkscape"
   id="svg7384"
   height="16"
   width="16"
   version="1.1"
   sodipodi:docname="dialog-information-symbolic.svg"
   inkscape:version="0.92.1 r15371">
  <defs
     id="defs12" />
  <sodipodi:namedview
     pagecolor="#ffffff"
     bordercolor="#666666"
     borderopacity="1"
     objecttolerance="10"
     gridtolerance="10"
     guidetolerance="10"
     inkscape:pageopacity="0"
     inkscape:pageshadow="2"
     inkscape:window-width="1600"
     inkscape:window-height="808"
     id="namedview10"
     showgrid="false"
     inkscape:zoom="14.75"
     inkscape:cx="-5.8644068"
     inkscape:cy="8"
     inkscape:window-x="0"
     inkscape:window-y="0"
     inkscape:window-maximized="1"
     inkscape:current-layer="svg7384" />
  <metadata
     id="metadata90">
    <rdf:RDF>
      <cc:Work
         rdf:about="">
        <dc:format>image/svg+xml</dc:format>
        <dc:type
           rdf:resource="http://purl.org/dc/dcmitype/StillImage" />
        <dc:title>Gnome Symbolic Icon Theme</dc:title>
      </cc:Work>
    </rdf:RDF>
  </metadata>
  <title
     id="title9167">Gnome Symbolic Icon Theme</title>
  <path
     inkscape:connector-curvature="0"
     class="ColorScheme-Text"
     id="path3016"
     d="M 7.9999999,16 C 3.5679999,16 9.9999999e-8,12.432 9.9999999e-8,7.9999995 9.9999999e-8,3.5679998 3.5679999,-2.5e-7 7.9999999,-2.5e-7 12.432,-2.5e-7 16,3.5679998 16,7.9999995 16,12.432 12.432,16 7.9999999,16 Z m -0.15625,-1 h 0.3125 C 11.949423,15 15,11.949409 15,8.1562496 v -0.3125 C 15,4.0505908 11.949423,0.99999975 8.1562499,0.99999975 h -0.3125 c -3.793173,0 -6.8437498,3.05059105 -6.8437498,6.84374975 V 8.1562496 C 1.0000001,11.949409 4.0505769,15 7.8437499,15 Z m -0.65625,-3 V 6.4062496 h 1.625 V 12 Z m 0.8125,-6.4062502 c -0.368186,0 -0.8125,-0.41306 -0.8125,-0.78125 0,-0.36819 0.444314,-0.8125 0.8125,-0.8125 0.368186,0 0.8125,0.44431 0.8125,0.8125 0,0.36819 -0.444314,0.78125 -0.8125,0.78125 z"
     style="color:#7b7c7e;fill:#cecfce;fill-opacity:1;stroke:none" />
</svg>
