<?xml version="1.0" encoding="UTF-8" standalone="no"?>
<svg
   xmlns:dc="http://purl.org/dc/elements/1.1/"
   xmlns:cc="http://creativecommons.org/ns#"
   xmlns:rdf="http://www.w3.org/1999/02/22-rdf-syntax-ns#"
   xmlns:svg="http://www.w3.org/2000/svg"
   xmlns="http://www.w3.org/2000/svg"
   xmlns:sodipodi="http://sodipodi.sourceforge.net/DTD/sodipodi-0.dtd"
   xmlns:inkscape="http://www.inkscape.org/namespaces/inkscape"
   width="16"
   height="16"
   version="1.1"
   id="svg10"
   sodipodi:docname="media-playlist-repeat-song-symbolic-rtl.svg"
   inkscape:version="0.92.3 (2405546, 2018-03-11)">
  <metadata
     id="metadata16">
    <rdf:RDF>
      <cc:Work
         rdf:about="">
        <dc:format>image/svg+xml</dc:format>
        <dc:type
           rdf:resource="http://purl.org/dc/dcmitype/StillImage" />
        <dc:title></dc:title>
      </cc:Work>
    </rdf:RDF>
  </metadata>
  <defs
     id="defs14" />
  <sodipodi:namedview
     pagecolor="#ffffff"
     bordercolor="#666666"
     borderopacity="1"
     objecttolerance="10"
     gridtolerance="10"
     guidetolerance="10"
     inkscape:pageopacity="0"
     inkscape:pageshadow="2"
     inkscape:window-width="1920"
     inkscape:window-height="1026"
     id="namedview12"
     showgrid="false"
     inkscape:zoom="14.75"
     inkscape:cx="8.1355932"
     inkscape:cy="8"
     inkscape:window-x="0"
     inkscape:window-y="30"
     inkscape:window-maximized="1"
     inkscape:current-layer="svg10" />
  <path
     inkscape:connector-curvature="0"
     style="fill:#cecfce;fill-opacity:1;stroke:none"
     d="M 8.0000001,5.0000001e-8 C 12.432,5.0000001e-8 16,3.5680001 16,8.0000001 h -1 c 0,-3.878 -3.122,-7 -7,-7 -3.8780002,0 -7.00000015,3.122 -7.00000015,7 h -1 C -1.5e-7,3.5680001 3.5679998,5.0000001e-8 8.0000001,5.0000001e-8 Z m 0,2.000000049999999 c 3.3239999,0 5.9999999,2.676 5.9999999,6 h -3 c 0,-1.662 -1.3380001,-3 -3.0000001,-3 z m 0,4 c 1.1079999,0 1.9999999,0.892 1.9999999,2 H 9.0000001 c 0,-0.554 -0.4460001,-1 -1,-1 -0.5540002,0 -1.0000002,0.446 -1.0000002,1 h -1 c 0,-1.108 0.892,-2 2.0000002,-2 z m -1.0000002,3 L 9.0000001,10.5 6.9999999,12 V 11 H 1.9999998 c -0.554,0 -0.99999995,0.446 -0.99999995,1 h -1 c 0,-1.10801 0.89199,-2 1.99999995,-2 H 6.9999999 Z M 15,10 v 1 h 1 v 1 h -1 v 2 h 1 v 1 h -1 v 1 h -1 v -1 h -2 v 1 h -1 v -1 h -1 v -1 h 1 v -2 h -1 v -1 h 1 v -1 h 1 v 1 h 2 v -1 z m -1,2 h -2 v 2 h 2 z m -5,1 c 0,1.10801 -0.89199,2 -2,2 H 1.9999998 v 1 L -1.5e-7,14.5 1.9999998,13 v 1 h 5.0000001 c 0.554,0 1.0000002,-0.446 1.0000002,-1 z"
     class="ColorScheme-Text"
     id="path4-3" />
</svg>
