<?xml version="1.0" encoding="UTF-8" standalone="no"?>
<svg
   xmlns:dc="http://purl.org/dc/elements/1.1/"
   xmlns:cc="http://creativecommons.org/ns#"
   xmlns:rdf="http://www.w3.org/1999/02/22-rdf-syntax-ns#"
   xmlns:svg="http://www.w3.org/2000/svg"
   xmlns="http://www.w3.org/2000/svg"
   xmlns:sodipodi="http://sodipodi.sourceforge.net/DTD/sodipodi-0.dtd"
   xmlns:inkscape="http://www.inkscape.org/namespaces/inkscape"
   width="16"
   height="16"
   version="1.1"
   id="svg12"
   sodipodi:docname="media-playlist-shuffle-symbolic.svg"
   inkscape:version="0.92.3 (2405546, 2018-03-11)">
  <metadata
     id="metadata18">
    <rdf:RDF>
      <cc:Work
         rdf:about="">
        <dc:format>image/svg+xml</dc:format>
        <dc:type
           rdf:resource="http://purl.org/dc/dcmitype/StillImage" />
      </cc:Work>
    </rdf:RDF>
  </metadata>
  <defs
     id="defs16" />
  <sodipodi:namedview
     pagecolor="#ffffff"
     bordercolor="#666666"
     borderopacity="1"
     objecttolerance="10"
     gridtolerance="10"
     guidetolerance="10"
     inkscape:pageopacity="0"
     inkscape:pageshadow="2"
     inkscape:window-width="1920"
     inkscape:window-height="1026"
     id="namedview14"
     showgrid="false"
     inkscape:zoom="14.75"
     inkscape:cx="8.1355932"
     inkscape:cy="8"
     inkscape:window-x="0"
     inkscape:window-y="30"
     inkscape:window-maximized="1"
     inkscape:current-layer="svg12">
    <inkscape:grid
       type="xygrid"
       id="grid834" />
  </sodipodi:namedview>
  <path
     inkscape:connector-curvature="0"
     style="fill:#cecfce;fill-opacity:1;stroke:none"
     d="M 11,3.5 V 5 H 9 C 7.338,5 6,6.338 6,8 6,9.108 5.108,10 4,10 H 2 v 1 H 4 C 5.662,11 7,9.662 7,8 7,6.892 7.892,6 9,6 h 2 v 1.5 l 3,-2 z M 2,5 V 6 H 4 C 4.401,6 4.772,6.119 5.084,6.32 5.161,5.987 5.294,5.678 5.471,5.398 5.035,5.152 4.538,5 4,5 Z m 9,3.5 V 10 H 9 C 8.599,10 8.228,9.881 7.916,9.68 7.839,10.013 7.706,10.322 7.529,10.602 7.965,10.848 8.462,11 9,11 h 2 v 1.5 l 3,-2 z"
     class="ColorScheme-Text"
     id="path4" />
</svg>
