<?xml version="1.0" encoding="UTF-8" standalone="no"?>
<svg
   xmlns:dc="http://purl.org/dc/elements/1.1/"
   xmlns:cc="http://creativecommons.org/ns#"
   xmlns:rdf="http://www.w3.org/1999/02/22-rdf-syntax-ns#"
   xmlns:svg="http://www.w3.org/2000/svg"
   xmlns="http://www.w3.org/2000/svg"
   xmlns:sodipodi="http://sodipodi.sourceforge.net/DTD/sodipodi-0.dtd"
   xmlns:inkscape="http://www.inkscape.org/namespaces/inkscape"
   width="16"
   height="16"
   version="1.1"
   id="svg12"
   sodipodi:docname="media-playlist-shuffle-symbolic-rtl.svg"
   inkscape:version="0.92.3 (2405546, 2018-03-11)">
  <metadata
     id="metadata18">
    <rdf:RDF>
      <cc:Work
         rdf:about="">
        <dc:format>image/svg+xml</dc:format>
        <dc:type
           rdf:resource="http://purl.org/dc/dcmitype/StillImage" />
        <dc:title></dc:title>
      </cc:Work>
    </rdf:RDF>
  </metadata>
  <defs
     id="defs16" />
  <sodipodi:namedview
     pagecolor="#ffffff"
     bordercolor="#666666"
     borderopacity="1"
     objecttolerance="10"
     gridtolerance="10"
     guidetolerance="10"
     inkscape:pageopacity="0"
     inkscape:pageshadow="2"
     inkscape:window-width="1920"
     inkscape:window-height="1026"
     id="namedview14"
     showgrid="false"
     inkscape:zoom="14.75"
     inkscape:cx="8.1355932"
     inkscape:cy="8"
     inkscape:window-x="0"
     inkscape:window-y="30"
     inkscape:window-maximized="1"
     inkscape:current-layer="svg12">
    <inkscape:grid
       type="xygrid"
       id="grid834" />
  </sodipodi:namedview>
  <path
     inkscape:connector-curvature="0"
     style="fill:#cecfce;fill-opacity:1;stroke:none"
     d="M 5,3.5 V 5 h 2 c 1.662,0 3,1.338 3,3 0,1.108 0.892,2 2,2 h 2 v 1 H 12 C 10.338,11 9,9.662 9,8 9,6.892 8.108,6 7,6 H 5 V 7.5 L 2,5.5 Z M 14,5 V 6 H 12 C 11.599,6 11.228,6.119 10.916,6.32 10.839,5.987 10.706,5.678 10.529,5.398 10.965,5.152 11.462,5 12,5 Z M 5,8.5 V 10 h 2 c 0.401,0 0.772,-0.119 1.084,-0.32 0.077,0.333 0.21,0.642 0.387,0.922 C 8.035,10.848 7.538,11 7,11 H 5 v 1.5 l -3,-2 z"
     class="ColorScheme-Text"
     id="path4" />
</svg>
