<?xml version="1.0" encoding="UTF-8" standalone="no"?>
<!-- Created with Inkscape (http://www.inkscape.org/) -->

<svg
   xmlns:dc="http://purl.org/dc/elements/1.1/"
   xmlns:cc="http://creativecommons.org/ns#"
   xmlns:rdf="http://www.w3.org/1999/02/22-rdf-syntax-ns#"
   xmlns:svg="http://www.w3.org/2000/svg"
   xmlns="http://www.w3.org/2000/svg"
   xmlns:sodipodi="http://sodipodi.sourceforge.net/DTD/sodipodi-0.dtd"
   xmlns:inkscape="http://www.inkscape.org/namespaces/inkscape"
   id="svg7384"
   height="16"
   width="16.04"
   version="1.1"
   sodipodi:docname="network-wired-no-route-symbolic.svg"
   inkscape:version="0.92.1 r15371">
  <defs
     id="defs15" />
  <sodipodi:namedview
     pagecolor="#ffffff"
     bordercolor="#666666"
     borderopacity="1"
     objecttolerance="10"
     gridtolerance="10"
     guidetolerance="10"
     inkscape:pageopacity="0"
     inkscape:pageshadow="2"
     inkscape:window-width="1600"
     inkscape:window-height="808"
     id="namedview13"
     showgrid="true"
     inkscape:zoom="14.75"
     inkscape:cx="-5.8444063"
     inkscape:cy="8"
     inkscape:window-x="0"
     inkscape:window-y="0"
     inkscape:window-maximized="1"
     inkscape:current-layer="svg7384">
    <inkscape:grid
       type="xygrid"
       id="grid4500" />
  </sodipodi:namedview>
  <metadata
     id="metadata90">
    <rdf:RDF>
      <cc:Work
         rdf:about="">
        <dc:format>image/svg+xml</dc:format>
        <dc:type
           rdf:resource="http://purl.org/dc/dcmitype/StillImage" />
        <dc:title>Gnome Symbolic Icon Theme</dc:title>
      </cc:Work>
    </rdf:RDF>
  </metadata>
  <title
     id="title9167">Gnome Symbolic Icon Theme</title>
  <path
     style="color:#31363b;opacity:0.5;fill:#cecfce;fill-opacity:1;stroke:none"
     d="M 0.01953125,0 V 6 H 2.0195312 v 7 c 0,1.662 1.3380001,3 3,3 h 1 1 2 2.9999998 v -1 h -1 -1 v -2 h 1 4 1 V 0 h -1 -8.9999998 V 1 H 15.019531 V 11 H 4.0195312 v 1 1 h 1 1 V 14 14.726562 15 h -1 c -1.108,0 -1.9999999,-0.892 -2,-2 V 6 h 2 V 0 Z M 1.0195312,1 h 3 v 4 h -3 z m 1,1 v 2 h 1 V 2 Z M 0.01953125,7 v 6 H 1.0195312 V 7 Z"
     id="rect4467"
     inkscape:connector-curvature="0"
     sodipodi:nodetypes="cccsscccccccccccccccccccccccccssccccccccccccccccccc" />
  <path
     inkscape:connector-curvature="0"
     style="color:#31363b;opacity:0.5;fill:#cecfce;fill-opacity:1;fill-rule:evenodd;stroke:none;stroke-width:1px;stroke-linecap:butt;stroke-linejoin:miter;stroke-opacity:1"
     d="M 8.5,2.050781 A 2.5,2.5 0 0 0 6.056641,4.0390622 H 7.091797 A 1.5,1.5 0 0 1 8.5,3.050781 a 1.5,1.5 0 0 1 1.5,1.5 1.5,1.5 0 0 1 -1.5,1.5 A 1.5,1.5 0 0 1 8,5.96289 V 6.851562 6.996093 9.050781 H 9 V 7 a 2.5,2.5 0 0 0 2,-2.449219 2.5,2.5 0 0 0 -2.5,-2.5 z m -0.5,8 v 1 h 1 v -1 z"
     id="path4486" />
</svg>
