<?xml version="1.0" encoding="UTF-8" standalone="no"?>
<!-- Created with Inkscape (http://www.inkscape.org/) -->

<svg
   xmlns:dc="http://purl.org/dc/elements/1.1/"
   xmlns:cc="http://creativecommons.org/ns#"
   xmlns:rdf="http://www.w3.org/1999/02/22-rdf-syntax-ns#"
   xmlns:svg="http://www.w3.org/2000/svg"
   xmlns="http://www.w3.org/2000/svg"
   xmlns:sodipodi="http://sodipodi.sourceforge.net/DTD/sodipodi-0.dtd"
   xmlns:inkscape="http://www.inkscape.org/namespaces/inkscape"
   id="svg7384"
   height="16"
   width="16.04"
   version="1.1"
   sodipodi:docname="network-wired-acquiring-symbolic.svg"
   inkscape:version="0.92.1 r15371">
  <defs
     id="defs15" />
  <sodipodi:namedview
     pagecolor="#ffffff"
     bordercolor="#666666"
     borderopacity="1"
     objecttolerance="10"
     gridtolerance="10"
     guidetolerance="10"
     inkscape:pageopacity="0"
     inkscape:pageshadow="2"
     inkscape:window-width="1600"
     inkscape:window-height="808"
     id="namedview13"
     showgrid="true"
     inkscape:zoom="14.75"
     inkscape:cx="8.0200005"
     inkscape:cy="8"
     inkscape:window-x="0"
     inkscape:window-y="0"
     inkscape:window-maximized="1"
     inkscape:current-layer="svg7384">
    <inkscape:grid
       type="xygrid"
       id="grid4500" />
  </sodipodi:namedview>
  <metadata
     id="metadata90">
    <rdf:RDF>
      <cc:Work
         rdf:about="">
        <dc:format>image/svg+xml</dc:format>
        <dc:type
           rdf:resource="http://purl.org/dc/dcmitype/StillImage" />
        <dc:title>Gnome Symbolic Icon Theme</dc:title>
      </cc:Work>
    </rdf:RDF>
  </metadata>
  <title
     id="title9167">Gnome Symbolic Icon Theme</title>
  <path
     style="color:#31363b;opacity:0.5;fill:#cecfce;fill-opacity:1;stroke:none"
     d="M 0.01953125 0 L 0.01953125 6 L 2.0195312 6 L 2.0195312 13 C 2.0195312 14.662 3.3575313 16 5.0195312 16 L 6.0195312 16 L 7.0195312 16 L 9.0195312 16 L 12.019531 16 L 12.019531 15 L 11.019531 15 L 10.019531 15 L 10.019531 13 L 11.019531 13 L 15.019531 13 L 16.019531 13 L 16.019531 0 L 15.019531 0 L 6.0195312 0 L 6.0195312 1 L 15.019531 1 L 15.019531 11 L 4.0195312 11 L 4.0195312 12 L 4.0195312 13 L 5.0195312 13 L 6.0195312 13 L 6.0195312 14 L 6.0195312 14.726562 L 6.0195312 15 L 5.0195312 15 C 3.9115312 15 3.0195313 14.108 3.0195312 13 L 3.0195312 6 L 5.0195312 6 L 5.0195312 0 L 0.01953125 0 z M 1.0195312 1 L 4.0195312 1 L 4.0195312 5 L 1.0195312 5 L 1.0195312 1 z M 2.0195312 2 L 2.0195312 4 L 3.0195312 4 L 3.0195312 2 L 2.0195312 2 z M 6 6 L 6 7 L 7 7 L 7 6 L 6 6 z M 8 6 L 8 7 L 9 7 L 9 6 L 8 6 z M 10 6 L 10 7 L 11 7 L 11 6 L 10 6 z M 0.01953125 7 L 0.01953125 13 L 1.0195312 13 L 1.0195312 7 L 0.01953125 7 z "
     id="rect4467" />
</svg>
