<?xml version="1.0" encoding="UTF-8" standalone="no"?>
<svg
   xmlns:dc="http://purl.org/dc/elements/1.1/"
   xmlns:cc="http://creativecommons.org/ns#"
   xmlns:rdf="http://www.w3.org/1999/02/22-rdf-syntax-ns#"
   xmlns:svg="http://www.w3.org/2000/svg"
   xmlns="http://www.w3.org/2000/svg"
   xmlns:xlink="http://www.w3.org/1999/xlink"
   xmlns:sodipodi="http://sodipodi.sourceforge.net/DTD/sodipodi-0.dtd"
   xmlns:inkscape="http://www.inkscape.org/namespaces/inkscape"
   width="48"
   height="48"
   version="1.1"
   id="svg124"
   sodipodi:docname="firefox-trunk.svg"
   inkscape:version="0.92.1 r15371">
  <metadata
     id="metadata128">
    <rdf:RDF>
      <cc:Work
         rdf:about="">
        <dc:format>image/svg+xml</dc:format>
        <dc:type
           rdf:resource="http://purl.org/dc/dcmitype/StillImage" />
        <dc:title></dc:title>
      </cc:Work>
    </rdf:RDF>
  </metadata>
  <sodipodi:namedview
     pagecolor="#ffffff"
     bordercolor="#666666"
     borderopacity="1"
     objecttolerance="10"
     gridtolerance="10"
     guidetolerance="10"
     inkscape:pageopacity="0"
     inkscape:pageshadow="2"
     inkscape:window-width="1600"
     inkscape:window-height="822"
     id="namedview126"
     showgrid="false"
     inkscape:zoom="8.08"
     inkscape:cx="2.3854956"
     inkscape:cy="24"
     inkscape:window-x="0"
     inkscape:window-y="0"
     inkscape:window-maximized="1"
     inkscape:current-layer="svg124" />
  <defs
     id="defs54">
    <linearGradient
       id="linearGradient4214">
      <stop
         offset="0"
         style="stop-color:#2f74c8;stop-opacity:1"
         id="stop41" />
      <stop
         offset="1"
         style="stop-color:#4699d7;stop-opacity:1"
         id="stop43" />
    </linearGradient>
    <linearGradient
       id="linearGradient4410">
      <stop
         style="stop-color:#383e51;stop-opacity:1"
         offset="0"
         id="stop48" />
      <stop
         style="stop-color:#655c6f;stop-opacity:0"
         offset="1"
         id="stop50" />
    </linearGradient>
    <linearGradient
       gradientTransform="matrix(0.97435896,0,0,0.96217953,-40.3793,-0.5771)"
       gradientUnits="userSpaceOnUse"
       y2="4"
       x2="23.649"
       y1="43.494"
       x1="23.649"
       id="linearGradient10438-5"
       xlink:href="#linearGradient4214" />
    <linearGradient
       id="linearGradient10454-6">
      <stop
         id="stop4727"
         offset="0"
         style="stop-color:#aab4ba;stop-opacity:1" />
      <stop
         id="stop4729"
         offset="1"
         style="stop-color:#e0e5e7;stop-opacity:1" />
    </linearGradient>
    <linearGradient
       gradientTransform="translate(-41.33689,-1.72838)"
       gradientUnits="userSpaceOnUse"
       y2="4"
       x2="24"
       y1="44"
       x1="24"
       id="linearGradient4286-2"
       xlink:href="#linearGradient10454-6" />
    <linearGradient
       gradientUnits="userSpaceOnUse"
       y2="546.798"
       x2="419.571"
       y1="528.798"
       x1="401.571"
       id="linearGradient4243-0"
       xlink:href="#linearGradient4410"
       gradientTransform="translate(-425.90832,-501.52638)" />
    <linearGradient
       y2="546.798"
       x2="419.571"
       y1="528.798"
       x1="401.571"
       gradientTransform="translate(-431.40826,-516.82638)"
       gradientUnits="userSpaceOnUse"
       id="linearGradient4355-6"
       xlink:href="#linearGradient4410" />
  </defs>
  <g
     id="g5017"
     transform="translate(41.336414,1.7285223)">
    <circle
       id="circle4787"
       r="19"
       style="display:inline;opacity:1;fill:url(#linearGradient10438-5);fill-opacity:1;fill-rule:evenodd;stroke:none;stroke-width:2.66700006;stroke-linecap:round;stroke-linejoin:round;stroke-miterlimit:4;stroke-dasharray:none;stroke-opacity:1"
       cx="-17.337305"
       cy="22.271593" />
    <path
       id="path4789"
       style="opacity:0.2;fill:url(#linearGradient4355-6);fill-opacity:1;fill-rule:evenodd;stroke:none;stroke-width:1px;stroke-linecap:butt;stroke-linejoin:miter;stroke-opacity:1"
       d="m -21.83683,4.97162 -14.91406,14.91406 c 3.59036,3.87464 8.63169,14.07969 13.91406,14.08594 5.77766,-0.007 19.23814,-2.64291 22.83789,-7.16211 z"
       inkscape:connector-curvature="0" />
    <path
       id="path4791"
       d="M -16.33689,20.27162 -31.25095,35.18568 A 19,19 0 0 0 -17.33689,41.27162 19,19 0 0 0 -2.499,34.10951 Z"
       style="opacity:0.2;fill:url(#linearGradient4243-0);fill-opacity:1;fill-rule:evenodd;stroke:none;stroke-width:1px;stroke-linecap:butt;stroke-linejoin:miter;stroke-opacity:1"
       inkscape:connector-curvature="0" />
    <path
       id="path4793"
       style="display:inline;fill:#ff4100;fill-opacity:1;fill-rule:evenodd;stroke:none;stroke-width:1px;stroke-linecap:butt;stroke-linejoin:miter;stroke-opacity:1"
       d="M -6.0214,9.84887 C -6.0955,9.74559 -6.13424,9.60824 -6.21218,9.50876 c 0,0 0.0373,0.0761 0.0381,0.0776 0.0517,0.0825 0.10098,0.17748 0.15262,0.26254 z"
       inkscape:connector-curvature="0" />
    <path
       id="path4795"
       d="m -17.335938,2.2714844 c -0.244689,0.002 -0.488051,0.031569 -0.732421,0.042969 a 20,19.999985 0 0 0 -1.189453,0.068359 20,19.999985 0 0 1 3.58789,0.7324219 c 1.877041,0.8315839 2.627253,1.8738494 3.119141,3.3476562 0.699717,1.3253844 2.193436,1.7993756 4.8925779,1.8652344 0.7227442,0.5036148 1.3917415,1.0009681 1.9746093,1.5039062 a 20,19.999985 0 0 1 0.4609376,0.6425779 c -1.9040493,-1.5477839 -5.6291728,-0.403997 -7.8925778,-1.2832029 10.0702188,3.2147399 8.9697952,12.2671499 5.8222652,17.6562499 -0.1975499,-0.97916 -1.0429706,-0.576167 -0.9003906,-2.804687 -0.6427012,2.941042 -3.7720726,4.861345 -6.8886716,5.21289 -10e-4,-4.3e-4 -0.0049,4.4e-4 -0.0059,0 -0.009,10e-4 -0.01824,9.14e-4 -0.02734,0.002 -0.02092,0.0023 -0.04159,0.0018 -0.0625,0.0039 -0.297265,0.03027 -0.594248,0.04743 -0.888672,0.04883 -0.0995,4.8e-4 -0.196052,-0.009 -0.294922,-0.01172 -0.21619,-0.006 -0.430808,-0.01616 -0.642578,-0.03906 -0.13168,-0.0143 -0.259242,-0.03779 -0.388672,-0.05859 -0.18291,-0.0293 -0.363626,-0.061 -0.541016,-0.103516 -0.12257,-0.0294 -0.241878,-0.06381 -0.361328,-0.09961 -0.18297,-0.0549 -0.360656,-0.1173 -0.535156,-0.1875 -0.1026,-0.0412 -0.203455,-0.0842 -0.302734,-0.130859 -0.17525,-0.0823 -0.34217,-0.176031 -0.50586,-0.275391 -0.094,-0.057 -0.189527,-0.111108 -0.279297,-0.173828 -0.16033,-0.11206 -0.307575,-0.240554 -0.453125,-0.371094 -0.07188,-0.06443 -0.148334,-0.122975 -0.216797,-0.191406 -0.20812,-0.211473 -0.400862,-0.440072 -0.568359,-0.695313 0.102325,-0.02945 0.203806,-0.0617 0.304688,-0.0957 h 0.002 l 0.01367,-0.0059 c 0.02551,-0.0078 0.05076,-0.01698 0.07617,-0.02539 h 0.002 c 0.05572,-0.0206 0.11087,-0.04248 0.166015,-0.06445 h 0.002 c 0.125301,-0.04961 0.248857,-0.103428 0.371094,-0.160156 h 0.002 c 0.03735,-0.01637 0.07429,-0.03373 0.111328,-0.05078 h 0.002 c 0.04658,-0.02335 0.09256,-0.04784 0.138672,-0.07227 h 0.002 c 0.02256,-0.01152 0.04576,-0.02547 0.06836,-0.03711 0.09128,-0.04739 0.182381,-0.09512 0.271484,-0.146485 0.0538,-0.0305 0.107186,-0.06185 0.160156,-0.09375 0.038,-0.025 0.0758,-0.05037 0.113282,-0.07617 0.10943,-0.0699 0.216895,-0.14286 0.322265,-0.21875 0.0427,-0.0301 0.085,-0.0607 0.126953,-0.0918 0.0421,-0.0334 0.0837,-0.0672 0.125,-0.101562 0.0883,-0.0708 0.174956,-0.14375 0.259766,-0.21875 0.0548,-0.0467 0.108809,-0.0942 0.162109,-0.142578 0.0415,-0.0405 0.08251,-0.0815 0.123047,-0.123047 0.0644,-0.0639 0.127573,-0.128993 0.189453,-0.195313 0.0625,-0.0646 0.123664,-0.130335 0.183594,-0.197265 l 0.0059,-0.0059 c 0.029,-0.0362 0.05774,-0.0726 0.08594,-0.109375 l 0.01172,-0.01172 c 0.0546,-0.0661 0.108006,-0.133142 0.160156,-0.201172 0.0574,-0.0725 0.113439,-0.146033 0.167969,-0.220703 l 0.0059,-0.0078 c 0.009,-0.0149 0.01834,-0.02992 0.02734,-0.04492 0.0271,-0.0401 0.05378,-0.0805 0.08008,-0.121094 0.0393,-0.058 0.0777,-0.116621 0.115234,-0.175781 0.0589,-0.093 0.115522,-0.187483 0.169922,-0.283203 l 0.002,-0.0039 c 0.10609,-0.19067 0.203196,-0.386198 0.291016,-0.585938 l 0.002,-0.002 0.0059,-0.01563 c 0.230489,-0.52982 0.394501,-1.08613 0.488281,-1.65625 0.003,-0.0169 0.0068,-0.03378 0.0098,-0.05078 0.055,-0.33393 0.0857,-0.671396 0.0918,-1.009766 -0.57765,0.0836 -1.14259,0.239091 -1.68164,0.462891 -0.26409,0.30643 -0.554238,0.589383 -0.867188,0.845703 -0.11306,0.0928 -0.228996,0.182038 -0.347656,0.267578 -0.0732,0.0542 -0.147416,0.106913 -0.222656,0.158203 -0.11503,0.0757 -0.232263,0.148007 -0.351563,0.216797 -0.0862,0.0513 -0.173429,0.100838 -0.261719,0.148438 -0.1452,0.0775 -0.293069,0.149757 -0.443359,0.216797 -0.0324,0.0152 -0.06496,0.03022 -0.09766,0.04492 -0.86233,0.36758 -1.78805,0.557846 -2.72461,0.560546 -0.40219,-0.003 -0.803418,-0.0398 -1.199218,-0.111328 -0.116925,-0.337343 -0.201536,-0.661326 -0.265625,-0.974609 -0.0386,-0.189147 -0.05453,-0.367578 -0.07227,-0.546875 -0.01269,-0.112127 -0.03318,-0.227137 -0.03906,-0.335938 -0.014,-0.25985 -0.002,-0.507017 0.02148,-0.748046 0.001,-0.0134 4.23e-4,-0.02762 0.002,-0.04102 0.0269,-0.25803 0.076,-0.503654 0.142578,-0.740234 v -0.002 c 0.01125,-0.0399 0.01892,-0.0818 0.03125,-0.121093 0.02727,-0.08709 0.05155,-0.175633 0.08398,-0.259766 0.08297,-0.214633 0.176197,-0.423632 0.291016,-0.619141 l 0.002,-0.002 c 0.01429,-0.02436 0.03212,-0.04625 0.04687,-0.07031 0.10851,-0.176494 0.230595,-0.345118 0.363282,-0.50586 0.05336,-0.06471 0.110918,-0.12727 0.167968,-0.189453 0.113287,-0.123326 0.234328,-0.240075 0.361328,-0.353515 0.05742,-0.05133 0.111799,-0.104975 0.171875,-0.154297 0.189661,-0.155606 0.389452,-0.303661 0.603516,-0.439453 0.0999,-0.03763 0.208852,-0.0933 0.3125,-0.136719 2.060945,-0.863279 4.772136,-2.899869 4.777344,-7.8906252 -1.655606,1.3025372 -3.453285,1.8308882 -4.802735,1.7617192 -0.177906,-0.0091 -0.340749,-0.03527 -0.501953,-0.06445 -0.07578,-0.01422 -0.151189,-0.0281 -0.222656,-0.04687 -0.3484,-0.08843 -0.650207,-0.225059 -0.876953,-0.416016 -0.01908,-0.01644 -0.03662,-0.03364 -0.05469,-0.05078 -0.104815,-0.09743 -0.195153,-0.204908 -0.263672,-0.3261723 -0.0035,-0.00613 -0.0084,-0.011389 -0.01172,-0.017578 -0.07005,-0.1291116 -0.114749,-0.2649548 -0.146485,-0.4082031 -0.02598,-0.1269012 -0.03625,-0.2623757 -0.03711,-0.4042969 -7e-5,-0.011683 -0.004,-0.021408 -0.0039,-0.033203 v -0.00195 c 0.0029,-0.3826829 0.08818,-0.8273693 0.248047,-1.3925782 0.39616,-0.9169999 1.588703,-1.7929899 2.152343,-2.625 -0.272809,0.040384 -0.529478,0.086974 -0.794922,0.1289063 -0.0034,5.307e-4 -0.0064,0.00142 -0.0098,0.00195 -1.068891,0.1691083 -2.086555,0.3643682 -3.019531,0.6796875 -0.0031,0.00103 -0.0067,9.166e-4 -0.0098,0.00195 -0.0381,0.0129 -0.0755,0.027716 -0.113281,0.041016 -0.180024,0.063396 -0.358944,0.1295364 -0.533203,0.203125 -0.10058,0.0425 -0.198265,0.090499 -0.296875,0.1367187 -0.131908,0.061863 -0.264273,0.1222317 -0.392579,0.1914063 -0.120429,0.0649 -0.236325,0.1390275 -0.353515,0.2109375 -0.103518,0.063531 -0.209619,0.1220183 -0.310547,0.1914062 -0.0032,0.00215 -0.0066,0.00369 -0.0098,0.00586 -0.21681,0.1495693 -0.428344,0.3108415 -0.632812,0.4902344 l -0.800781,0.7441406 -0.302735,-0.00195 c -0.35535,-4e-5 -0.694912,0.019224 -0.998047,0.050781 -0.353622,0.034827 -0.666043,0.083768 -0.890625,0.1425781 a 17,17 0 0 1 -0.002,0 17,17 0 0 1 -1.05664,-0.9804687 C -32.51187,7.110498 -32.633197,6.969835 -32.759766,6.8339844 A 17,17 0 0 1 -33.414062,6.09375 c -0.127927,-0.1544003 -0.252578,-0.3118216 -0.375,-0.4707031 a 17,17 0 0 1 -0.59961,-0.8300781 C -34.52016,4.5992062 -34.657711,4.4102508 -34.78125,4.2109375 a 17,17 0 0 0 -0.652344,1.6464844 c -0.05534,0.1632529 -0.09227,0.3313515 -0.142578,0.4960937 a 17,17 0 0 0 -0.333984,1.203125 c -0.05036,0.2221354 -0.0797,0.4478649 -0.121094,0.671875 a 17,17 0 0 0 -0.171875,1.0371094 c -0.03158,0.2600723 -0.04491,0.5215913 -0.06445,0.783203 a 17,17 0 0 0 -0.06836,1.222656 17,17 0 0 0 0.09375,1.744141 17,17 0 0 0 0.271485,1.722656 c 2.65e-4,0.0013 -2.66e-4,0.0026 0,0.0039 -0.91834,2.323689 -1.362944,4.848476 -1.365235,7.529296 0,10.996574 8.875598,19.916934 19.853516,19.996094 a 20,19.999985 0 0 0 0.146484,0.0039 c 0.526171,-0.003 1.050829,-0.03393 1.574219,-0.07813 0.0741,-0.006 0.148626,-0.005 0.222657,-0.01172 a 20,19.999985 0 0 0 3.271484,-0.59961 20,20 0 0 1 -0.0078,0.0098 19.999994,19.999998 0 0 0 0.0957,-0.03125 20,19.999985 0 0 0 1.628907,-0.515625 19.999994,19.999998 0 0 0 0.269531,-0.0957 20,19.999985 0 0 0 1.5488281,-0.666016 19.999994,19.999998 0 0 0 0.2988281,-0.142578 20,19.999985 0 0 0 1.4003907,-0.775391 19.999994,19.999998 0 0 0 0.3710937,-0.222656 20,19.999985 0 0 0 1.2714844,-0.882812 19.999994,19.999998 0 0 0 0.3652344,-0.271485 20,19.999985 0 0 0 1.3359375,-1.140625 19.999994,19.999998 0 0 0 0.089844,-0.08008 20,19.999985 0 0 0 0.25,-0.226562 20,19.999985 0 0 0 0.011719,-0.0098 c 0,0 0.00195,-0.002 0.00195,-0.002 a 20,19.999985 0 0 0 1.0058594,-1.074219 c 0.091272,-0.103543 0.1843123,-0.205133 0.2734375,-0.310547 a 20,19.999985 0 0 0 0.7871094,-1 c 0.1265836,-0.170574 0.2499127,-0.342936 0.3710937,-0.517578 a 20,19.999985 0 0 0 0.625,-0.955078 c 0.11783607,-0.192404 0.22602615,-0.390551 0.3359375,-0.587891 0.02272962,-0.04081 0.04755296,-0.08027 0.0703125,-0.121093 a 20,19.999985 0 0 0 0.46875,-0.871094 c 0.1255493,-0.254093 0.23593293,-0.515982 0.34765625,-0.777344 0.002524,-0.0059 0.005289,-0.01167 0.007813,-0.01758 a 19.999994,19.999998 0 0 0 0.005859,-0.01367 c 0.0240834,-0.05637 0.0500415,-0.111596 0.0742189,-0.167969 a 20,19.999985 0 0 0 0.30663,-0.714777 c 0.1139649,-0.29743 0.2017382,-0.606708 0.3027344,-0.910157 a 19.999994,19.999998 0 0 0 0.035156,-0.107422 c 0.081647,-0.250135 0.1789721,-0.493424 0.25,-0.748046 0.00126,-0.0045 0.00265,-0.0091 0.00391,-0.01367 a 20,19.999985 0 0 0 0.037109,-0.164063 c 0.076746,-0.285174 0.1306075,-0.57919 0.1953126,-0.86914 a 19.999994,19.999998 0 0 0 0.037109,-0.169922 c 0.046824,-0.218908 0.1072289,-0.432906 0.1464844,-0.654297 a 20,19.999985 0 0 0 0.082031,-0.589844 c 0.014617,-0.09963 0.02329,-0.201004 0.037109,-0.300781 a 19.999994,19.999998 0 0 0 0.027344,-0.166016 19.999994,19.999998 0 0 1 -0.00977,0.0078 c 0.037103,-0.280205 0.07877,-0.559088 0.1015626,-0.84375 a 20,19.999985 0 0 0 0.074219,-1.59961 C 2.6637643,16.979308 1.200053,11.712564 -1.8867188,8.0546875 -3.3726367,6.08273 -5.3341504,4.3027815 -7.9101562,2.8476562 -7.4426653,3.3615953 -7.0047329,3.9021204 -6.5839844,4.4570312 -6.706818,4.4007305 -6.8218596,4.3340798 -6.9472656,4.28125 c -1.94815,-0.50109 -2.725331,-0.79941 -3.8066404,-2 0.18816,0.6654244 0.309349,1.031834 0.507812,1.3125 a 20,19.999985 0 0 0 -7.089844,-1.3222656 z m 9.3808599,2.3769531 c 1.0229487,0.1430552 1.4982064,0.4887637 1.7421875,1.046875 a 20,19.999985 0 0 0 -1.7421875,-1.046875 z"
       style="fill:url(#linearGradient4286-2);fill-opacity:1;stroke:none"
       inkscape:connector-curvature="0" />
    <path
       id="path4797"
       style="display:inline;fill:#ff4100;fill-opacity:1;fill-rule:evenodd;stroke:none;stroke-width:1px;stroke-linecap:butt;stroke-linejoin:miter;stroke-opacity:1"
       d="M -6.0214,9.84887 C -6.0955,9.74559 -6.13424,9.60824 -6.21218,9.50876 c 0,0 0.0373,0.0761 0.0381,0.0776 0.0517,0.0825 0.10098,0.17748 0.15262,0.26254 z"
       inkscape:connector-curvature="0" />
    <path
       id="path4815"
       d="m -17.35056,9.51576 c -0.48776,0.89918 -1.14282,1.91235 -1.98633,2.75586 -1.82071,1.8207 -4.46341,2.8224 -4.92383,6.75781 0.40054,-0.79958 1.03068,-1.46051 1.83789,-1.97265 2.01914,-0.76052 4.88462,-2.66755 5.07227,-7.54102 z"
       style="fill:#ffffff;fill-opacity:1;stroke:none"
       inkscape:connector-curvature="0" />
    <path
       id="path4817"
       d="m -17.33298,9.02943 c -0.46311,0.36435 -0.94116,0.64632 -1.37696,0.90235 0.32154,0.54215 0.73359,1.04623 1.13282,1.47265 0.15207,-0.70864 0.24322,-1.4921 0.24414,-2.375 z"
       style="fill:#000000;fill-opacity:1;stroke:none"
       inkscape:connector-curvature="0" />
    <path
       id="path4819"
       d="m -37.32519,21.77111 c -0.004,0.16654 -0.0117,0.33244 -0.0117,0.5 0,11.08 8.92,20 20,20 11.08,0 20,-8.92 20,-20 0,-0.16756 -0.008,-0.33346 -0.0117,-0.5 -0.26467,10.84613 -9.07616,19.5 -19.98828,19.5 -10.91212,0 -19.72361,-8.65387 -19.98828,-19.5 z"
       style="opacity:1;fill:#da4f2a;fill-opacity:0.15686275;stroke:none"
       inkscape:connector-curvature="0" />
  </g>
</svg>
