<?xml version="1.0" encoding="UTF-8" standalone="no"?>
<svg
   xmlns:dc="http://purl.org/dc/elements/1.1/"
   xmlns:cc="http://creativecommons.org/ns#"
   xmlns:rdf="http://www.w3.org/1999/02/22-rdf-syntax-ns#"
   xmlns:svg="http://www.w3.org/2000/svg"
   xmlns="http://www.w3.org/2000/svg"
   xmlns:sodipodi="http://sodipodi.sourceforge.net/DTD/sodipodi-0.dtd"
   xmlns:inkscape="http://www.inkscape.org/namespaces/inkscape"
   width="16"
   height="16"
   version="1.1"
   id="svg10"
   sodipodi:docname="multimedia-volume-control-symbolic.svg"
   inkscape:version="0.92.3 (2405546, 2018-03-11)">
  <metadata
     id="metadata16">
    <rdf:RDF>
      <cc:Work
         rdf:about="">
        <dc:format>image/svg+xml</dc:format>
        <dc:type
           rdf:resource="http://purl.org/dc/dcmitype/StillImage" />
      </cc:Work>
    </rdf:RDF>
  </metadata>
  <defs
     id="defs14" />
  <sodipodi:namedview
     pagecolor="#ffffff"
     bordercolor="#666666"
     borderopacity="1"
     objecttolerance="10"
     gridtolerance="10"
     guidetolerance="10"
     inkscape:pageopacity="0"
     inkscape:pageshadow="2"
     inkscape:window-width="1920"
     inkscape:window-height="1026"
     id="namedview12"
     showgrid="false"
     inkscape:zoom="14.75"
     inkscape:cx="0.74576271"
     inkscape:cy="7.7288136"
     inkscape:window-x="0"
     inkscape:window-y="30"
     inkscape:window-maximized="1"
     inkscape:current-layer="svg10" />
  <path
     inkscape:connector-curvature="0"
     style="fill:#232627;fill-opacity:1;stroke:none"
     d="M 7.988281,-5.0000001e-8 3,4.9902344 V 5.0000004 6.0000003 10 11 11.0098 L 7.988281,16 H 9 V 15.597656 0.40234375 -5.0000001e-8 Z M 10.865234,0.53710935 10.621094,1.5136718 A 7,7 0 0 1 15,7.9999999 7,7 0 0 1 10.619141,14.478516 l 0.24414,0.974609 A 8,8 0 0 0 16,7.9999999 8,8 0 0 0 10.865234,0.53710935 Z M 11.324219,4.28125 10.785156,5.1425781 A 4,4 0 0 1 12,7.9999999 4,4 0 0 1 10.789062,10.861328 l 0.539063,0.863281 A 5,5 0 0 0 13,7.9999999 5,5 0 0 0 11.324219,4.28125 Z M 0,5 V 5.9999999 10 11 H 2 V 10 5.9999999 5 Z"
     id="path4226" />
</svg>
