<?xml version="1.0" encoding="UTF-8" standalone="no"?>
<svg xmlns="http://www.w3.org/2000/svg" xmlns:xlink="http://www.w3.org/1999/xlink" width="48" height="48" version="1.1">
 <defs>
  <linearGradient id="linearGradient4303">
   <stop style="stop-color:#c6cdd1;stop-opacity:1" offset="0"/>
   <stop style="stop-color:#e0e5e7;stop-opacity:1" offset="1"/>
  </linearGradient>
  <linearGradient id="linearGradient5002">
   <stop offset="0" style="stop-color:#2e5d89;stop-opacity:1"/>
   <stop offset="1" style="stop-color:#1b92f4;stop-opacity:1"/>
  </linearGradient>
  <linearGradient gradientTransform="matrix(0.41851776,0,0,0.41851776,248.50918,316.21607)" xlink:href="#linearGradient5002" id="linearGradient4327" x1="402.405" y1="514.632" x2="415.571" y2="527.798" gradientUnits="userSpaceOnUse"/>
  <linearGradient gradientTransform="matrix(0.4121761,0,0,0.4121761,251.10019,319.60758)" xlink:href="#linearGradient5002" id="linearGradient4352" gradientUnits="userSpaceOnUse" x1="400.571" y1="512.798" x2="415.571" y2="527.798"/>
  <linearGradient xlink:href="#linearGradient5002" id="linearGradient4356" gradientUnits="userSpaceOnUse" x1="397.478" y1="509.704" x2="415.571" y2="527.798" gradientTransform="matrix(0.34876477,0,0,0.34876477,277.00825,352.47352)"/>
  <linearGradient xlink:href="#linearGradient5002" id="linearGradient4356-7" gradientUnits="userSpaceOnUse" x1="386.061" y1="498.288" x2="415.571" y2="527.798" gradientTransform="matrix(0.24413534,0,0,0.24413534,319.75684,406.85969)"/>
  <linearGradient id="linearGradient4199">
   <stop style="stop-color:#2f3943;stop-opacity:1" offset="0"/>
   <stop style="stop-color:#4d5662;stop-opacity:1" offset="1"/>
  </linearGradient>
  <linearGradient id="linearGradient4191">
   <stop style="stop-color:#18222a;stop-opacity:1" offset="0"/>
   <stop style="stop-color:#566069;stop-opacity:1" offset="1"/>
  </linearGradient>
  <linearGradient xlink:href="#linearGradient4199" id="linearGradient4510-4" x1="398.572" y1="508.798" x2="418.571" y2="528.798" gradientUnits="userSpaceOnUse" gradientTransform="matrix(-0.42350052,0,0,-0.42350038,592.53379,753.89541)"/>
  <linearGradient xlink:href="#linearGradient4191" id="linearGradient4510-8" x1="398.305" y1="509.531" x2="419.771" y2="530.998" gradientUnits="userSpaceOnUse" gradientTransform="matrix(0.32385293,0,0,0.32385293,287.18652,365.42263)"/>
  <linearGradient gradientTransform="matrix(0.41415771,0,0,0.41415771,250.29057,318.48242)" xlink:href="#linearGradient4303" id="linearGradient4609" x1="421.571" y1="530.798" x2="398.571" y2="507.798" gradientUnits="userSpaceOnUse"/>
  <linearGradient id="linearGradient4159-5">
   <stop style="stop-color:#1d1e1e;stop-opacity:1" offset="0"/>
   <stop style="stop-color:#44484c;stop-opacity:1" offset="1"/>
  </linearGradient>
  <linearGradient gradientTransform="matrix(0.68749953,0,0,0.82500066,388.57147,500.49797)" xlink:href="#linearGradient4159-5" id="linearGradient4797" x1="24" y1="44" x2="24" y2="4" gradientUnits="userSpaceOnUse"/>
  <linearGradient id="linearGradient4591">
   <stop offset="0" style="stop-color:#7e8f9e;stop-opacity:1"/>
   <stop offset="1" style="stop-color:#84ced5;stop-opacity:1"/>
  </linearGradient>
  <linearGradient gradientTransform="translate(-392.57141,-493.798)" gradientUnits="userSpaceOnUse" y2="489.798" x2="419.571" y1="541.798" x1="419.571" id="linearGradient4597-5" xlink:href="#linearGradient4591"/>
  <linearGradient gradientTransform="translate(-392.57141,-493.798)" gradientUnits="userSpaceOnUse" y2="522.798" x2="404.571" y1="535.798" x1="394.571" id="linearGradient4681" xlink:href="#linearGradient4675"/>
  <linearGradient id="linearGradient4675">
   <stop offset="0" style="stop-color:#e4a56d;stop-opacity:1"/>
   <stop offset="1" style="stop-color:#a7bd78;stop-opacity:1"/>
  </linearGradient>
  <linearGradient gradientTransform="translate(-392.57141,-493.798)" gradientUnits="userSpaceOnUse" y2="532.798" x2="421.571" y1="532.798" x1="404.571" id="linearGradient4689" xlink:href="#linearGradient4683"/>
  <linearGradient id="linearGradient4683">
   <stop offset="0" style="stop-color:#c3a278;stop-opacity:1"/>
   <stop offset="1" style="stop-color:#6688aa;stop-opacity:1"/>
  </linearGradient>
  <linearGradient gradientTransform="translate(-392.57141,-493.798)" gradientUnits="userSpaceOnUse" y2="524.798" x2="437.5" y1="536.798" x1="430.571" id="linearGradient4728" xlink:href="#linearGradient4722"/>
  <linearGradient id="linearGradient4722">
   <stop offset="0" style="stop-color:#6588af;stop-opacity:1"/>
   <stop offset="1" style="stop-color:#8ba8cd;stop-opacity:1"/>
  </linearGradient>
  <linearGradient gradientTransform="translate(-7.9999833,6.0000022)" gradientUnits="userSpaceOnUse" y2="514.798" x2="438.571" y1="514.798" x1="421.571" id="linearGradient4840" xlink:href="#linearGradient4834"/>
  <linearGradient id="linearGradient4834">
   <stop offset="0" style="stop-color:#89ad8b;stop-opacity:1"/>
   <stop offset="1" style="stop-color:#82b3c7;stop-opacity:1"/>
  </linearGradient>
  <linearGradient gradientTransform="translate(-392.57141,-493.798)" gradientUnits="userSpaceOnUse" y2="513.798" x2="401.571" y1="525.798" x1="387.571" id="linearGradient4784" xlink:href="#linearGradient4778"/>
  <linearGradient id="linearGradient4778">
   <stop offset="0" style="stop-color:#e1b16f;stop-opacity:1"/>
   <stop offset="1" style="stop-color:#99bf83;stop-opacity:1"/>
  </linearGradient>
  <linearGradient gradientTransform="translate(-392.57141,-493.798)" gradientUnits="userSpaceOnUse" y2="498.798" x2="391.571" y1="510.798" x1="404.571" id="linearGradient4792" xlink:href="#linearGradient4786"/>
  <linearGradient id="linearGradient4786">
   <stop offset="0" style="stop-color:#99c487;stop-opacity:1"/>
   <stop offset="1" style="stop-color:#b4d99e;stop-opacity:1"/>
  </linearGradient>
  <linearGradient gradientTransform="translate(-392.57141,-493.798)" gradientUnits="userSpaceOnUse" y2="501.798" x2="421.571" y1="501.798" x1="404.571" id="linearGradient4808" xlink:href="#linearGradient4802"/>
  <linearGradient id="linearGradient4802">
   <stop offset="0" style="stop-color:#75d5c7;stop-opacity:1"/>
   <stop offset="1" style="stop-color:#66afb9;stop-opacity:1"/>
  </linearGradient>
  <linearGradient gradientTransform="translate(-392.57141,-493.798)" gradientUnits="userSpaceOnUse" y2="504.798" x2="438.571" y1="495.798" x1="428.571" id="linearGradient4776" xlink:href="#linearGradient4770-9"/>
  <linearGradient id="linearGradient4770-9">
   <stop offset="0" style="stop-color:#5c7b9e;stop-opacity:1"/>
   <stop offset="1" style="stop-color:#839dc0;stop-opacity:1"/>
  </linearGradient>
  <linearGradient gradientTransform="translate(-392.57141,-493.798)" gradientUnits="userSpaceOnUse" y2="492.798" x2="406.571" y1="492.798" x1="421.571" id="linearGradient4816" xlink:href="#linearGradient4810"/>
  <linearGradient id="linearGradient4810">
   <stop offset="0" style="stop-color:#7fbcc6;stop-opacity:1"/>
   <stop offset="1" style="stop-color:#8ee4e3;stop-opacity:1"/>
  </linearGradient>
  <linearGradient gradientTransform="translate(-392.57141,-493.798)" gradientUnits="userSpaceOnUse" y2="492.798" x2="436.571" y1="492.798" x1="421.571" id="linearGradient4824" xlink:href="#linearGradient4818"/>
  <linearGradient id="linearGradient4818">
   <stop offset="0" style="stop-color:#84d5d7;stop-opacity:1"/>
   <stop offset="1" style="stop-color:#84a8ba;stop-opacity:1"/>
  </linearGradient>
 </defs>
 <g transform="translate(-384.57143,-499.798)">
  <g transform="matrix(0.62499949,0,0,0.88000083,149.71453,61.995304)">
   <path transform="translate(384.57143,499.798)" d="M 2,6 2,36 46,36 46,6 2,6 Z" style="opacity:1;fill:url(#linearGradient4597-5);fill-opacity:1;stroke:none"/>
   <path transform="translate(384.57143,499.798)" d="M 12,22 2,30.234375 2,36 12,36 12,22 Z" style="fill:url(#linearGradient4681);fill-opacity:1;fill-rule:evenodd;stroke:none;stroke-width:1px;stroke-linecap:butt;stroke-linejoin:miter;stroke-opacity:1"/>
   <path transform="translate(384.57143,499.798)" d="M 12,22 12,36 29,36 12,22 Z" style="fill:url(#linearGradient4689);fill-opacity:1;fill-rule:evenodd;stroke:none;stroke-width:1px;stroke-linecap:butt;stroke-linejoin:miter;stroke-opacity:1"/>
   <path transform="translate(384.57143,499.798)" d="M 46,22 29,36 46,36 46,22 Z" style="fill:url(#linearGradient4728);fill-opacity:1;fill-rule:evenodd;stroke:none;stroke-width:1px;stroke-linecap:butt;stroke-linejoin:miter;stroke-opacity:1"/>
   <path d="m 413.57144,529.798 0,-22 16.99999,14 -16.99999,14 z" style="fill:url(#linearGradient4840);fill-opacity:1;fill-rule:evenodd;stroke:none;stroke-width:1px;stroke-linecap:butt;stroke-linejoin:miter;stroke-opacity:1"/>
   <path transform="translate(384.57143,499.798)" d="M 2,13.765625 2,30.234375 12,22 2,13.765625 Z" style="fill:url(#linearGradient4784);fill-opacity:1;fill-rule:evenodd;stroke:none;stroke-width:1px;stroke-linecap:butt;stroke-linejoin:miter;stroke-opacity:1"/>
   <path transform="translate(384.57143,499.798)" d="M 2,6 2,13.765625 12,22 12,16 12,6 2,6 Z" style="fill:url(#linearGradient4792);fill-opacity:1;fill-rule:evenodd;stroke:none;stroke-width:1px;stroke-linecap:butt;stroke-linejoin:miter;stroke-opacity:1"/>
   <path transform="translate(384.57143,499.798)" d="m 12,6 0,10 0,6 L 29,8 26.570312,6 12,6 Z" style="fill:url(#linearGradient4808);fill-opacity:1;fill-rule:evenodd;stroke:none;stroke-width:1px;stroke-linecap:butt;stroke-linejoin:miter;stroke-opacity:1"/>
   <path transform="translate(384.57143,499.798)" d="M 31.429688,6 29,8 46,22 46,16 46,6 31.429688,6 Z" style="fill:url(#linearGradient4776);fill-opacity:1;fill-rule:evenodd;stroke:none;stroke-width:1px;stroke-linecap:butt;stroke-linejoin:miter;stroke-opacity:1"/>
   <path transform="translate(384.57143,499.798)" d="M 26.570312,6 29,8 29,6 26.570312,6 Z" style="fill:url(#linearGradient4816);fill-opacity:1;fill-rule:evenodd;stroke:none;stroke-width:1px;stroke-linecap:butt;stroke-linejoin:miter;stroke-opacity:1"/>
   <path transform="translate(384.57143,499.798)" d="M 29,6 29,8 31.429688,6 29,6 Z" style="fill:url(#linearGradient4824);fill-opacity:1;fill-rule:evenodd;stroke:none;stroke-width:1px;stroke-linecap:butt;stroke-linejoin:miter;stroke-opacity:1"/>
  </g>
  <path style="opacity:1;fill:url(#linearGradient4797);fill-opacity:1;stroke:none;stroke-width:2.79999995;stroke-miterlimit:4;stroke-dasharray:none;stroke-opacity:0.55026455" d="m 388.57147,503.79797 0,1.65 0,31.35003 1.375,0 31.62498,0 0,-1.65 0,-29.70003 0,-1.65 -1.375,0 -30.24998,0 z m 2.75,3.3 27.49998,0 0,26.40003 -27.49998,0 z"/>
  <g transform="matrix(1.1654882,0,0,1.1654882,-66.961023,-87.377533)">
   <path d="m 396.44141,515.2588 c -0.71795,0.1743 -2.68438,5.4631 -2.68438,5.4631 0.21162,-0.36216 2.77435,-3.04625 3.44779,-3.49715 0.60042,-0.40199 4.54993,-0.7497 4.54993,-0.7497 0,0 -4.54204,-1.40356 -5.31334,-1.21625 z m 10.13002,-4.4608 c -0.68292,0.48884 -3.4131,5.27359 -3.4131,5.27359 0,0 3.18163,-2.96789 3.8454,-3.1537 0.74451,-0.20838 4.07864,-0.2661 4.42633,-0.16392 0,0 -4.22293,-2.41099 -4.85863,-1.95597 z" style="fill:#3c3c3c;fill-opacity:1;fill-rule:evenodd;stroke:none;stroke-width:1px;stroke-linecap:butt;stroke-linejoin:miter;stroke-opacity:1"/>
   <path d="m 396.21092,524.05919 a 6.5860599,8.975803 59.500261 0 0 9.63965,3.6239 6.5860599,8.975803 59.500261 0 0 7.00334,-9.63228 l -16.64299,6.00838 z" style="fill:#d5d5d5;fill-opacity:0.64206699;stroke:#3c3c3c;stroke-width:0.3786405;stroke-miterlimit:4;stroke-dasharray:none;stroke-opacity:1"/>
  </g>
  <path style="opacity:1;fill:url(#linearGradient4352);fill-opacity:1;stroke:none;stroke-width:2;stroke-linecap:round;stroke-linejoin:round;stroke-miterlimit:4;stroke-dasharray:none;stroke-opacity:1" r="10" cy="519.798" cx="408.571"/>
  <g transform="matrix(1.5845413,0,0,1.5845413,-246.64926,-312.46793)">
   <circle r="6.627" cy="533.761" cx="419.504" style="opacity:1;fill:url(#linearGradient4609);fill-opacity:1;stroke:none;stroke-width:2;stroke-linecap:round;stroke-linejoin:round;stroke-miterlimit:4;stroke-dasharray:none;stroke-opacity:1"/>
   <path d="m 413.57457,533.76075 a 5.9289957,5.9289939 0 0 1 5.929,-5.92899 5.9289957,5.9289939 0 0 1 5.92899,5.92899 5.9289957,5.9289939 0 0 1 -5.92899,5.929 5.9289957,5.9289939 0 0 1 -5.929,-5.929 z" style="opacity:1;fill:url(#linearGradient4510-4);fill-opacity:1;stroke:none;stroke-width:2;stroke-linecap:round;stroke-linejoin:round;stroke-miterlimit:4;stroke-dasharray:none;stroke-opacity:1"/>
   <circle r="4.534" cy="533.761" cx="419.504" style="opacity:1;fill:url(#linearGradient4510-8);fill-opacity:1;stroke:none;stroke-width:2;stroke-linecap:round;stroke-linejoin:round;stroke-miterlimit:4;stroke-dasharray:none;stroke-opacity:1"/>
   <circle r="4.185" cx="419.504" cy="533.761" style="opacity:1;fill:url(#linearGradient4327);fill-opacity:1;stroke:none;stroke-width:2;stroke-linecap:round;stroke-linejoin:round;stroke-miterlimit:4;stroke-dasharray:none;stroke-opacity:1"/>
   <circle r="3.488" style="opacity:1;fill:url(#linearGradient4356);fill-opacity:1;stroke:none;stroke-width:2;stroke-linecap:round;stroke-linejoin:round;stroke-miterlimit:4;stroke-dasharray:none;stroke-opacity:1" cy="533.761" cx="419.504"/>
   <circle r="2.441" style="opacity:1;fill:url(#linearGradient4356-7);fill-opacity:1;stroke:none;stroke-width:2;stroke-linecap:round;stroke-linejoin:round;stroke-miterlimit:4;stroke-dasharray:none;stroke-opacity:1" cy="533.761" cx="419.504"/>
   <circle r="1.744" style="opacity:1;fill:#2c3e50;fill-opacity:1;stroke:none;stroke-width:2;stroke-linecap:round;stroke-linejoin:round;stroke-miterlimit:4;stroke-dasharray:none;stroke-opacity:1" cy="533.761" cx="419.504"/>
   <circle r=".349" cy="532.714" cx="418.457" style="opacity:1;fill:#84cbfe;fill-opacity:1;stroke:none;stroke-width:2;stroke-linecap:round;stroke-linejoin:round;stroke-miterlimit:4;stroke-dasharray:none;stroke-opacity:1"/>
   <circle r=".698" cy="531.668" cx="417.411" style="opacity:1;fill:#84cbfe;fill-opacity:1;stroke:none;stroke-width:2;stroke-linecap:round;stroke-linejoin:round;stroke-miterlimit:4;stroke-dasharray:none;stroke-opacity:1"/>
  </g>
 </g>
</svg>
