<?xml version="1.0" encoding="UTF-8" standalone="no"?>
<!-- Created with Inkscape (http://www.inkscape.org/) -->

<svg
   xmlns:dc="http://purl.org/dc/elements/1.1/"
   xmlns:cc="http://creativecommons.org/ns#"
   xmlns:rdf="http://www.w3.org/1999/02/22-rdf-syntax-ns#"
   xmlns:svg="http://www.w3.org/2000/svg"
   xmlns="http://www.w3.org/2000/svg"
   xmlns:xlink="http://www.w3.org/1999/xlink"
   xmlns:sodipodi="http://sodipodi.sourceforge.net/DTD/sodipodi-0.dtd"
   xmlns:inkscape="http://www.inkscape.org/namespaces/inkscape"
   width="48"
   height="48"
   viewBox="0 0 48 48.000002"
   version="1.1"
   id="svg8"
   inkscape:version="0.92.3 (2405546, 2018-03-11)"
   sodipodi:docname="elisa.svg">
  <defs
     id="defs2">
    <linearGradient
       inkscape:collect="always"
       xlink:href="#linearGradient904"
       id="linearGradient882"
       x1="43.454502"
       y1="140.15311"
       x2="43.454502"
       y2="153.38226"
       gradientUnits="userSpaceOnUse"
       gradientTransform="matrix(2.3622046,0,0,2.5196849,-79.898426,728.04468)" />
    <linearGradient
       id="linearGradient904"
       inkscape:collect="always">
      <stop
         id="stop900"
         offset="0"
         style="stop-color:#333333;stop-opacity:1" />
      <stop
         id="stop902"
         offset="1"
         style="stop-color:#000000;stop-opacity:1" />
    </linearGradient>
    <linearGradient
       inkscape:collect="always"
       xlink:href="#linearGradient988"
       id="linearGradient990"
       x1="29.999998"
       y1="32.999958"
       x2="29.999998"
       y2="15.99996"
       gradientUnits="userSpaceOnUse"
       gradientTransform="matrix(0.62962961,0,0,0.70588192,3.8518557,1083.2256)" />
    <linearGradient
       inkscape:collect="always"
       id="linearGradient988">
      <stop
         style="stop-color:#2ca05a;stop-opacity:1"
         offset="0"
         id="stop984" />
      <stop
         style="stop-color:#87deaa;stop-opacity:1"
         offset="1"
         id="stop986" />
    </linearGradient>
    <linearGradient
       inkscape:collect="always"
       xlink:href="#linearGradient904"
       id="linearGradient862"
       gradientUnits="userSpaceOnUse"
       gradientTransform="matrix(3.1776986,0,0,2.5538087,-115.56809,723.08918)"
       x1="43.454502"
       y1="140.15311"
       x2="43.454502"
       y2="153.38226" />
    <linearGradient
       inkscape:collect="always"
       xlink:href="#linearGradient916"
       id="linearGradient899"
       x1="42.925335"
       y1="149.41351"
       x2="42.925335"
       y2="151.79477"
       gradientUnits="userSpaceOnUse"
       gradientTransform="matrix(3.7795276,0,0,2.93963,-134.23749,668.29918)" />
    <linearGradient
       inkscape:collect="always"
       id="linearGradient916">
      <stop
         style="stop-color:#4d4d4d;stop-opacity:1"
         offset="0"
         id="stop912" />
      <stop
         style="stop-color:#1a1a1a;stop-opacity:1"
         offset="1"
         id="stop914" />
    </linearGradient>
    <linearGradient
       inkscape:collect="always"
       xlink:href="#linearGradient904"
       id="linearGradient890"
       x1="39.485752"
       y1="140.15311"
       x2="39.485752"
       y2="153.38226"
       gradientUnits="userSpaceOnUse"
       gradientTransform="matrix(3.0236221,0,0,3.0236221,-106.39,651.14949)" />
    <linearGradient
       inkscape:collect="always"
       xlink:href="#linearGradient904"
       id="linearGradient898"
       x1="48.746166"
       y1="140.15311"
       x2="48.746166"
       y2="153.38226"
       gradientUnits="userSpaceOnUse"
       gradientTransform="matrix(3.0236221,0,0,3.0236221,-111.58999,651.14952)" />
    <linearGradient
       inkscape:collect="always"
       xlink:href="#linearGradient904"
       id="linearGradient982"
       x1="34.999996"
       y1="-2.0000405"
       x2="34.999996"
       y2="47.999958"
       gradientUnits="userSpaceOnUse"
       gradientTransform="matrix(0.76470573,0,0,0.80003819,-0.47040068,1080.1197)" />
    <linearGradient
       inkscape:collect="always"
       xlink:href="#linearGradient1004-8"
       id="linearGradient986"
       x1="41.07325"
       y1="146.5031"
       x2="41.07325"
       y2="147.56143"
       gradientUnits="userSpaceOnUse"
       gradientTransform="matrix(3.7795276,0,0,3.7795276,-134.23749,542.80715)" />
    <linearGradient
       inkscape:collect="always"
       id="linearGradient1004-8">
      <stop
         style="stop-color:#552200;stop-opacity:1"
         offset="0"
         id="stop1000" />
      <stop
         style="stop-color:#2b1100;stop-opacity:1"
         offset="1"
         id="stop1002" />
    </linearGradient>
    <linearGradient
       inkscape:collect="always"
       xlink:href="#linearGradient904"
       id="linearGradient917"
       gradientUnits="userSpaceOnUse"
       gradientTransform="matrix(2.8417481,0,0,2.3820664,-103.23146,748.01821)"
       x1="43.454502"
       y1="140.15311"
       x2="43.454502"
       y2="153.38226" />
    <linearGradient
       inkscape:collect="always"
       xlink:href="#linearGradient904"
       id="linearGradient919"
       gradientUnits="userSpaceOnUse"
       gradientTransform="matrix(2.7846178,0,0,2.2379029,-100.26514,768.86756)"
       x1="43.454502"
       y1="140.15311"
       x2="43.454502"
       y2="153.38226" />
    <linearGradient
       inkscape:collect="always"
       xlink:href="#linearGradient904"
       id="linearGradient921"
       gradientUnits="userSpaceOnUse"
       gradientTransform="matrix(2.6919788,0,0,2.3077182,-95.712592,758.77063)"
       x1="43.454502"
       y1="140.15311"
       x2="43.454502"
       y2="153.38226" />
    <linearGradient
       inkscape:collect="always"
       xlink:href="#linearGradient904"
       id="linearGradient923"
       gradientUnits="userSpaceOnUse"
       gradientTransform="matrix(3.1725212,0,0,2.5496477,-116.13004,723.73939)"
       x1="43.454502"
       y1="140.15311"
       x2="43.454502"
       y2="153.38226" />
  </defs>
  <sodipodi:namedview
     id="base"
     pagecolor="#ffffff"
     bordercolor="#666666"
     borderopacity="1.0"
     inkscape:pageopacity="0.0"
     inkscape:pageshadow="2"
     inkscape:zoom="16.15"
     inkscape:cx="17.895975"
     inkscape:cy="24.613974"
     inkscape:document-units="px"
     inkscape:current-layer="layer1"
     showgrid="true"
     units="px"
     inkscape:window-width="1920"
     inkscape:window-height="1020"
     inkscape:window-x="0"
     inkscape:window-y="30"
     inkscape:window-maximized="1">
    <inkscape:grid
       type="xygrid"
       id="grid939" />
  </sodipodi:namedview>
  <metadata
     id="metadata5">
    <rdf:RDF>
      <cc:Work
         rdf:about="">
        <dc:format>image/svg+xml</dc:format>
        <dc:type
           rdf:resource="http://purl.org/dc/dcmitype/StillImage" />
        <dc:title></dc:title>
      </cc:Work>
    </rdf:RDF>
  </metadata>
  <g
     inkscape:label="Layer 1"
     inkscape:groupmode="layer"
     id="layer1"
     transform="translate(0,-1074.5197)">
    <path
       style="opacity:1;fill:url(#linearGradient882);fill-opacity:1;fill-rule:nonzero;stroke:none;stroke-width:0.00998151;stroke-miterlimit:4;stroke-dasharray:none;stroke-opacity:1;paint-order:markers fill stroke"
       d="m 7.1210931,1082.5197 c -1.729115,0 -3.1210938,1.4857 -3.1210938,3.3301 v 25.3398 c 0,1.8444 1.3919788,3.3301 3.1210938,3.3301 H 40.878905 c 1.729115,0 3.121094,-1.4857 3.121094,-3.3301 v -25.3398 c 0,-1.8444 -1.391979,-3.3301 -3.121094,-3.3301 z m 7.8789059,13 a 3,3 0 0 1 3,3 3,3 0 0 1 -3,3 3,3 0 0 1 -3,-3 3,3 0 0 1 3,-3 z m 18,0 a 3,3 0 0 1 3,3 3,3 0 0 1 -3,3 3,3 0 0 1 -3,-3 3,3 0 0 1 3,-3 z"
       id="rect10"
       inkscape:connector-curvature="0" />
    <path
       inkscape:connector-curvature="0"
       style="opacity:1;fill:#dbe3e2;fill-opacity:1;fill-rule:nonzero;stroke:none;stroke-width:0.09447239;stroke-miterlimit:4;stroke-dasharray:none;stroke-opacity:1;paint-order:markers fill stroke"
       d="m 8.7050791,1085.5197 c -0.9451767,0 -1.705081,0.9054 -1.705081,2.0312 v 16.9375 c 0,1.1259 0.7599043,2.0313 1.705081,2.0313 H 39.29492 c 0.945173,0 1.705081,-0.9054 1.705081,-2.0313 v -16.9375 c 0,-1.1258 -0.759908,-2.0312 -1.705081,-2.0312 z m 6.2949199,10 a 3,3 0 0 1 3.000001,3 3,3 0 0 1 -3.000001,3 3,3 0 0 1 -3,-3 3,3 0 0 1 3,-3 z m 18.000001,0 a 3,3 0 0 1 3,3 3,3 0 0 1 -3,3 3,3 0 0 1 -3,-3 3,3 0 0 1 3,-3 z"
       id="rect22" />
    <path
       inkscape:connector-curvature="0"
       style="opacity:1;fill:url(#linearGradient990);fill-opacity:1;fill-rule:nonzero;stroke:none;stroke-width:0.09165162;stroke-miterlimit:4;stroke-dasharray:none;stroke-opacity:1;paint-order:markers fill stroke"
       d="m 6.9999981,1094.5197 v 10.0879 c 0,1.0596 0.7599043,1.9121 1.705081,1.9121 H 39.29492 c 0.945173,0 1.705081,-0.8525 1.705081,-1.9121 v -10.0879 z m 8.0000009,1 a 3,3 0 0 1 3.000001,3 3,3 0 0 1 -3.000001,3 3,3 0 0 1 -3,-3 3,3 0 0 1 3,-3 z m 18.000001,0 a 3,3 0 0 1 3,3 3,3 0 0 1 -3,3 3,3 0 0 1 -3,-3 3,3 0 0 1 3,-3 z"
       id="rect22-3" />
    <path
       inkscape:connector-curvature="0"
       id="path857"
       style="font-style:normal;font-variant:normal;font-weight:normal;font-stretch:normal;font-size:2.70465589px;line-height:1.25;font-family:'Third Rail - Demo';-inkscape-font-specification:'Third Rail - Demo';letter-spacing:0px;word-spacing:0px;fill:url(#linearGradient917);fill-opacity:1;stroke:none;stroke-width:0.68838614"
       d="m 16,1092.5197 h -4 v -6 h 4 v 0.6639 h -3.097743 v 1.874 h 2.917292 v 0.6554 h -2.917292 v 2.1429 H 16 Z" />
    <path
       inkscape:connector-curvature="0"
       id="path859"
       style="font-style:normal;font-variant:normal;font-weight:normal;font-stretch:normal;font-size:2.70465589px;line-height:1.25;font-family:'Third Rail - Demo';-inkscape-font-specification:'Third Rail - Demo';letter-spacing:0px;word-spacing:0px;fill:url(#linearGradient919);fill-opacity:1;stroke:none;stroke-width:0.66048938"
       d="M 18.864471,1092.5197 H 18 v -6 h 0.864471 z" />
    <path
       inkscape:connector-curvature="0"
       id="path861"
       style="font-style:normal;font-variant:normal;font-weight:normal;font-stretch:normal;font-size:2.70465589px;line-height:1.25;font-family:'Third Rail - Demo';-inkscape-font-specification:'Third Rail - Demo';letter-spacing:0px;word-spacing:0px;fill:url(#linearGradient921);fill-opacity:1;stroke:none;stroke-width:0.6594618"
       d="m 21.493815,1086.5197 q 0.189933,0 0.332372,0.1142 0.151972,0.1061 0.151972,0.3419 0,0.236 -0.151972,0.3501 -0.142435,0.1061 -0.332372,0.1061 -0.208916,0 -0.351379,-0.1061 Q 21,1087.2117 21,1086.9758 q 0,-0.236 0.142436,-0.3419 0.142435,-0.1142 0.351379,-0.1142 z m 0.408355,1.6364 v 4.3636 h -0.835705 v -4.3636 z" />
    <path
       inkscape:connector-curvature="0"
       id="path863"
       style="font-style:normal;font-variant:normal;font-weight:normal;font-stretch:normal;font-size:2.70465589px;line-height:1.25;font-family:'Third Rail - Demo';-inkscape-font-specification:'Third Rail - Demo';letter-spacing:0px;word-spacing:0px;fill:url(#linearGradient923);fill-opacity:1;stroke:none;stroke-width:0.75249702"
       d="m 28.286528,1091.1459 q 0,0.7016 -0.649132,1.0613 -0.649134,0.3598 -1.745944,0.3598 -0.626751,0 -1.085615,-0.081 -0.447683,-0.081 -0.79463,-0.2247 v -0.7196 q 0.358129,0.1439 0.861779,0.2697 0.514831,0.1172 1.040849,0.1172 0.74986,0 1.085622,-0.1888 0.33576,-0.1977 0.33576,-0.5217 0,-0.1799 -0.123123,-0.3239 -0.123123,-0.1439 -0.447679,-0.2875 -0.31339,-0.1439 -0.90655,-0.3238 -0.58198,-0.1799 -0.996083,-0.3598 -0.414099,-0.1799 -0.637942,-0.4318 Q 24,1089.2395 24,1088.8437 q 0,-0.6116 0.615555,-0.9445 0.626751,-0.3327 1.634025,-0.3327 0.548407,0 1.01847,0.09 0.481255,0.089 0.895354,0.2337 l -0.335759,0.6295 q -0.380535,-0.1261 -0.79463,-0.2158 -0.414099,-0.089 -0.85059,-0.089 -0.604364,0 -0.928931,0.1621 -0.313353,0.1529 -0.313353,0.4228 0,0.207 0.145492,0.3416 0.145492,0.135 0.481255,0.2696 0.346926,0.1351 0.917739,0.3058 0.570791,0.171 0.973702,0.3509 0.402918,0.1799 0.615555,0.4407 0.212636,0.2519 0.212636,0.6386 z" />
    <path
       inkscape:connector-curvature="0"
       id="path865"
       style="font-style:normal;font-variant:normal;font-weight:normal;font-stretch:normal;font-size:2.70465589px;line-height:1.25;font-family:'Third Rail - Demo';-inkscape-font-specification:'Third Rail - Demo';letter-spacing:0px;word-spacing:0px;fill:url(#linearGradient862);fill-opacity:1;stroke:none;stroke-width:0.75372505"
       d="m 32.811736,1087.5186 q 1.0986,0 1.625482,0.3873 0.526881,0.3875 0.526881,1.2343 v 3.2883 h -0.717456 l -0.190578,-0.6846 h -0.04485 q -0.392348,0.3964 -0.829555,0.5855 -0.4372,0.1892 -1.188286,0.1892 -0.818344,0 -1.356431,-0.3422 -0.538096,-0.3515 -0.538096,-1.0901 0,-0.7207 0.706249,-1.1082 0.706241,-0.3963 2.17478,-0.4324 L 34,1089.5197 v -0.288 q 0,-0.6036 -0.325123,-0.8378 -0.325086,-0.2341 -0.919233,-0.2341 -0.470833,0 -0.896818,0.117 -0.42599,0.1081 -0.795924,0.2523 l -0.30268,-0.5947 q 0.392347,-0.1712 0.930446,-0.2879 0.538091,-0.1263 1.121024,-0.1263 z m 1.177071,2.5496 -0.885605,0.026 q -1.121024,0.037 -1.55822,0.2879 -0.425989,0.2524 -0.425989,0.7118 0,0.4053 0.30268,0.5946 0.313902,0.1891 0.795924,0.1891 0.751082,0 1.255544,-0.3334 0.51567,-0.3421 0.51567,-1.045 z" />
    <path
       style="fill:url(#linearGradient899);fill-opacity:1;stroke:none;stroke-width:0.8819167px;stroke-linecap:butt;stroke-linejoin:miter;stroke-opacity:1"
       d="m 6.9999981,1114.5197 3.9999989,-7 h 26.000001 l 3.999999,7 z"
       id="path891"
       inkscape:connector-curvature="0" />
    <circle
       style="opacity:1;fill:url(#linearGradient890);fill-opacity:1;fill-rule:nonzero;stroke:none;stroke-width:0.19999997;stroke-miterlimit:4;stroke-dasharray:none;stroke-opacity:1;paint-order:markers fill stroke"
       id="path833"
       cx="15"
       cy="1110.5197"
       r="1.9999999" />
    <circle
       style="opacity:1;fill:url(#linearGradient898);fill-opacity:1;fill-rule:nonzero;stroke:none;stroke-width:0.19999997;stroke-miterlimit:4;stroke-dasharray:none;stroke-opacity:1;paint-order:markers fill stroke"
       id="path833-9"
       cx="33.000004"
       cy="1110.5197"
       r="1.9999999" />
    <path
       inkscape:connector-curvature="0"
       style="opacity:1;fill:url(#linearGradient982);fill-opacity:1;fill-rule:nonzero;stroke:none;stroke-width:0.07709182;stroke-miterlimit:4;stroke-dasharray:none;stroke-opacity:1;paint-order:markers fill stroke"
       d="m 14.818359,1094.5197 c -2.114944,0 -3.818358,1.7815 -3.818358,3.9941 v 0.011 c 0,2.2126 1.703414,3.9941 3.818358,3.9941 H 33.18164 c 2.114948,0 3.818358,-1.7815 3.818358,-3.9941 v -0.011 c 0,-2.2126 -1.70341,-3.9941 -3.818358,-3.9941 z m 0.181644,1 a 3,3 0 0 1 3,3 3,3 0 0 1 -3,3 3,3 0 0 1 -3,-3 3,3 0 0 1 3,-3 z m 18,0 a 3,3 0 0 1 3,3 3,3 0 0 1 -3,3 3,3 0 0 1 -3,-3 3,3 0 0 1 3,-3 z"
       id="rect850" />
    <rect
       style="opacity:1;fill:#dbe2e3;fill-opacity:1;fill-rule:nonzero;stroke:none;stroke-width:0.09128708;stroke-miterlimit:4;stroke-dasharray:none;stroke-opacity:1;paint-order:markers fill stroke"
       id="rect881"
       width="10"
       height="3.9999998"
       x="18.999989"
       y="1096.5197" />
    <path
       inkscape:connector-curvature="0"
       style="display:inline;opacity:1;fill:url(#linearGradient986);fill-opacity:1;fill-rule:nonzero;stroke:none;stroke-width:0.09128708;stroke-miterlimit:4;stroke-dasharray:none;stroke-opacity:1;paint-order:markers fill stroke"
       d="m 18.999998,1096.5196 v 4 h 3.650393 a 6.0000001,6.0000001 0 0 0 0.349606,-1.9999 6.0000001,6.0000001 0 0 0 -0.349606,-2.0001 z"
       id="rect881-75" />
  </g>
</svg>
