<?xml version="1.0" encoding="UTF-8" standalone="no"?>
<svg
   xmlns:dc="http://purl.org/dc/elements/1.1/"
   xmlns:cc="http://creativecommons.org/ns#"
   xmlns:rdf="http://www.w3.org/1999/02/22-rdf-syntax-ns#"
   xmlns:svg="http://www.w3.org/2000/svg"
   xmlns="http://www.w3.org/2000/svg"
   xmlns:sodipodi="http://sodipodi.sourceforge.net/DTD/sodipodi-0.dtd"
   xmlns:inkscape="http://www.inkscape.org/namespaces/inkscape"
   height="22"
   width="22"
   version="1.1"
   id="svg2"
   sodipodi:docname="ac-adapter.svg"
   inkscape:version="0.92.1 r15371">
  <metadata
     id="metadata9">
    <rdf:RDF>
      <cc:Work
         rdf:about="">
        <dc:format>image/svg+xml</dc:format>
        <dc:type
           rdf:resource="http://purl.org/dc/dcmitype/StillImage" />
      </cc:Work>
    </rdf:RDF>
  </metadata>
  <sodipodi:namedview
     pagecolor="#ffffff"
     bordercolor="#666666"
     borderopacity="1"
     objecttolerance="10"
     gridtolerance="10"
     guidetolerance="10"
     inkscape:pageopacity="0"
     inkscape:pageshadow="2"
     inkscape:window-width="1600"
     inkscape:window-height="822"
     id="namedview7"
     showgrid="false"
     inkscape:zoom="10.727273"
     inkscape:cx="-7.2711864"
     inkscape:cy="11"
     inkscape:window-x="0"
     inkscape:window-y="0"
     inkscape:window-maximized="1"
     inkscape:current-layer="svg2" />
  <defs
     id="defs10">
    <style
       type="text/css"
       id="current-color-scheme">
   .ColorScheme-Text { color:#4d4d4d; } .ColorScheme-Highlight { color:#3daee9; }
  </style>
  </defs>
  <g
     id="g4494"
     transform="matrix(1.1428571,0,0,1.1428571,-231.28571,-768.8514)">
    <path
       style="fill:#4d4d4d;stroke-width:1.14285707;fill-opacity:1"
       d="M 11 3 C 6.5817145 3 3 6.5817145 3 11 C 3 15.418286 6.5817145 19 11 19 C 15.418286 19 19 15.418286 19 11 C 19 6.5817145 15.418286 3 11 3 z M 11 4.0097656 C 14.866 4.0097656 18 7.1437648 18 11.009766 C 18 14.875766 14.866 18.009766 11 18.009766 C 7.134 18.009766 4 14.875766 4 11.009766 C 4 7.1437648 7.134 4.0097656 11 4.0097656 z M 11 6.4277344 L 7.5722656 12.142578 L 11 12.142578 L 11 15.572266 L 14.427734 9.8574219 L 11 9.8574219 L 11 6.4277344 z "
       transform="matrix(0.87500003,0,0,0.87500003,202.375,672.745)"
       id="path4490" />
  </g>
  <g
     transform="translate(-201 -671.36)"
     id="g4" />
</svg>
