<?xml version="1.0" encoding="UTF-8" standalone="no"?>
<svg
   xmlns:dc="http://purl.org/dc/elements/1.1/"
   xmlns:cc="http://creativecommons.org/ns#"
   xmlns:rdf="http://www.w3.org/1999/02/22-rdf-syntax-ns#"
   xmlns:svg="http://www.w3.org/2000/svg"
   xmlns="http://www.w3.org/2000/svg"
   xmlns:sodipodi="http://sodipodi.sourceforge.net/DTD/sodipodi-0.dtd"
   xmlns:inkscape="http://www.inkscape.org/namespaces/inkscape"
   height="22"
   width="22"
   version="1"
   id="svg2"
   sodipodi:docname="audacious-panel.svg"
   inkscape:version="0.92.1 r15371">
  <metadata
     id="metadata8">
    <rdf:RDF>
      <cc:Work
         rdf:about="">
        <dc:format>image/svg+xml</dc:format>
        <dc:type
           rdf:resource="http://purl.org/dc/dcmitype/StillImage" />
      </cc:Work>
    </rdf:RDF>
  </metadata>
  <sodipodi:namedview
     pagecolor="#ffffff"
     bordercolor="#666666"
     borderopacity="1"
     objecttolerance="10"
     gridtolerance="10"
     guidetolerance="10"
     inkscape:pageopacity="0"
     inkscape:pageshadow="2"
     inkscape:window-width="1600"
     inkscape:window-height="822"
     id="namedview6"
     showgrid="false"
     inkscape:zoom="10.727273"
     inkscape:cx="-7.2711864"
     inkscape:cy="11"
     inkscape:window-x="0"
     inkscape:window-y="0"
     inkscape:window-maximized="1"
     inkscape:current-layer="svg2" />
  <defs
     id="defs8">
    <style
       type="text/css"
       id="current-color-scheme">
   .ColorScheme-Text { color:#4d4d4d; } .ColorScheme-Highlight { color:#3daee9; }
  </style>
  </defs>
  <path
     style="fill:#4d4d4d;fill-opacity:1"
     d="M 11 3 A 8 8 0 0 0 3 11 A 8 8 0 0 0 11 19 A 8 8 0 0 0 19 11 A 8 8 0 0 0 11 3 z M 11 4 C 14.877838 4 18 7.1221621 18 11 C 18 14.877838 14.877838 18 11 18 C 7.1221621 18 4 14.877838 4 11 C 4 7.1221621 7.1221621 4 11 4 z M 10.884766 7.0019531 C 10.760286 6.9972041 10.635106 7.0036656 10.503906 7.0097656 C 9.7248064 7.0457656 8.3461938 7.0166594 7.8085938 7.6933594 C 7.4800937 8.1067594 7.6333186 9.0680687 8.1367188 9.1679688 C 8.7639188 9.2923687 9.8241064 8.9847469 10.503906 9.0605469 C 10.977906 9.1134469 11.113516 9.5185814 10.728516 9.8007812 C 10.319516 10.099981 9.3922281 10.010156 8.9238281 10.160156 C 7.3046281 10.679156 6.7227406 11.777578 7.1191406 13.267578 C 7.3777406 14.238578 8.2946686 14.959 9.2929688 15 C 11.212969 14.995 10.853203 13.962 11.783203 14.5 C 12.089203 14.877 12.707344 14.997422 13.027344 14.732422 C 13.541134 14.307022 14.314098 14.079774 13.767578 13.208984 C 13.505858 12.791984 14.117769 12.250881 13.980469 10.175781 C 13.858569 8.3349816 12.754019 7.0725831 10.886719 7.0019531 L 10.884766 7.0019531 z M 10.636719 11.451172 C 11.069229 11.451172 11.410156 11.773971 11.410156 12.175781 C 11.410156 12.577611 11.069219 12.908203 10.636719 12.908203 C 10.204209 12.908203 9.8457031 12.577631 9.8457031 12.175781 C 9.8457031 11.773951 10.204239 11.451172 10.636719 11.451172 z "
     id="path4489" />
</svg>
