<?xml version="1.0" encoding="UTF-8" standalone="no"?>
<svg
   xmlns:dc="http://purl.org/dc/elements/1.1/"
   xmlns:cc="http://creativecommons.org/ns#"
   xmlns:rdf="http://www.w3.org/1999/02/22-rdf-syntax-ns#"
   xmlns:svg="http://www.w3.org/2000/svg"
   xmlns="http://www.w3.org/2000/svg"
   xmlns:sodipodi="http://sodipodi.sourceforge.net/DTD/sodipodi-0.dtd"
   xmlns:inkscape="http://www.inkscape.org/namespaces/inkscape"
   height="22"
   width="22"
   version="1.1"
   id="svg2"
   sodipodi:docname="caffeine-cup-full.svg"
   inkscape:version="0.92.1 r15371">
  <metadata
     id="metadata8">
    <rdf:RDF>
      <cc:Work
         rdf:about="">
        <dc:format>image/svg+xml</dc:format>
        <dc:type
           rdf:resource="http://purl.org/dc/dcmitype/StillImage" />
        <dc:title></dc:title>
      </cc:Work>
    </rdf:RDF>
  </metadata>
  <sodipodi:namedview
     pagecolor="#ffffff"
     bordercolor="#666666"
     borderopacity="1"
     objecttolerance="10"
     gridtolerance="10"
     guidetolerance="10"
     inkscape:pageopacity="0"
     inkscape:pageshadow="2"
     inkscape:window-width="1600"
     inkscape:window-height="822"
     id="namedview6"
     showgrid="false"
     inkscape:zoom="20.02"
     inkscape:cx="11"
     inkscape:cy="11"
     inkscape:window-x="0"
     inkscape:window-y="0"
     inkscape:window-maximized="1"
     inkscape:current-layer="svg2" />
  <defs
     id="defs10">
    <style
       type="text/css"
       id="current-color-scheme">
   .ColorScheme-Text { color:#4d4d4d; } .ColorScheme-Highlight { color:#3daee9; }
  </style>
  </defs>
  <path
     style="opacity:1;fill:#4d4d4d;fill-opacity:1"
     d="M 10.193359,2 C 9.0951599,3.38422 8.7660095,4.0661956 9.1621094,4.9472656 9.5212094,5.7459356 10.449022,6.15297 9.9824219,8 10.748822,7.10008 11.357659,5.9571062 10.755859,5.0351562 10.143659,4.0974563 9.8083602,3.528 10.193359,2 Z m 3,0 c -1.0982,1.38422 -1.42735,2.0661956 -1.03125,2.9472656 C 12.521209,5.7459356 13.449022,6.15297 12.982422,8 13.748822,7.10008 14.357659,5.9571064 13.755859,5.0351562 13.143659,4.0974563 12.808359,3.528 13.193359,2 Z m 3,0 c -1.0982,1.38422 -1.42735,2.0661956 -1.03125,2.9472656 C 15.521209,5.7459356 16.449022,6.15297 15.982422,8 16.748822,7.10008 17.357659,5.9571064 16.755859,5.0351562 16.143659,4.0974563 15.808359,3.528 16.193359,2 Z M 7,9 c -2.209139,0 -4,1.790861 -4,4 0,2.209139 1.790861,4 4,4 0.2424594,-8.38e-4 0.4843405,-0.02372 0.7226562,-0.06836 C 8.4620206,18.481093 9.9580363,19 13,19 c 6,0 6,-2 6,-10 z m 0,2 h 0.00781 c 0.011613,1.596219 0.052166,2.938455 0.1953125,3.986328 C 7.1356985,14.994331 7.0678957,14.998894 7,15 5.8954305,15 5,14.104569 5,13 5,11.895431 5.8954305,11 7,11 Z"
     id="rect4137"
     inkscape:connector-curvature="0"
     sodipodi:nodetypes="cccccccccccccccssccscssccsss" />
</svg>
