<?xml version="1.0" encoding="UTF-8" standalone="no"?>
<svg
   xmlns:dc="http://purl.org/dc/elements/1.1/"
   xmlns:cc="http://creativecommons.org/ns#"
   xmlns:rdf="http://www.w3.org/1999/02/22-rdf-syntax-ns#"
   xmlns:svg="http://www.w3.org/2000/svg"
   xmlns="http://www.w3.org/2000/svg"
   xmlns:sodipodi="http://sodipodi.sourceforge.net/DTD/sodipodi-0.dtd"
   xmlns:inkscape="http://www.inkscape.org/namespaces/inkscape"
   width="22"
   version="1.1"
   height="22"
   id="svg9"
   sodipodi:docname="caps-lock-off.svg"
   inkscape:version="0.92.1 r15371">
  <metadata
     id="metadata13">
    <rdf:RDF>
      <cc:Work
         rdf:about="">
        <dc:format>image/svg+xml</dc:format>
        <dc:type
           rdf:resource="http://purl.org/dc/dcmitype/StillImage" />
        <dc:title></dc:title>
      </cc:Work>
    </rdf:RDF>
  </metadata>
  <sodipodi:namedview
     pagecolor="#ffffff"
     bordercolor="#666666"
     borderopacity="1"
     objecttolerance="10"
     gridtolerance="10"
     guidetolerance="10"
     inkscape:pageopacity="0"
     inkscape:pageshadow="2"
     inkscape:window-width="1600"
     inkscape:window-height="822"
     id="namedview11"
     showgrid="false"
     inkscape:zoom="10.727273"
     inkscape:cx="-7.2711864"
     inkscape:cy="11"
     inkscape:window-x="0"
     inkscape:window-y="0"
     inkscape:window-maximized="1"
     inkscape:current-layer="svg9" />
  <defs
     id="defs3">
    <style
       type="text/css"
       id="current-color-scheme">
   .ColorScheme-Text { color:#4d4d4d; } .ColorScheme-Highlight { color:#3daee9; }
  </style>
  </defs>
  <path
     style="fill:#4d4d4d;fill-rule:evenodd;fill-opacity:1;opacity:0.5"
     d="M 6 3 C 4.9806772 2.9998291 4.1242916 3.7662094 4.0117188 4.7792969 L 3.0117188 13.779297 C 2.8801089 14.964248 3.8077628 16.000193 5 16 L 17 16 C 18.192117 16.000014 19.119878 14.964129 18.988281 13.779297 L 17.988281 4.7792969 C 17.875721 3.7663233 17.019208 2.999982 16 3 L 6 3 z M 6 4 L 16 4 C 16.51793 3.9999909 16.936941 4.3758633 16.994141 4.890625 L 17.994141 13.888672 C 18.06177 14.497575 17.612648 15.000007 17 15 L 5 15 C 4.3872851 15.000099 3.9382224 14.497642 4.0058594 13.888672 L 5.0058594 4.890625 C 5.0630658 4.3758017 5.4820081 3.9999132 6 4 z M 9.8984375 5 L 7 14 L 8.9101562 14 L 9.5273438 12 L 12.603516 12 L 13.212891 14 L 15.123047 14 L 12.212891 5 L 9.8984375 5 z M 11.080078 6.296875 L 12.179688 10.289062 L 10 10.289062 L 11.080078 6.296875 z M 3 16.203125 L 3 16.75 C 3 17.962 4.0381 19 5.25 19 L 16.75 19 C 17.962 19 19 17.962 19 16.75 L 19 16.203125 C 18.468 16.688125 17.775 17 17 17 L 5 17 C 4.2254 17 3.5316 16.688125 3 16.203125 z "
     id="path4492" />
</svg>
