<?xml version="1.0" encoding="UTF-8" standalone="no"?>
<svg
   xmlns:dc="http://purl.org/dc/elements/1.1/"
   xmlns:cc="http://creativecommons.org/ns#"
   xmlns:rdf="http://www.w3.org/1999/02/22-rdf-syntax-ns#"
   xmlns:svg="http://www.w3.org/2000/svg"
   xmlns="http://www.w3.org/2000/svg"
   xmlns:sodipodi="http://sodipodi.sourceforge.net/DTD/sodipodi-0.dtd"
   xmlns:inkscape="http://www.inkscape.org/namespaces/inkscape"
   height="22"
   width="22"
   version="1.1"
   id="svg9"
   sodipodi:docname="deluge-panel.svg"
   inkscape:version="0.92.1 r15371">
  <metadata
     id="metadata13">
    <rdf:RDF>
      <cc:Work
         rdf:about="">
        <dc:format>image/svg+xml</dc:format>
        <dc:type
           rdf:resource="http://purl.org/dc/dcmitype/StillImage" />
      </cc:Work>
    </rdf:RDF>
  </metadata>
  <sodipodi:namedview
     pagecolor="#ffffff"
     bordercolor="#666666"
     borderopacity="1"
     objecttolerance="10"
     gridtolerance="10"
     guidetolerance="10"
     inkscape:pageopacity="0"
     inkscape:pageshadow="2"
     inkscape:window-width="1600"
     inkscape:window-height="822"
     id="namedview11"
     showgrid="false"
     inkscape:zoom="10.727273"
     inkscape:cx="-7.2711864"
     inkscape:cy="11"
     inkscape:window-x="0"
     inkscape:window-y="0"
     inkscape:window-maximized="1"
     inkscape:current-layer="svg9" />
  <defs
     id="defs3">
    <style
       type="text/css"
       id="current-color-scheme">
   .ColorScheme-Text { color:#4d4d4d; } .ColorScheme-Highlight { color:#3daee9; }
  </style>
  </defs>
  <g
     id="g7">
    <path
       style="fill:#4d4d4d;fill-opacity:1"
       d="M 11 3 C 11 3 2.9250313 12.553769 5.5097656 16.628906 C 7.5097463 19.782275 14.517329 19.798536 16.494141 16.628906 C 19.065413 12.506297 11 3 11 3 z M 11.001953 4.7304688 C 11.577942 5.4413083 12.553836 6.5658674 13.847656 8.7734375 C 14.668066 10.173254 15.397129 11.689338 15.753906 13.019531 C 16.110683 14.349725 16.071797 15.41456 15.644531 16.099609 C 14.937297 17.233602 13.026321 18.001821 11.011719 18 C 8.9971162 17.998179 7.0710053 17.225016 6.3535156 16.09375 C 5.9281321 15.423083 5.8883914 14.366804 6.2441406 13.039062 C 6.5998899 11.711322 7.3275219 10.194005 8.1484375 8.7910156 C 9.4443297 6.5762659 10.426422 5.4430809 11.001953 4.7304688 z "
       id="path5" />
  </g>
</svg>
