<?xml version="1.0" encoding="UTF-8" standalone="no"?>
<svg
   xmlns:dc="http://purl.org/dc/elements/1.1/"
   xmlns:cc="http://creativecommons.org/ns#"
   xmlns:rdf="http://www.w3.org/1999/02/22-rdf-syntax-ns#"
   xmlns:svg="http://www.w3.org/2000/svg"
   xmlns="http://www.w3.org/2000/svg"
   xmlns:sodipodi="http://sodipodi.sourceforge.net/DTD/sodipodi-0.dtd"
   xmlns:inkscape="http://www.inkscape.org/namespaces/inkscape"
   height="22"
   width="22"
   version="1"
   id="svg2"
   sodipodi:docname="firewall-applet.svg"
   inkscape:version="0.92.1 r15371">
  <metadata
     id="metadata9">
    <rdf:RDF>
      <cc:Work
         rdf:about="">
        <dc:format>image/svg+xml</dc:format>
        <dc:type
           rdf:resource="http://purl.org/dc/dcmitype/StillImage" />
      </cc:Work>
    </rdf:RDF>
  </metadata>
  <sodipodi:namedview
     pagecolor="#ffffff"
     bordercolor="#666666"
     borderopacity="1"
     objecttolerance="10"
     gridtolerance="10"
     guidetolerance="10"
     inkscape:pageopacity="0"
     inkscape:pageshadow="2"
     inkscape:window-width="1600"
     inkscape:window-height="822"
     id="namedview7"
     showgrid="false"
     inkscape:zoom="10.727273"
     inkscape:cx="-7.2711864"
     inkscape:cy="11"
     inkscape:window-x="0"
     inkscape:window-y="0"
     inkscape:window-maximized="1"
     inkscape:current-layer="svg2" />
  <defs
     id="defs10">
    <style
       type="text/css"
       id="current-color-scheme">
   .ColorScheme-Text { color:#4d4d4d; } .ColorScheme-Highlight { color:#3daee9; }
  </style>
  </defs>
  <g
     transform="matrix(.046206 0 0 .045375 2.8524 2.9989)"
     id="g4">
    <path
       style="color:#4d4d4d;fill:currentColor;stroke-width:1.00002766"
       d="M 10.923828 3.0117188 L 4.1542969 4.9980469 C 4.0618978 5.030049 4 5.4741062 4 5.5703125 C 4 7.9424667 4.6393171 10.684493 5.7539062 13.09375 C 6.6579974 15.047877 8.2839567 17.653524 10.894531 18.974609 C 10.927831 18.99061 10.9637 19 11 19 C 11.0363 19 11.072169 18.99061 11.105469 18.974609 C 13.715943 17.653524 15.342103 15.047877 16.246094 13.09375 C 17.361083 10.684293 18 7.9421667 18 5.5703125 C 18 5.4741062 17.937702 5.030049 17.845703 4.9980469 L 11.076172 3.0117188 C 11.026454 2.9944756 10.973538 2.9944756 10.923828 3.0117188 z M 10.998047 4.03125 L 16.972656 5.7851562 C 16.936872 7.9358159 16.360349 10.464327 15.337891 12.673828 C 14.534748 14.409952 13.066102 16.566549 11 17.789062 C 8.9338349 16.566552 7.4653684 14.410014 6.6621094 12.673828 C 5.6399708 10.46441 5.0631438 7.9360296 5.0273438 5.7851562 L 10.998047 4.03125 z "
       transform="matrix(21.642211,0,0,22.038567,-61.732243,-66.09146)"
       id="path6" />
  </g>
  <g
     id="g4488"
     transform="matrix(.046206 0 0 .045375 2.8524 2.9989)"
     style="fill:none;stroke:#000000;stroke-opacity:1;stroke-width:43.67898017;stroke-miterlimit:4;stroke-dasharray:none" />
</svg>
