<?xml version="1.0" encoding="UTF-8" standalone="no"?>
<svg
   xmlns:dc="http://purl.org/dc/elements/1.1/"
   xmlns:cc="http://creativecommons.org/ns#"
   xmlns:rdf="http://www.w3.org/1999/02/22-rdf-syntax-ns#"
   xmlns:svg="http://www.w3.org/2000/svg"
   xmlns="http://www.w3.org/2000/svg"
   xmlns:sodipodi="http://sodipodi.sourceforge.net/DTD/sodipodi-0.dtd"
   xmlns:inkscape="http://www.inkscape.org/namespaces/inkscape"
   width="22"
   version="1.1"
   height="22"
   id="svg2"
   sodipodi:docname="hangouts-working.svg"
   inkscape:version="0.92.1 r15371">
  <metadata
     id="metadata9">
    <rdf:RDF>
      <cc:Work
         rdf:about="">
        <dc:format>image/svg+xml</dc:format>
        <dc:type
           rdf:resource="http://purl.org/dc/dcmitype/StillImage" />
        <dc:title></dc:title>
      </cc:Work>
    </rdf:RDF>
  </metadata>
  <sodipodi:namedview
     pagecolor="#ffffff"
     bordercolor="#666666"
     borderopacity="1"
     objecttolerance="10"
     gridtolerance="10"
     guidetolerance="10"
     inkscape:pageopacity="0"
     inkscape:pageshadow="2"
     inkscape:window-width="1600"
     inkscape:window-height="822"
     id="namedview7"
     showgrid="false"
     inkscape:zoom="17.43"
     inkscape:cx="13.954114"
     inkscape:cy="11"
     inkscape:window-x="0"
     inkscape:window-y="0"
     inkscape:window-maximized="1"
     inkscape:current-layer="svg2" />
  <defs
     id="defs10">
    <style
       type="text/css"
       id="current-color-scheme">
   .ColorScheme-Text { color:#4d4d4d; } .ColorScheme-Highlight { color:#3daee9; }
  </style>
  </defs>
  <path
     style="fill:#4d4d4d;fill-opacity:1"
     d="M 11 3 C 7.134 3 4 6.1044937 4 9.9335938 C 4 13.762794 7.134 16.867188 11 16.867188 L 11 19 C 12.7361 17.7749 17.272297 16.029391 17.966797 10.650391 C 17.996897 10.417391 18 10.180844 18 9.9335938 C 18 9.7126835 17.993497 9.4983631 17.966797 9.2832031 C 17.638847 5.7559031 14.6467 3 11 3 z M 11 4 C 14.14287 4 16.690203 6.3600231 16.970703 9.3769531 L 16.972656 9.390625 L 16.974609 9.40625 C 16.993821 9.5622198 17 9.7338135 17 9.9335938 C 17 10.171144 16.994999 10.363674 16.974609 10.521484 C 16.477337 14.372894 14.04971 15.888983 12 17.126953 L 12 15.867188 L 11 15.867188 C 7.66928 15.867188 5 13.217164 5 9.9335938 C 5 6.6501435 7.6693 4 11 4 z M 7 9 A 1 1 0 0 0 6 10 A 1 1 0 0 0 7 11 A 1 1 0 0 0 8 10 A 1 1 0 0 0 7 9 z M 11 9 A 1 1 0 0 0 10 10 A 1 1 0 0 0 11 11 A 1 1 0 0 0 12 10 A 1 1 0 0 0 11 9 z M 15 9 A 1 1 0 0 0 14 10 A 1 1 0 0 0 15 11 A 1 1 0 0 0 16 10 A 1 1 0 0 0 15 9 z "
     id="path4490" />
  <g
     id="g4498"
     transform="translate(-521 -909.27)"
     style="fill:none;stroke:#aaaaaa;stroke-opacity:1;stroke-width:2;stroke-miterlimit:4;stroke-dasharray:none" />
</svg>
