<?xml version="1.0" encoding="UTF-8" standalone="no"?>
<svg
   xmlns:dc="http://purl.org/dc/elements/1.1/"
   xmlns:cc="http://creativecommons.org/ns#"
   xmlns:rdf="http://www.w3.org/1999/02/22-rdf-syntax-ns#"
   xmlns:svg="http://www.w3.org/2000/svg"
   xmlns="http://www.w3.org/2000/svg"
   xmlns:sodipodi="http://sodipodi.sourceforge.net/DTD/sodipodi-0.dtd"
   xmlns:inkscape="http://www.inkscape.org/namespaces/inkscape"
   width="22"
   version="1.1"
   height="22"
   id="svg2"
   sodipodi:docname="hipchat4.svg"
   inkscape:version="0.92.1 r15371">
  <metadata
     id="metadata9">
    <rdf:RDF>
      <cc:Work
         rdf:about="">
        <dc:format>image/svg+xml</dc:format>
        <dc:type
           rdf:resource="http://purl.org/dc/dcmitype/StillImage" />
        <dc:title></dc:title>
      </cc:Work>
    </rdf:RDF>
  </metadata>
  <sodipodi:namedview
     pagecolor="#ffffff"
     bordercolor="#666666"
     borderopacity="1"
     objecttolerance="10"
     gridtolerance="10"
     guidetolerance="10"
     inkscape:pageopacity="0"
     inkscape:pageshadow="2"
     inkscape:window-width="1600"
     inkscape:window-height="822"
     id="namedview7"
     showgrid="false"
     inkscape:zoom="10.727273"
     inkscape:cx="11"
     inkscape:cy="11"
     inkscape:window-x="0"
     inkscape:window-y="0"
     inkscape:window-maximized="1"
     inkscape:current-layer="svg2" />
  <defs
     id="defs10">
    <style
       type="text/css"
       id="current-color-scheme">
   .ColorScheme-Text { color:#4d4d4d; } .ColorScheme-Highlight { color:#3daee9; }
  </style>
  </defs>
  <path
     style="fill:#4d4d4d;fill-opacity:1"
     d="M 11 2.9433594 C 6.6322 2.9433594 3 6.2718598 3 10.443359 C 3 14.615359 6.6322 17.943359 11 17.943359 A 1.0001 1.0001 0 0 0 11.001953 17.943359 C 11.613953 17.942359 12.214547 17.825359 12.810547 17.693359 C 14.038547 18.502359 15.474734 19.231781 17.177734 18.925781 A 1.0001 1.0001 0 0 0 17.726562 17.255859 C 17.143563 16.639859 16.836359 16.255547 16.818359 15.435547 C 18.149359 14.067547 18.998 12.326359 19 10.443359 C 19 6.2718598 15.368 2.9433594 11 2.9433594 z M 11 3.9433594 C 14.859337 3.9433594 17.998844 6.8512663 18 10.441406 C 17.9983 12.024478 17.284892 13.522058 16.101562 14.738281 L 15.808594 15.039062 L 15.818359 15.457031 C 15.841679 16.519334 16.394009 17.302778 16.998047 17.941406 C 15.665579 18.179258 14.519841 17.620644 13.361328 16.857422 L 13.007812 16.625 L 12.595703 16.716797 C 12.016472 16.84508 11.485619 16.942566 11 16.943359 C 7.1401598 16.943359 4 14.03495 4 10.443359 C 4 6.8523388 7.140175 3.9433594 11 3.9433594 z M 14.015625 11.785156 A 0.75008 0.75008 0 0 0 13.548828 11.943359 C 12.643828 12.625359 11.809047 12.927688 10.998047 12.929688 C 10.187047 12.930687 9.3581781 12.633312 8.4550781 11.945312 A 0.75068303 0.75068303 0 1 0 7.5449219 13.138672 C 8.6418219 13.973672 9.8125531 14.431688 11.001953 14.429688 C 12.190953 14.426687 13.356172 13.965625 14.451172 13.140625 A 0.75008 0.75008 0 0 0 14.015625 11.785156 z "
     id="path4490" />
</svg>
