<?xml version="1.0" encoding="UTF-8" standalone="no"?>
<svg
   xmlns:dc="http://purl.org/dc/elements/1.1/"
   xmlns:cc="http://creativecommons.org/ns#"
   xmlns:rdf="http://www.w3.org/1999/02/22-rdf-syntax-ns#"
   xmlns:svg="http://www.w3.org/2000/svg"
   xmlns="http://www.w3.org/2000/svg"
   xmlns:sodipodi="http://sodipodi.sourceforge.net/DTD/sodipodi-0.dtd"
   xmlns:inkscape="http://www.inkscape.org/namespaces/inkscape"
   width="22"
   height="22"
   id="svg2"
   version="1.1"
   sodipodi:docname="indicator-workspaces-2.svg"
   inkscape:version="0.92.1 r15371">
  <metadata
     id="metadata12">
    <rdf:RDF>
      <cc:Work
         rdf:about="">
        <dc:format>image/svg+xml</dc:format>
        <dc:type
           rdf:resource="http://purl.org/dc/dcmitype/StillImage" />
        <dc:title></dc:title>
      </cc:Work>
    </rdf:RDF>
  </metadata>
  <sodipodi:namedview
     pagecolor="#ffffff"
     bordercolor="#666666"
     borderopacity="1"
     objecttolerance="10"
     gridtolerance="10"
     guidetolerance="10"
     inkscape:pageopacity="0"
     inkscape:pageshadow="2"
     inkscape:window-width="1600"
     inkscape:window-height="822"
     id="namedview10"
     showgrid="false"
     inkscape:zoom="28.32"
     inkscape:cx="11"
     inkscape:cy="11"
     inkscape:window-x="0"
     inkscape:window-y="0"
     inkscape:window-maximized="1"
     inkscape:current-layer="svg2" />
  <defs
     id="defs16">
    <style
       type="text/css"
       id="current-color-scheme">
   .ColorScheme-Text { color:#4d4d4d; } .ColorScheme-Highlight { color:#3daee9; }
  </style>
  </defs>
  <g
     transform="translate(0 -1030.9)"
     id="g4">
    <g
       transform="translate(-.19440 -.0004)"
       id="g10" />
  </g>
  <path
     style="color:#4d4d4d;opacity:1;fill:currentColor;fill-opacity:1;stroke-linecap:round"
     d="M 3 4 L 3 15 L 4 15 L 10 15 L 10 17 L 7 17 L 7 18 L 15 18 L 15 17 L 12 17 L 12 15 L 18 15 L 19 15 L 19 4 L 18 4 L 4 4 L 3 4 z M 4 5 L 18 5 L 18 14 L 4 14 L 4 5 z M 9 6 L 9 7 L 12 7 L 12 9 L 9 9 L 9 10 L 9 12 L 9 13 L 13 13 L 13 12 L 10 12 L 10 10 L 13 10 L 13 9 L 13 7 L 13 6 L 12 6 L 9 6 z "
     id="rect4211" />
</svg>
