<?xml version="1.0" encoding="UTF-8" standalone="no"?>
<svg
   xmlns:dc="http://purl.org/dc/elements/1.1/"
   xmlns:cc="http://creativecommons.org/ns#"
   xmlns:rdf="http://www.w3.org/1999/02/22-rdf-syntax-ns#"
   xmlns:svg="http://www.w3.org/2000/svg"
   xmlns="http://www.w3.org/2000/svg"
   xmlns:sodipodi="http://sodipodi.sourceforge.net/DTD/sodipodi-0.dtd"
   xmlns:inkscape="http://www.inkscape.org/namespaces/inkscape"
   width="22"
   version="1.1"
   height="22"
   id="svg7"
   sodipodi:docname="indicator-virtual-box.svg"
   inkscape:version="0.92.1 r15371">
  <metadata
     id="metadata11">
    <rdf:RDF>
      <cc:Work
         rdf:about="">
        <dc:format>image/svg+xml</dc:format>
        <dc:type
           rdf:resource="http://purl.org/dc/dcmitype/StillImage" />
      </cc:Work>
    </rdf:RDF>
  </metadata>
  <sodipodi:namedview
     pagecolor="#ffffff"
     bordercolor="#666666"
     borderopacity="1"
     objecttolerance="10"
     gridtolerance="10"
     guidetolerance="10"
     inkscape:pageopacity="0"
     inkscape:pageshadow="2"
     inkscape:window-width="1600"
     inkscape:window-height="822"
     id="namedview9"
     showgrid="false"
     inkscape:zoom="28.32"
     inkscape:cx="11"
     inkscape:cy="8.1751412"
     inkscape:window-x="0"
     inkscape:window-y="0"
     inkscape:window-maximized="1"
     inkscape:current-layer="svg7" />
  <defs
     id="defs3">
    <style
       type="text/css"
       id="current-color-scheme">
   .ColorScheme-Text { color:#4d4d4d; } .ColorScheme-Highlight { color:#3daee9; }
  </style>
    <style
       id="current-color-scheme-3"
       type="text/css">
   .ColorScheme-Text { color:#d3dae3; } .ColorScheme-Highlight { color:#5294e2; }
  </style>
  </defs>
  <g
     id="g4"
     transform="translate(-473,-957.27)"
     style="fill:#4d4d4d;fill-opacity:1">
    <path
       class="ColorScheme-Text"
       id="path6"
       d="m 476,960.27 v 1.00005 14.99995 h 2 12 2 v -16 l -2,2e-4 c -4,-9e-5 -14,-2e-4 -14,-2e-4 z m 2,1 h 12 1 v 2 6 1 h -0.625 l -1.9062,-6.625 -0.4375,-1.5625 -0.5,1.5312 -1.5312,4.5938 -1.5312,-4.5938 -0.46875,-1.4375 -0.46875,1.4375 -2.5,7.5 -1.5625,-5.4688 -0.0937,-0.375 h -0.375 -2 v -2 -1.99995 c 0,0 0,-5e-5 1,-5e-5 z m 6,4.0625 1.5312,4.5938 0.46875,1.4375 0.46875,-1.4375 1.5,-4.5 1.5625,5.4688 0.0937,0.375 h 0.375 1 v 2 1 c 0,1 10e-5,1 10e-5,1 l -14,-0.0353 c 0,0 -10e-5,0.0353 -10e-5,-0.96469 v -1 -6 -1 h 1.625 l 1.9062,6.625 0.4375,1.5625 0.5,-1.5312 2.5313,-7.5938 z"
       style="color:#d3dae3;fill:#4d4d4d;fill-opacity:1"
       inkscape:connector-curvature="0"
       sodipodi:nodetypes="csccscccccscccccccccccccccccccccccccccccccsccsccccccccc" />
  </g>
</svg>
