<?xml version="1.0" encoding="UTF-8" standalone="no"?>
<svg
   xmlns:dc="http://purl.org/dc/elements/1.1/"
   xmlns:cc="http://creativecommons.org/ns#"
   xmlns:rdf="http://www.w3.org/1999/02/22-rdf-syntax-ns#"
   xmlns:svg="http://www.w3.org/2000/svg"
   xmlns="http://www.w3.org/2000/svg"
   xmlns:sodipodi="http://sodipodi.sourceforge.net/DTD/sodipodi-0.dtd"
   xmlns:inkscape="http://www.inkscape.org/namespaces/inkscape"
   width="22"
   height="22"
   version="1.1"
   id="svg2"
   sodipodi:docname="indicator-privacy-panel.svg"
   inkscape:version="0.92.1 r15371">
  <metadata
     id="metadata8">
    <rdf:RDF>
      <cc:Work
         rdf:about="">
        <dc:format>image/svg+xml</dc:format>
        <dc:type
           rdf:resource="http://purl.org/dc/dcmitype/StillImage" />
      </cc:Work>
    </rdf:RDF>
  </metadata>
  <sodipodi:namedview
     pagecolor="#ffffff"
     bordercolor="#666666"
     borderopacity="1"
     objecttolerance="10"
     gridtolerance="10"
     guidetolerance="10"
     inkscape:pageopacity="0"
     inkscape:pageshadow="2"
     inkscape:window-width="1600"
     inkscape:window-height="822"
     id="namedview6"
     showgrid="false"
     inkscape:zoom="10.727273"
     inkscape:cx="-7.2711864"
     inkscape:cy="11"
     inkscape:window-x="0"
     inkscape:window-y="0"
     inkscape:window-maximized="1"
     inkscape:current-layer="svg2" />
  <defs
     id="defs8">
    <style
       type="text/css"
       id="current-color-scheme">
   .ColorScheme-Text { color:#4d4d4d; } .ColorScheme-Highlight { color:#3daee9; }
  </style>
  </defs>
  <path
     style="fill:#4d4d4d;fill-opacity:1"
     d="M 11.009766 5 C 5.3342652 5 2 10.669922 2 10.669922 C 2 10.669922 5.6243652 17 11.009766 17 C 16.811766 17 20 10.669922 20 10.669922 C 20 10.669922 16.779766 5 11.009766 5 z M 11.009766 6 C 15.667947 6 18.265749 9.9382982 18.748047 10.703125 C 18.291301 11.514502 15.660304 16 11.009766 16 C 6.8122505 16 3.8292673 11.537386 3.2792969 10.685547 C 3.8090779 9.8793036 6.4766619 6 11.009766 6 z M 11 8 C 9.3432 8 8 9.3432 8 11 C 8 12.657 9.3432 14 11 14 C 12.657 14 14 12.657 14 11 C 14 9.3432 12.657 8 11 8 z M 11 9 C 12.104 9 13 9.895 13 11 C 13 12.105 12.105 13 11 13 C 9.8961 13 9 12.105 9 11 C 9 9.8961 9.895 9 11 9 z "
     id="path4489" />
</svg>
