<?xml version="1.0" encoding="UTF-8" standalone="no"?>
<svg
   xmlns:dc="http://purl.org/dc/elements/1.1/"
   xmlns:cc="http://creativecommons.org/ns#"
   xmlns:rdf="http://www.w3.org/1999/02/22-rdf-syntax-ns#"
   xmlns:svg="http://www.w3.org/2000/svg"
   xmlns="http://www.w3.org/2000/svg"
   xmlns:sodipodi="http://sodipodi.sourceforge.net/DTD/sodipodi-0.dtd"
   xmlns:inkscape="http://www.inkscape.org/namespaces/inkscape"
   width="22"
   version="1.1"
   height="22"
   id="svg2"
   sodipodi:docname="indicator-sensors-case.svg"
   inkscape:version="0.92.1 r15371">
  <metadata
     id="metadata10">
    <rdf:RDF>
      <cc:Work
         rdf:about="">
        <dc:format>image/svg+xml</dc:format>
        <dc:type
           rdf:resource="http://purl.org/dc/dcmitype/StillImage" />
      </cc:Work>
    </rdf:RDF>
  </metadata>
  <sodipodi:namedview
     pagecolor="#ffffff"
     bordercolor="#666666"
     borderopacity="1"
     objecttolerance="10"
     gridtolerance="10"
     guidetolerance="10"
     inkscape:pageopacity="0"
     inkscape:pageshadow="2"
     inkscape:window-width="1600"
     inkscape:window-height="822"
     id="namedview8"
     showgrid="false"
     inkscape:zoom="21.46"
     inkscape:cx="10.5232"
     inkscape:cy="11"
     inkscape:window-x="0"
     inkscape:window-y="0"
     inkscape:window-maximized="1"
     inkscape:current-layer="svg2" />
  <defs
     id="defs12">
    <style
       type="text/css"
       id="current-color-scheme">
   .ColorScheme-Text { color:#4d4d4d; } .ColorScheme-Highlight { color:#3daee9; }
  </style>
  </defs>
  <path
     style="fill:#4d4d4d;fill-opacity:1"
     d="M 7 3 L 5 5 L 17 5 L 15 3 L 7 3 z M 5 6 L 5 18 C 5 18.554 5.446 19 6 19 L 16 19 C 16.554 19 17 18.554 17 18 L 17 6 L 5 6 z M 6.625 7 L 15.375 7 C 15.720164 7.0000276 15.999965 7.2238691 16 7.5 L 16 9.5 L 16 11.5 C 15.999965 11.776131 15.720164 11.999972 15.375 12 L 6.625 12 C 6.2798363 11.999972 6.0000345 11.776131 6 11.5 L 6 9.5 L 6 7.5 C 6.0000345 7.2238691 6.2798363 7.0000276 6.625 7 z M 7 8 L 7 9 L 15 9 L 15 8 L 7 8 z M 7 10 L 7 11 L 15 11 L 15 10 L 7 10 z M 6 14 L 7 14 L 7 15 L 8 15 L 8 14 L 9 14 L 9 15 L 10 15 L 10 14 L 11 14 L 11 15 L 12 15 L 12 14 L 13 14 L 13 15 L 14 15 L 14 14 L 15 14 L 15 15 L 16 15 L 16 16 L 15 16 L 15 17 L 14 17 L 14 16 L 13 16 L 13 17 L 12 17 L 12 16 L 11 16 L 11 17 L 10 17 L 10 16 L 9 16 L 9 17 L 8 17 L 8 16 L 7 16 L 7 17 L 6 17 L 6 16 L 7 16 L 7 15 L 6 15 L 6 14 z "
     id="path4501" />
</svg>
