<?xml version="1.0" encoding="UTF-8" standalone="no"?>
<svg
   xmlns:dc="http://purl.org/dc/elements/1.1/"
   xmlns:cc="http://creativecommons.org/ns#"
   xmlns:rdf="http://www.w3.org/1999/02/22-rdf-syntax-ns#"
   xmlns:svg="http://www.w3.org/2000/svg"
   xmlns="http://www.w3.org/2000/svg"
   xmlns:sodipodi="http://sodipodi.sourceforge.net/DTD/sodipodi-0.dtd"
   xmlns:inkscape="http://www.inkscape.org/namespaces/inkscape"
   height="22"
   width="22"
   version="1.1"
   id="svg2"
   sodipodi:docname="indicator-cpufreq-100.svg"
   inkscape:version="0.92.1 r15371">
  <metadata
     id="metadata8">
    <rdf:RDF>
      <cc:Work
         rdf:about="">
        <dc:format>image/svg+xml</dc:format>
        <dc:type
           rdf:resource="http://purl.org/dc/dcmitype/StillImage" />
      </cc:Work>
    </rdf:RDF>
  </metadata>
  <sodipodi:namedview
     pagecolor="#ffffff"
     bordercolor="#666666"
     borderopacity="1"
     objecttolerance="10"
     gridtolerance="10"
     guidetolerance="10"
     inkscape:pageopacity="0"
     inkscape:pageshadow="2"
     inkscape:window-width="1600"
     inkscape:window-height="822"
     id="namedview6"
     showgrid="false"
     inkscape:zoom="10.727273"
     inkscape:cx="11"
     inkscape:cy="11"
     inkscape:window-x="0"
     inkscape:window-y="0"
     inkscape:window-maximized="1"
     inkscape:current-layer="svg2" />
  <defs
     id="defs8">
    <style
       type="text/css"
       id="current-color-scheme">
   .ColorScheme-Text { color:#4d4d4d; } .ColorScheme-Highlight { color:#3daee9; }
  </style>
  </defs>
  <path
     style="fill:#da4453;fill-opacity:1"
     class="ColorScheme-Highlight"
     d="m6.3477 3a0.25823 0.25823 0 0 0 -0.2539 0.2617v1.5684c-0.6493 0.1087-1.155 0.6144-1.2637 1.2637h-1.5684a0.25823 0.25823 0 1 0 0 0.5175h1.541v2.5821h-1.541a0.25823 0.25823 0 1 0 0 0.5156h1.541v2.582h-1.541a0.25823 0.25823 0 1 0 0 0.516h1.541v2.582h-1.541a0.25823 0.25823 0 1 0 0 0.517h1.5684c0.1087 0.65 0.6144 1.155 1.2637 1.264v1.568a0.25823 0.25823 0 1 0 0.5175 0v-1.541h2.5821v1.541a0.25823 0.25823 0 1 0 0.5156 0v-1.541h2.582v1.541a0.25823 0.25823 0 1 0 0.516 0v-1.541h2.582v1.541a0.25823 0.25823 0 1 0 0.517 0v-1.568c0.65-0.109 1.155-0.614 1.264-1.264h1.568a0.25823 0.25823 0 0 0 0.262 -0.261 0.25823 0.25823 0 0 0 -0.262 -0.256h-1.541v-2.582h1.541a0.25823 0.25823 0 0 0 0.262 -0.262 0.25823 0.25823 0 0 0 -0.262 -0.254h-1.541v-2.582h1.541a0.25823 0.25823 0 0 0 0.262 -0.2617 0.25823 0.25823 0 0 0 -0.262 -0.2539h-1.541v-2.5821h1.541a0.25823 0.25823 0 0 0 0.262 -0.2636 0.25823 0.25823 0 0 0 -0.262 -0.2539h-1.568c-0.109-0.6493-0.614-1.155-1.264-1.2637v-1.5684a0.25823 0.25823 0 0 0 -0.263 -0.2617 0.25823 0.25823 0 0 0 -0.254 0.2617v1.541h-2.582v-1.541a0.25823 0.25823 0 0 0 -0.262 -0.2617 0.25823 0.25823 0 0 0 -0.254 0.2617v1.541h-2.582v-1.541a0.25823 0.25823 0 0 0 -0.2617 -0.2617 0.25823 0.25823 0 0 0 -0.2539 0.2617v1.541h-2.5821v-1.541a0.25823 0.25823 0 0 0 -0.2636 -0.2617zm0.1523 3h9c0.277 0 0.5 0.223 0.5 0.5s-0.223 0.5-0.5 0.5h-9c-0.277 0-0.5-0.223-0.5-0.5s0.223-0.5 0.5-0.5zm0 3h9c0.277 0 0.5 0.223 0.5 0.5s-0.223 0.5-0.5 0.5h-9c-0.277 0-0.5-0.223-0.5-0.5s0.223-0.5 0.5-0.5zm0 3h9c0.277 0 0.5 0.223 0.5 0.5s-0.223 0.5-0.5 0.5h-9c-0.277 0-0.5-0.223-0.5-0.5s0.223-0.5 0.5-0.5zm0 3h9c0.277 0 0.5 0.223 0.5 0.5s-0.223 0.5-0.5 0.5h-9c-0.277 0-0.5-0.223-0.5-0.5s0.223-0.5 0.5-0.5z"
     id="path4" />
</svg>
