<?xml version="1.0" encoding="UTF-8" standalone="no"?>
<svg
   xmlns:dc="http://purl.org/dc/elements/1.1/"
   xmlns:cc="http://creativecommons.org/ns#"
   xmlns:rdf="http://www.w3.org/1999/02/22-rdf-syntax-ns#"
   xmlns:svg="http://www.w3.org/2000/svg"
   xmlns="http://www.w3.org/2000/svg"
   xmlns:sodipodi="http://sodipodi.sourceforge.net/DTD/sodipodi-0.dtd"
   xmlns:inkscape="http://www.inkscape.org/namespaces/inkscape"
   height="22"
   width="22"
   version="1.1"
   id="svg7"
   sodipodi:docname="input-keyboard-virtual-off.svg"
   inkscape:version="0.92.1 r15371">
  <metadata
     id="metadata11">
    <rdf:RDF>
      <cc:Work
         rdf:about="">
        <dc:format>image/svg+xml</dc:format>
        <dc:type
           rdf:resource="http://purl.org/dc/dcmitype/StillImage" />
        <dc:title />
      </cc:Work>
    </rdf:RDF>
  </metadata>
  <sodipodi:namedview
     pagecolor="#ffffff"
     bordercolor="#666666"
     borderopacity="1"
     objecttolerance="10"
     gridtolerance="10"
     guidetolerance="10"
     inkscape:pageopacity="0"
     inkscape:pageshadow="2"
     inkscape:window-width="1600"
     inkscape:window-height="808"
     id="namedview9"
     showgrid="false"
     inkscape:zoom="10.727273"
     inkscape:cx="-8.063559"
     inkscape:cy="11"
     inkscape:window-x="0"
     inkscape:window-y="0"
     inkscape:window-maximized="1"
     inkscape:current-layer="svg7" />
  <defs
     id="defs3">
    <style
       type="text/css"
       id="current-color-scheme">
   .ColorScheme-Text { color:#4d4d4d; } .ColorScheme-Highlight { color:#3daee9; }
  </style>
  </defs>
  <path
     inkscape:connector-curvature="0"
     id="path4211"
     class="ColorScheme-Text"
     d="m 13,3.0000001 v 1 1 c 0,0.554 -0.446,1 -1,1 -1.108,0 -2,0.8919999 -2,2 H 1.9999999 V 19 H 20 V 8.0000001 h -9 c 0,-0.554 0.446,-1 1,-1 1.108,0 2,-0.892 2,-2 v -1 -1 z M 2.9999999,9 H 10 h 1 8 v 1 H 2.9999999 Z m 0,2 H 19 v 7 h -4 -8.0000001 -4 z m 1,1 v 1 h 2 v -1 z m 3,0 v 1 H 9.0000001 V 12 Z M 10,12 v 1 h 2 v -1 z m 3,0 v 1 h 2 v -1 z m 3,0 v 1 h 2 V 12 Z M 3.9999999,14 v 1 h 2 v -1 z m 3,0 v 1 H 9.0000001 V 14 Z M 10,14 v 1 h 2 v -1 z m 3,0 v 1 h 2 v -1 z m 3,0 v 1 h 2 V 14 Z M 3.9999999,16 v 1 h 2 v -1 z m 3,0 v 1 H 15 V 16 Z M 16,16 v 1 h 2 v -1 z"
     style="color:#4d4d4d;fill:#4d4d4d;fill-opacity:1;stroke:none;opacity:0.5" />
</svg>
