<?xml version="1.0" encoding="UTF-8" standalone="no"?>
<svg
   xmlns:dc="http://purl.org/dc/elements/1.1/"
   xmlns:cc="http://creativecommons.org/ns#"
   xmlns:rdf="http://www.w3.org/1999/02/22-rdf-syntax-ns#"
   xmlns:svg="http://www.w3.org/2000/svg"
   xmlns="http://www.w3.org/2000/svg"
   xmlns:sodipodi="http://sodipodi.sourceforge.net/DTD/sodipodi-0.dtd"
   xmlns:inkscape="http://www.inkscape.org/namespaces/inkscape"
   width="22"
   version="1.1"
   height="22"
   id="svg2"
   sodipodi:docname="num-lock-on.svg"
   inkscape:version="0.92.1 r15371">
  <metadata
     id="metadata10">
    <rdf:RDF>
      <cc:Work
         rdf:about="">
        <dc:format>image/svg+xml</dc:format>
        <dc:type
           rdf:resource="http://purl.org/dc/dcmitype/StillImage" />
      </cc:Work>
    </rdf:RDF>
  </metadata>
  <sodipodi:namedview
     pagecolor="#ffffff"
     bordercolor="#666666"
     borderopacity="1"
     objecttolerance="10"
     gridtolerance="10"
     guidetolerance="10"
     inkscape:pageopacity="0"
     inkscape:pageshadow="2"
     inkscape:window-width="1600"
     inkscape:window-height="822"
     id="namedview8"
     showgrid="false"
     inkscape:zoom="10.727273"
     inkscape:cx="11"
     inkscape:cy="11"
     inkscape:window-x="0"
     inkscape:window-y="0"
     inkscape:window-maximized="1"
     inkscape:current-layer="svg2" />
  <defs
     id="defs12">
    <style
       type="text/css"
       id="current-color-scheme">
   .ColorScheme-Text { color:#4d4d4d; } .ColorScheme-Highlight { color:#3daee9; }
  </style>
  </defs>
  <path
     style="fill:#4d4d4d;stroke-width:0.99997503;fill-opacity:1"
     d="M 6 3 A 2.0001 2.0002 0 0 0 4.0117188 4.7792969 L 3.0117188 13.779297 A 2.0001 2.0002 0 0 0 5 16 L 17 16 A 2.0001 2.0002 0 0 0 18.988281 13.779297 L 17.988281 4.7792969 A 2.0001 2.0002 0 0 0 16 3 L 6 3 z M 6 4 L 16 4 C 16.517854 3.9999907 16.936941 4.3758388 16.994141 4.890625 L 17.994141 13.888672 C 18.06177 14.497603 17.612559 15.000008 17 15 L 5 15 C 4.3873741 15.000099 3.9382227 14.49767 4.0058594 13.888672 L 5.0058594 4.890625 C 5.0630657 4.3757777 5.4820842 3.9999131 6 4 z M 12 5 L 8 6 L 8 8 L 10 7.5 L 10 12 L 8 12 L 8 14 L 14 14 L 14 12 L 12 12 L 12 7 L 12 5 z M 3 16.203125 L 3 16.75 C 3 17.962 4.0381606 19 5.25 19 L 16.75 19 C 17.96194 19 19 17.962 19 16.75 L 19 16.203125 C 18.468027 16.688125 17.774961 17 17 17 L 5 17 C 4.2254387 17 3.5315734 16.688125 3 16.203125 z "
     id="path4489" />
</svg>
