<?xml version="1.0" encoding="UTF-8" standalone="no"?>
<svg
   xmlns:dc="http://purl.org/dc/elements/1.1/"
   xmlns:cc="http://creativecommons.org/ns#"
   xmlns:rdf="http://www.w3.org/1999/02/22-rdf-syntax-ns#"
   xmlns:svg="http://www.w3.org/2000/svg"
   xmlns="http://www.w3.org/2000/svg"
   xmlns:sodipodi="http://sodipodi.sourceforge.net/DTD/sodipodi-0.dtd"
   xmlns:inkscape="http://www.inkscape.org/namespaces/inkscape"
   width="22"
   height="22"
   version="1.1"
   id="svg2"
   sodipodi:docname="nylas-tray-full-newitems.svg"
   inkscape:version="0.92.1 r15371">
  <metadata
     id="metadata9">
    <rdf:RDF>
      <cc:Work
         rdf:about="">
        <dc:format>image/svg+xml</dc:format>
        <dc:type
           rdf:resource="http://purl.org/dc/dcmitype/StillImage" />
      </cc:Work>
    </rdf:RDF>
  </metadata>
  <sodipodi:namedview
     pagecolor="#ffffff"
     bordercolor="#666666"
     borderopacity="1"
     objecttolerance="10"
     gridtolerance="10"
     guidetolerance="10"
     inkscape:pageopacity="0"
     inkscape:pageshadow="2"
     inkscape:window-width="1600"
     inkscape:window-height="822"
     id="namedview7"
     showgrid="false"
     inkscape:zoom="10.727273"
     inkscape:cx="-7.2711864"
     inkscape:cy="11"
     inkscape:window-x="0"
     inkscape:window-y="0"
     inkscape:window-maximized="1"
     inkscape:current-layer="svg2" />
  <defs
     id="defs10">
    <style
       type="text/css"
       id="current-color-scheme">
   .ColorScheme-Text { color:#4d4d4d; } .ColorScheme-Highlight { color:#3daee9; }
  </style>
  </defs>
  <path
     style="fill:#3daee9;fill-opacity:1"
     d="m12 2.5v3l7 4v-3l-7-4zm-8 0.7227c-0.552 0-1 0.448-1 1v1.2773l7 4v-2.998c-1.833-1.048-3.6739-2.1035-5.5039-3.1465-0.151-0.087-0.3221-0.1328-0.4961-0.1328zm-1 4.2773v3l7 4v-3l-7-4zm9 0v3l7 4v-3l-7-4zm-9 5v3l7 4v-3l-7-4z"
     fill-rule="evenodd"
     id="path4"
     class="ColorScheme-Text" />
  <path
     style="fill:#3daee9;fill-opacity:1"
     d="m12 12.5v2.998c1.833 1.048 3.6739 2.1035 5.5039 3.1465 0.151 0.087 0.32209 0.13281 0.49609 0.13281 0.552 0 1-0.448 1-1v-1.277l-7-4z"
     fill-rule="evenodd"
     id="path6"
     class="ColorScheme-Highlight" />
</svg>
