<?xml version="1.0" encoding="UTF-8" standalone="no"?>
<svg
   xmlns:dc="http://purl.org/dc/elements/1.1/"
   xmlns:cc="http://creativecommons.org/ns#"
   xmlns:rdf="http://www.w3.org/1999/02/22-rdf-syntax-ns#"
   xmlns:svg="http://www.w3.org/2000/svg"
   xmlns="http://www.w3.org/2000/svg"
   xmlns:sodipodi="http://sodipodi.sourceforge.net/DTD/sodipodi-0.dtd"
   xmlns:inkscape="http://www.inkscape.org/namespaces/inkscape"
   height="22"
   width="22"
   version="1.1"
   id="svg2"
   sodipodi:docname="onboard.svg"
   inkscape:version="0.92.1 r15371">
  <metadata
     id="metadata9">
    <rdf:RDF>
      <cc:Work
         rdf:about="">
        <dc:format>image/svg+xml</dc:format>
        <dc:type
           rdf:resource="http://purl.org/dc/dcmitype/StillImage" />
      </cc:Work>
    </rdf:RDF>
  </metadata>
  <sodipodi:namedview
     pagecolor="#ffffff"
     bordercolor="#666666"
     borderopacity="1"
     objecttolerance="10"
     gridtolerance="10"
     guidetolerance="10"
     inkscape:pageopacity="0"
     inkscape:pageshadow="2"
     inkscape:window-width="1600"
     inkscape:window-height="822"
     id="namedview7"
     showgrid="false"
     inkscape:zoom="10.727273"
     inkscape:cx="-7.2711864"
     inkscape:cy="11"
     inkscape:window-x="0"
     inkscape:window-y="0"
     inkscape:window-maximized="1"
     inkscape:current-layer="svg2" />
  <defs
     id="defs10">
    <style
       type="text/css"
       id="current-color-scheme">
   .ColorScheme-Text { color:#4d4d4d; } .ColorScheme-Highlight { color:#3daee9; }
  </style>
  </defs>
  <path
     style="fill:#4d4d4d;stroke-width:1.14285719;fill-opacity:1"
     d="M 5.2851562 3 C 4.0188705 3 3 4.0188706 3 5.2851562 L 3 16.714844 C 3 17.981129 4.0188706 19 5.2851562 19 L 16.714844 19 C 17.981129 19 19 17.981129 19 16.714844 L 19 5.2851562 C 19 4.0188705 17.981129 3 16.714844 3 L 5.2851562 3 z M 6 4.0019531 L 16 4.0019531 C 17.108 4.0019531 18 4.8939531 18 6.0019531 L 18 16.001953 C 18 17.109953 17.108 18.001953 16 18.001953 L 6 18.001953 C 4.892 18.001953 4 17.109953 4 16.001953 L 4 6.0019531 C 4 4.8939531 4.892 4.0019531 6 4.0019531 z M 8.4960938 5.96875 C 7.7183936 5.96875 7.1062094 6.1923719 6.6621094 6.6386719 C 6.2202094 7.0848719 6 7.7000281 6 8.4863281 C 6 9.2705281 6.2202094 9.8858314 6.6621094 10.332031 C 7.1062094 10.778031 7.7183937 11.001953 8.4960938 11.001953 C 9.2758937 11.001953 9.886325 10.778031 10.328125 10.332031 C 10.770125 9.8858314 10.990234 9.2705281 10.990234 8.4863281 C 10.990234 7.7000281 10.770125 7.0848719 10.328125 6.6386719 C 9.886325 6.1923719 9.2758936 5.96875 8.4960938 5.96875 z M 8.4960938 6.875 C 8.8794937 6.875 9.1766187 7.015275 9.3867188 7.296875 C 9.5968186 7.578475 9.7011719 7.9751281 9.7011719 8.4863281 C 9.7011719 8.9954281 9.5968188 9.3922281 9.3867188 9.6738281 C 9.1766187 9.9554281 8.8794936 10.095703 8.4960938 10.095703 C 8.1147937 10.095703 7.819475 9.9554281 7.609375 9.6738281 C 7.399175 9.3922281 7.2929688 8.9954281 7.2929688 8.4863281 C 7.2929687 7.9751281 7.399175 7.578475 7.609375 7.296875 C 7.819475 7.015275 8.1147937 6.875 8.4960938 6.875 z M 12.064453 10.150391 L 12.064453 15.001953 L 14.140625 15.001953 C 14.785625 15.001953 15.267984 14.888203 15.583984 14.658203 C 15.899984 14.429203 16.058594 14.079328 16.058594 13.611328 C 16.058594 13.306328 15.984891 13.047891 15.837891 12.837891 C 15.690891 12.627891 15.481891 12.48425 15.212891 12.40625 C 15.422891 12.32625 15.583359 12.204063 15.693359 12.039062 C 15.804359 11.872064 15.859375 11.669594 15.859375 11.433594 C 15.859375 10.984594 15.708297 10.659078 15.404297 10.455078 C 15.103297 10.251078 14.617359 10.150391 13.943359 10.150391 L 12.064453 10.150391 z M 13.316406 11.001953 L 14.007812 11.001953 C 14.204815 11.001953 14.353078 11.045766 14.455078 11.134766 C 14.557078 11.220766 14.609375 11.348625 14.609375 11.515625 C 14.609375 11.684625 14.557078 11.812435 14.455078 11.898438 C 14.353078 11.985436 14.204814 12.029297 14.007812 12.029297 L 13.316406 12.029297 L 13.316406 11.001953 z M 13.314453 12.880859 L 14.048828 12.880859 C 14.301828 12.880859 14.493141 12.933065 14.619141 13.039062 C 14.745141 13.143064 14.806641 13.299766 14.806641 13.509766 C 14.806641 13.723766 14.743234 13.886187 14.615234 13.992188 C 14.490234 14.098187 14.299828 14.150391 14.048828 14.150391 L 13.314453 14.150391 L 13.314453 12.880859 z "
     id="path4504" />
</svg>
