<?xml version="1.0" encoding="UTF-8" standalone="no"?>
<svg
   xmlns:dc="http://purl.org/dc/elements/1.1/"
   xmlns:cc="http://creativecommons.org/ns#"
   xmlns:rdf="http://www.w3.org/1999/02/22-rdf-syntax-ns#"
   xmlns:svg="http://www.w3.org/2000/svg"
   xmlns="http://www.w3.org/2000/svg"
   xmlns:sodipodi="http://sodipodi.sourceforge.net/DTD/sodipodi-0.dtd"
   xmlns:inkscape="http://www.inkscape.org/namespaces/inkscape"
   width="22"
   version="1.1"
   height="22"
   id="svg11"
   sodipodi:docname="qtox-event.svg"
   inkscape:version="0.92.1 r15371">
  <metadata
     id="metadata15">
    <rdf:RDF>
      <cc:Work
         rdf:about="">
        <dc:format>image/svg+xml</dc:format>
        <dc:type
           rdf:resource="http://purl.org/dc/dcmitype/StillImage" />
      </cc:Work>
    </rdf:RDF>
  </metadata>
  <sodipodi:namedview
     pagecolor="#ffffff"
     bordercolor="#666666"
     borderopacity="1"
     objecttolerance="10"
     gridtolerance="10"
     guidetolerance="10"
     inkscape:pageopacity="0"
     inkscape:pageshadow="2"
     inkscape:window-width="1600"
     inkscape:window-height="822"
     id="namedview13"
     showgrid="false"
     inkscape:zoom="10.727273"
     inkscape:cx="-7.2711864"
     inkscape:cy="11"
     inkscape:window-x="0"
     inkscape:window-y="0"
     inkscape:window-maximized="1"
     inkscape:current-layer="svg11" />
  <defs
     id="defs3">
    <style
       type="text/css"
       id="current-color-scheme">
   .ColorScheme-Text { color:#4d4d4d; } .ColorScheme-Highlight { color:#3daee9; }
  </style>
  </defs>
  <g
     id="g9">
    <path
       style="fill:#3daee9;stroke-width:0.70899999;stroke-linecap:round;stroke-linejoin:round;fill-opacity:1"
       d="M 11 3 C 8.7911 3 7 4.7911 7 7 L 7 9 L 5 9 C 4.4476649 8.9998784 3.9998784 9.4476649 4 10 L 4 18 C 3.9998784 18.552335 4.4476649 19.000122 5 19 L 17 19 C 17.552335 19.000122 18.000122 18.552335 18 18 L 18 10 C 18.000122 9.4476649 17.552335 8.9998784 17 9 L 15 9 L 15 7 C 15 4.7911 13.209 3 11 3 z M 11 5 C 12.1052 5 13 5.8955 13 7 C 13 7.4715 12.897672 7.8423219 12.763672 8.1074219 C 12.630672 8.3725219 12.338 8.7271 12 9 C 11.67 9.2671 11 9.5996094 11 9.5996094 C 11 9.5996094 11.302734 9.2349188 11.427734 8.9492188 C 11.286734 8.9805187 11.145 9 11 9 C 9.8956 9.001 9 8.1045 9 7 C 9 5.8955 9.8948 5 11 5 z M 11 10 C 13.209116 10.000055 14.999945 11.790884 15 14 C 14.999945 16.209116 13.209116 17.999945 11 18 C 8.7908839 17.999945 7.0000552 16.209116 7 14 C 7.0000552 11.790884 8.7908839 10.000055 11 10 z M 11 11 C 9.3431458 11 8 12.343146 8 14 C 8 15.656854 9.3431458 17 11 17 C 12.656854 17 14 15.656854 14 14 C 14 12.343146 12.656854 11 11 11 z "
       id="path5" />
  </g>
</svg>
