<?xml version="1.0" encoding="UTF-8" standalone="no"?>
<svg
   xmlns:dc="http://purl.org/dc/elements/1.1/"
   xmlns:cc="http://creativecommons.org/ns#"
   xmlns:rdf="http://www.w3.org/1999/02/22-rdf-syntax-ns#"
   xmlns:svg="http://www.w3.org/2000/svg"
   xmlns="http://www.w3.org/2000/svg"
   xmlns:sodipodi="http://sodipodi.sourceforge.net/DTD/sodipodi-0.dtd"
   xmlns:inkscape="http://www.inkscape.org/namespaces/inkscape"
   height="22"
   width="22"
   version="1.1"
   id="svg2"
   sodipodi:docname="radiotray_off.svg"
   inkscape:version="0.92.1 r15371">
  <metadata
     id="metadata9">
    <rdf:RDF>
      <cc:Work
         rdf:about="">
        <dc:format>image/svg+xml</dc:format>
        <dc:type
           rdf:resource="http://purl.org/dc/dcmitype/StillImage" />
        <dc:title></dc:title>
      </cc:Work>
    </rdf:RDF>
  </metadata>
  <sodipodi:namedview
     pagecolor="#ffffff"
     bordercolor="#666666"
     borderopacity="1"
     objecttolerance="10"
     gridtolerance="10"
     guidetolerance="10"
     inkscape:pageopacity="0"
     inkscape:pageshadow="2"
     inkscape:window-width="1600"
     inkscape:window-height="822"
     id="namedview7"
     showgrid="false"
     inkscape:zoom="10.727273"
     inkscape:cx="11"
     inkscape:cy="11"
     inkscape:window-x="0"
     inkscape:window-y="0"
     inkscape:window-maximized="1"
     inkscape:current-layer="svg2" />
  <defs
     id="defs10">
    <style
       type="text/css"
       id="current-color-scheme">
   .ColorScheme-Text { color:#4d4d4d; } .ColorScheme-Highlight { color:#3daee9; }
  </style>
  </defs>
  <path
     style="display:inline;opacity:0.5;fill:#4d4d4d;fill-opacity:1;stroke:none"
     d="m 10.70703,2.9999999 -0.7070303,0.707 4.2929703,4.293 H 1.9999997 V 19 H 20 V 7.9999999 h -4.29297 z m -7.7070303,6 H 15.29297 16.70703 19 V 18 H 2.9999997 Z m 4.5,1 a 3.5000002,3.5000002 0 0 0 -3.5,3.5000001 3.5000002,3.5000002 0 0 0 3.5,3.5 A 3.5000002,3.5000002 0 0 0 11,13.5 3.5000002,3.5000002 0 0 0 7.4999997,9.9999999 Z m 0,1.0000001 a 2.5000001,2.5000001 0 0 1 2.5,2.5 2.5000001,2.5000001 0 0 1 -2.5,2.5 2.5000001,2.5000001 0 0 1 -2.5,-2.5 2.5000001,2.5000001 0 0 1 2.5,-2.5 z M 13,11 v 1 h 5 v -1 z m 0,2 v 1 h 5 v -1 z m 0,2 v 1 h 5 v -1 z"
     id="rect4703"
     inkscape:connector-curvature="0" />
</svg>
