<?xml version="1.0" encoding="UTF-8" standalone="no"?>
<svg
   xmlns:dc="http://purl.org/dc/elements/1.1/"
   xmlns:cc="http://creativecommons.org/ns#"
   xmlns:rdf="http://www.w3.org/1999/02/22-rdf-syntax-ns#"
   xmlns:svg="http://www.w3.org/2000/svg"
   xmlns="http://www.w3.org/2000/svg"
   xmlns:sodipodi="http://sodipodi.sourceforge.net/DTD/sodipodi-0.dtd"
   xmlns:inkscape="http://www.inkscape.org/namespaces/inkscape"
   width="22"
   version="1.1"
   height="22"
   id="svg2"
   sodipodi:docname="redshift-status-on.svg"
   inkscape:version="0.92.1 r15371">
  <metadata
     id="metadata9">
    <rdf:RDF>
      <cc:Work
         rdf:about="">
        <dc:format>image/svg+xml</dc:format>
        <dc:type
           rdf:resource="http://purl.org/dc/dcmitype/StillImage" />
      </cc:Work>
    </rdf:RDF>
  </metadata>
  <sodipodi:namedview
     pagecolor="#ffffff"
     bordercolor="#666666"
     borderopacity="1"
     objecttolerance="10"
     gridtolerance="10"
     guidetolerance="10"
     inkscape:pageopacity="0"
     inkscape:pageshadow="2"
     inkscape:window-width="1600"
     inkscape:window-height="822"
     id="namedview7"
     showgrid="true"
     inkscape:zoom="20.02"
     inkscape:cx="19.609508"
     inkscape:cy="11"
     inkscape:window-x="0"
     inkscape:window-y="0"
     inkscape:window-maximized="1"
     inkscape:current-layer="svg2">
    <inkscape:grid
       type="xygrid"
       id="grid4492" />
  </sodipodi:namedview>
  <defs
     id="defs10">
    <style
       type="text/css"
       id="current-color-scheme">
   .ColorScheme-Text { color:#4d4d4d; } .ColorScheme-Highlight { color:#3daee9; }
  </style>
  </defs>
  <path
     style="color:#4d4d4d;fill:currentColor;stroke-width:0.98601401"
     d="M 11 3 C 8.2384958 3 6 5.30965 6 8.15625 C 6 9.84415 6.7723331 11.317712 7.984375 12.257812 C 8.5418869 12.691873 8.9746094 13.250094 8.9746094 14.021484 L 9.0253906 15 L 12.972656 15 L 13.027344 14.021484 C 13.071094 13.251354 13.459125 12.691814 14.015625 12.257812 C 15.228673 11.317692 16 9.84415 16 8.15625 C 16 5.30965 13.761601 3 11 3 z M 11 4 C 13.204171 4 15 5.833889 15 8.15625 C 15 9.5394866 14.377772 10.710834 13.402344 11.466797 L 13.400391 11.46875 C 12.692223 12.021032 12.090457 12.888246 12.029297 13.964844 L 12.027344 14 L 9.9746094 14 L 9.9746094 14.021484 C 9.9746094 12.876845 9.2880645 12.004758 8.5996094 11.46875 L 8.5976562 11.466797 C 7.6228755 10.710778 7 9.539091 7 8.15625 C 7 5.8339116 8.7959456 4 11 4 z M 9 16 L 9 19 L 13 19 L 13 16 L 9 16 z "
     id="path4488" />
</svg>
