<?xml version="1.0" encoding="UTF-8" standalone="no"?>
<svg
   xmlns:dc="http://purl.org/dc/elements/1.1/"
   xmlns:cc="http://creativecommons.org/ns#"
   xmlns:rdf="http://www.w3.org/1999/02/22-rdf-syntax-ns#"
   xmlns:svg="http://www.w3.org/2000/svg"
   xmlns="http://www.w3.org/2000/svg"
   xmlns:sodipodi="http://sodipodi.sourceforge.net/DTD/sodipodi-0.dtd"
   xmlns:inkscape="http://www.inkscape.org/namespaces/inkscape"
   height="22"
   width="22"
   version="1"
   id="svg2"
   sodipodi:docname="rhythmbox-panel.svg"
   inkscape:version="0.92.1 r15371">
  <metadata
     id="metadata8">
    <rdf:RDF>
      <cc:Work
         rdf:about="">
        <dc:format>image/svg+xml</dc:format>
        <dc:type
           rdf:resource="http://purl.org/dc/dcmitype/StillImage" />
      </cc:Work>
    </rdf:RDF>
  </metadata>
  <sodipodi:namedview
     pagecolor="#ffffff"
     bordercolor="#666666"
     borderopacity="1"
     objecttolerance="10"
     gridtolerance="10"
     guidetolerance="10"
     inkscape:pageopacity="0"
     inkscape:pageshadow="2"
     inkscape:window-width="1600"
     inkscape:window-height="822"
     id="namedview6"
     showgrid="false"
     inkscape:zoom="10.727273"
     inkscape:cx="-7.2711864"
     inkscape:cy="11"
     inkscape:window-x="0"
     inkscape:window-y="0"
     inkscape:window-maximized="1"
     inkscape:current-layer="svg2" />
  <defs
     id="defs8">
    <style
       type="text/css"
       id="current-color-scheme">
   .ColorScheme-Text { color:#4d4d4d; } .ColorScheme-Highlight { color:#3daee9; }
  </style>
  </defs>
  <path
     style="fill:#4d4d4d;fill-opacity:1"
     d="M 6 3 L 6 19 L 17 19 L 17 3 L 6 3 z M 7 4 L 16 4 L 16 18 L 7 18 L 7 4 z M 9 5 C 8.4476 5 7.9998 5.4478 8 6 C 7.9998 6.5522 8.4476 7 9 7 C 9.5524 7 10 6.5522 10 6 C 10 5.4478 9.5524 5 9 5 z M 14 5 C 13.44757 5 12.9998 5.44778 13 6 C 12.999798 6.55222 13.44757 7 14 7 C 14.55243 7 15.0002 6.55222 15 6 C 15.000202 5.44778 14.55243 5 14 5 z M 11.5 10 C 9.5666 10 7.9995 11.567 8 13.5 C 7.9995 15.433 9.5666 17 11.5 17 C 13.433 17 15 15.433 15 13.5 C 15 11.567 13.433 10 11.5 10 z M 11.5 12 C 12.328 12 13 12.672 13 13.5 C 13 14.328 12.328 15 11.5 15 C 10.672 15 10 14.328 10 13.5 C 10 12.672 10.672 12 11.5 12 z "
     id="path4491" />
</svg>
