<?xml version="1.0" encoding="UTF-8" standalone="no"?>
<svg
   xmlns:dc="http://purl.org/dc/elements/1.1/"
   xmlns:cc="http://creativecommons.org/ns#"
   xmlns:rdf="http://www.w3.org/1999/02/22-rdf-syntax-ns#"
   xmlns:svg="http://www.w3.org/2000/svg"
   xmlns="http://www.w3.org/2000/svg"
   xmlns:sodipodi="http://sodipodi.sourceforge.net/DTD/sodipodi-0.dtd"
   xmlns:inkscape="http://www.inkscape.org/namespaces/inkscape"
   height="22"
   width="22"
   version="1"
   id="svg2"
   sodipodi:docname="safeeyes_disabled.svg"
   inkscape:version="0.92.1 r15371">
  <metadata
     id="metadata8">
    <rdf:RDF>
      <cc:Work
         rdf:about="">
        <dc:format>image/svg+xml</dc:format>
        <dc:type
           rdf:resource="http://purl.org/dc/dcmitype/StillImage" />
        <dc:title></dc:title>
      </cc:Work>
    </rdf:RDF>
  </metadata>
  <sodipodi:namedview
     pagecolor="#ffffff"
     bordercolor="#666666"
     borderopacity="1"
     objecttolerance="10"
     gridtolerance="10"
     guidetolerance="10"
     inkscape:pageopacity="0"
     inkscape:pageshadow="2"
     inkscape:window-width="1600"
     inkscape:window-height="822"
     id="namedview6"
     showgrid="false"
     inkscape:zoom="10.727273"
     inkscape:cx="-7.2711864"
     inkscape:cy="11"
     inkscape:window-x="0"
     inkscape:window-y="0"
     inkscape:window-maximized="1"
     inkscape:current-layer="svg2" />
  <defs
     id="defs8">
    <style
       type="text/css"
       id="current-color-scheme">
   .ColorScheme-Text { color:#4d4d4d; } .ColorScheme-Highlight { color:#3daee9; }
  </style>
  </defs>
  <path
     style="fill:#4d4d4d;fill-opacity:1;opacity:0.5"
     d="M 11 3 C 6.568 3 3 6.568 3 11 C 3 15.432 6.568 19 11 19 C 15.428 19 18.994 15.437719 19 11.011719 L 19 11 C 19 6.568 15.432 3 11 3 z M 11.101562 4 A 7.0012618 7.0012618 0 0 1 11.103516 4 A 7.0012618 7.0012618 0 0 1 15.949219 6.0507812 A 7.0012618 7.0012618 0 0 1 15.949219 15.951172 A 7.0012618 7.0012618 0 0 1 6.0507812 15.951172 A 7.0012618 7.0012618 0 0 1 6.0507812 6.0507812 A 7.0012618 7.0012618 0 0 1 11.101562 4 z M 11 6 L 11 11 L 16 11.007812 L 16 11 C 16 8.2267 13.773 6 11 6 z M 7 10 A 1 1 0 0 0 6 11 A 1 1 0 0 0 7 12 A 1 1 0 0 0 8 11 A 1 1 0 0 0 7 10 z M 11 14 A 1 1 0 0 0 10 15 A 1 1 0 0 0 11 16 A 1 1 0 0 0 12 15 A 1 1 0 0 0 11 14 z "
     id="path4493" />
</svg>
