<?xml version="1.0" encoding="UTF-8" standalone="no"?>
<svg
   xmlns:dc="http://purl.org/dc/elements/1.1/"
   xmlns:cc="http://creativecommons.org/ns#"
   xmlns:rdf="http://www.w3.org/1999/02/22-rdf-syntax-ns#"
   xmlns:svg="http://www.w3.org/2000/svg"
   xmlns="http://www.w3.org/2000/svg"
   xmlns:sodipodi="http://sodipodi.sourceforge.net/DTD/sodipodi-0.dtd"
   xmlns:inkscape="http://www.inkscape.org/namespaces/inkscape"
   width="22"
   version="1.1"
   height="22"
   id="svg2"
   sodipodi:docname="scudcloud.svg"
   inkscape:version="0.92.1 r15371">
  <metadata
     id="metadata8">
    <rdf:RDF>
      <cc:Work
         rdf:about="">
        <dc:format>image/svg+xml</dc:format>
        <dc:type
           rdf:resource="http://purl.org/dc/dcmitype/StillImage" />
      </cc:Work>
    </rdf:RDF>
  </metadata>
  <sodipodi:namedview
     pagecolor="#ffffff"
     bordercolor="#666666"
     borderopacity="1"
     objecttolerance="10"
     gridtolerance="10"
     guidetolerance="10"
     inkscape:pageopacity="0"
     inkscape:pageshadow="2"
     inkscape:window-width="1600"
     inkscape:window-height="822"
     id="namedview6"
     showgrid="false"
     inkscape:zoom="10.727273"
     inkscape:cx="-7.2711864"
     inkscape:cy="11"
     inkscape:window-x="0"
     inkscape:window-y="0"
     inkscape:window-maximized="1"
     inkscape:current-layer="svg2" />
  <defs
     id="defs8">
    <style
       type="text/css"
       id="current-color-scheme">
   .ColorScheme-Text { color:#4d4d4d; } .ColorScheme-Highlight { color:#3daee9; }
  </style>
  </defs>
  <path
     style="color:#4d4d4d;fill:currentColor;stroke-width:0.9983741"
     d="M 10.75 3.0039062 C 10.668682 3.007507 10.584744 3.0198487 10.5 3.0195312 C 7.5345 3.0195312 5.1308563 5.3983941 5.0351562 8.3320312 C 3.2606563 8.9585888 1.9848 10.590617 2 12.529297 C 2.0018 14.624468 3.4977313 16.313451 5.4570312 16.796875 C 5.3795313 17.404894 5.3264187 18.011998 5.0742188 18.625 C 4.7640398 19.377852 5.440735 20.163953 6.234375 19.972656 C 8.343975 19.464313 10.018047 18.390266 11.373047 17.009766 L 15 17.009766 C 17.75 17.009766 20 14.766456 20 12.025391 C 20 9.5438791 18.124375 7.559447 15.734375 7.1894531 C 15.154375 4.9752706 13.289375 3.2605784 10.984375 3.046875 C 10.910393 3.0056784 10.831318 3.0003056 10.75 3.0039062 z M 10.496094 4.0195312 L 10.5 4.0195312 C 10.695409 4.0207612 10.764978 4.0349119 10.748047 4.0292969 L 10.892578 4.0429688 C 12.757252 4.2158482 14.288658 5.615056 14.767578 7.4433594 L 14.933594 8.078125 L 15.580078 8.1777344 C 17.51407 8.47713 19 10.047874 19 12.025391 C 19 14.219223 17.206318 16.009766 15 16.009766 L 10.953125 16.009766 L 10.660156 16.308594 C 9.411865 17.580377 7.9147321 18.538614 6 19 C 6.3193233 18.220482 6.3752439 17.504191 6.4492188 16.923828 L 6.5625 16.039062 L 5.6972656 15.826172 C 4.1494419 15.444273 3.0013915 14.146994 3 12.527344 L 3 12.523438 L 3 12.521484 C 2.9882741 11.025951 3.9642721 9.7707456 5.3671875 9.2753906 L 6.0117188 9.0488281 L 6.0351562 8.3652344 C 6.1135976 5.9606527 8.0672961 4.0216565 10.496094 4.0195312 z M 12 12 C 11.446 12 11 12.446 11 13 C 11 13.554 11.446 14 12 14 L 15 14 C 15.554 14 16 13.554 16 13 C 16 12.446 15.554 12 15 12 L 12 12 z "
     id="path4487" />
</svg>
