<?xml version="1.0" encoding="UTF-8" standalone="no"?>
<svg
   xmlns:dc="http://purl.org/dc/elements/1.1/"
   xmlns:cc="http://creativecommons.org/ns#"
   xmlns:rdf="http://www.w3.org/1999/02/22-rdf-syntax-ns#"
   xmlns:svg="http://www.w3.org/2000/svg"
   xmlns="http://www.w3.org/2000/svg"
   xmlns:sodipodi="http://sodipodi.sourceforge.net/DTD/sodipodi-0.dtd"
   xmlns:inkscape="http://www.inkscape.org/namespaces/inkscape"
   width="22"
   version="1.1"
   height="22"
   id="svg2"
   sodipodi:docname="seafile-status-syncing-1.svg"
   inkscape:version="0.92.1 r15371">
  <metadata
     id="metadata8">
    <rdf:RDF>
      <cc:Work
         rdf:about="">
        <dc:format>image/svg+xml</dc:format>
        <dc:type
           rdf:resource="http://purl.org/dc/dcmitype/StillImage" />
        <dc:title></dc:title>
      </cc:Work>
    </rdf:RDF>
  </metadata>
  <sodipodi:namedview
     pagecolor="#ffffff"
     bordercolor="#666666"
     borderopacity="1"
     objecttolerance="10"
     gridtolerance="10"
     guidetolerance="10"
     inkscape:pageopacity="0"
     inkscape:pageshadow="2"
     inkscape:window-width="1600"
     inkscape:window-height="822"
     id="namedview6"
     showgrid="false"
     inkscape:zoom="10.727273"
     inkscape:cx="11"
     inkscape:cy="11"
     inkscape:window-x="0"
     inkscape:window-y="0"
     inkscape:window-maximized="1"
     inkscape:current-layer="svg2" />
  <defs
     id="defs8">
    <style
       type="text/css"
       id="current-color-scheme">
   .ColorScheme-Text { color:#4d4d4d; } .ColorScheme-Highlight { color:#3daee9; }
  </style>
  </defs>
  <path
     style="fill:currentColor"
     d="m8 4v0.0176a3 2.9965 0 0 0 -3 2.9961v0.2715a2 1.9977 0 0 0 -1 -0.2715 2 1.9977 0 0 0 -2 1.998h-0.5a0.5 0.49942 0 0 0 -0.5 0.5 0.5 0.49942 0 0 0 0.5 0.4983h0.7715 2.289c0.6964-1.1864 1.9728-1.9983 3.4395-1.9983h0.002c0.5331 0.0008 1.0499 0.1182 1.5332 0.3203 0.3286-0.745 0.8078-1.4042 1.3988-1.9355a3 2.9965 0 0 0 -2.934 -2.3965zm6.5 2.0117v0.0039c-2.221 0-4.107 1.6235-4.441 3.8164-0.5565-0.5263-1.293-0.8191-2.059-0.8203-1.6569 0-3 1.3413-3 2.9963 0.0011 0.343 0.0612 0.683 0.1777 1.006-0.0591-0.01-0.1184-0.01-0.1777-0.01-1.1046 0-2 0.895-2 1.998s0.8954 1.998 2 1.998h1.0449c0.3712-0.102 0.649-0.204 0.9668-0.479 0.3398-0.293 3.4973-5.498 6.3773-5.498 1.526 0.001 3.007 0.748 3.525 2.797 0.046 0.192 0.108 0.564 0.086 0.682 0 0.827-0.672 1.5-1.5 1.5s-1.5-0.673-1.5-1.5c0-0.819 0.659-1.486 1.479-1.498-0.469-0.297-1.04-0.471-1.475-0.475-1.181-0.01-1.917 1.021-2.022 1.944-0.103 0.913 0.196 1.975 2.01 2.527h4.508c1.381 0 2.5-1.119 2.5-2.498 0-1.289-0.983-2.365-2.268-2.484 0.176-0.485 0.266-0.995 0.268-1.51 0-2.4826-2.015-4.4963-4.5-4.4963z"
     id="path4"
     class="ColorScheme-Text" />
  <g
     transform="translate(-420.71429,-525.79071)"
     id="g855">
    <rect
       style="opacity:1;fill:#1d99f3;fill-opacity:1;stroke:none"
       id="rect4153"
       width="8"
       height="8"
       x="433.71429"
       y="536.79071"
       ry="4" />
    <path
       inkscape:connector-curvature="0"
       id="path4198"
       d="m 435.59297,538.66942 a 3,3 0 0 0 -0.32455,3.86008 l 0.72506,-0.72506 a 2,2 0 0 1 0.3066,-2.42791 2,2 0 0 1 2.4293,-0.30798 l 0.71953,-0.71954 a 3,3 0 0 0 -3.85594,0.32041 z m 0.3867,4.56305 a 3,3 0 0 0 3.85594,-0.32041 3,3 0 0 0 0.32455,-3.86008 l -0.72506,0.72506 a 2,2 0 0 1 -0.3066,2.42791 2,2 0 0 1 -2.4293,0.30798 z"
       style="fill:#ffffff;fill-opacity:1;stroke:none;stroke-linecap:butt;stroke-linejoin:round" />
  </g>
</svg>
