<?xml version="1.0" encoding="UTF-8" standalone="no"?>
<svg
   xmlns:dc="http://purl.org/dc/elements/1.1/"
   xmlns:cc="http://creativecommons.org/ns#"
   xmlns:rdf="http://www.w3.org/1999/02/22-rdf-syntax-ns#"
   xmlns:svg="http://www.w3.org/2000/svg"
   xmlns="http://www.w3.org/2000/svg"
   xmlns:sodipodi="http://sodipodi.sourceforge.net/DTD/sodipodi-0.dtd"
   xmlns:inkscape="http://www.inkscape.org/namespaces/inkscape"
   height="22"
   width="22"
   version="1"
   id="svg2"
   sodipodi:docname="simplescreenrecorder-paused.svg"
   inkscape:version="0.92.1 r15371">
  <metadata
     id="metadata8">
    <rdf:RDF>
      <cc:Work
         rdf:about="">
        <dc:format>image/svg+xml</dc:format>
        <dc:type
           rdf:resource="http://purl.org/dc/dcmitype/StillImage" />
        <dc:title></dc:title>
      </cc:Work>
    </rdf:RDF>
  </metadata>
  <sodipodi:namedview
     pagecolor="#ffffff"
     bordercolor="#666666"
     borderopacity="1"
     objecttolerance="10"
     gridtolerance="10"
     guidetolerance="10"
     inkscape:pageopacity="0"
     inkscape:pageshadow="2"
     inkscape:window-width="1600"
     inkscape:window-height="822"
     id="namedview6"
     showgrid="true"
     inkscape:zoom="10.727273"
     inkscape:cx="-25.542373"
     inkscape:cy="11"
     inkscape:window-x="0"
     inkscape:window-y="0"
     inkscape:window-maximized="1"
     inkscape:current-layer="svg2">
    <inkscape:grid
       type="xygrid"
       id="grid4483" />
  </sodipodi:namedview>
  <defs
     id="defs8">
    <style
       type="text/css"
       id="current-color-scheme">
   .ColorScheme-Text { color:#4d4d4d; } .ColorScheme-Highlight { color:#3daee9; }
  </style>
  </defs>
  <path
     style="fill:#4d4d4d;fill-opacity:1"
     d="M 3.1816406 5 C 2.5269406 5 2 5.5344188 2 6.1992188 L 2 15.800781 C 2 16.465781 2.5269406 17 3.1816406 17 L 13.818359 17 C 14.473359 17 15 16.465781 15 15.800781 L 15 13 L 20 15 L 20 7 L 15 9 L 15 6.1992188 C 15 5.5344188 14.473359 5 13.818359 5 L 3.1816406 5 z M 3.1816406 6 L 13.818359 6 C 13.929422 6 14 6.0625384 14 6.1992188 L 14 10.476562 L 19 8.4765625 L 19 13.523438 L 14 11.523438 L 14 15.800781 C 14 15.93782 13.929625 16 13.818359 16 L 3.1816406 16 C 3.0709241 16 3 15.93752 3 15.800781 L 3 6.1992188 C 3 6.0628389 3.0711276 6 3.1816406 6 z M 5 8 L 5 14 L 7 14 L 7 8 L 5 8 z M 9 8 L 9 14 L 11 14 L 11 8 L 9 8 z "
     id="path4489" />
</svg>
