<?xml version="1.0" encoding="UTF-8" standalone="no"?>
<svg
   xmlns:dc="http://purl.org/dc/elements/1.1/"
   xmlns:cc="http://creativecommons.org/ns#"
   xmlns:rdf="http://www.w3.org/1999/02/22-rdf-syntax-ns#"
   xmlns:svg="http://www.w3.org/2000/svg"
   xmlns="http://www.w3.org/2000/svg"
   xmlns:sodipodi="http://sodipodi.sourceforge.net/DTD/sodipodi-0.dtd"
   xmlns:inkscape="http://www.inkscape.org/namespaces/inkscape"
   height="22"
   width="22"
   version="1"
   id="svg7"
   sodipodi:docname="skype-status-connecting-1.svg"
   inkscape:version="0.92.1 r15371">
  <metadata
     id="metadata11">
    <rdf:RDF>
      <cc:Work
         rdf:about="">
        <dc:format>image/svg+xml</dc:format>
        <dc:type
           rdf:resource="http://purl.org/dc/dcmitype/StillImage" />
        <dc:title></dc:title>
      </cc:Work>
    </rdf:RDF>
  </metadata>
  <sodipodi:namedview
     pagecolor="#ffffff"
     bordercolor="#666666"
     borderopacity="1"
     objecttolerance="10"
     gridtolerance="10"
     guidetolerance="10"
     inkscape:pageopacity="0"
     inkscape:pageshadow="2"
     inkscape:window-width="1600"
     inkscape:window-height="822"
     id="namedview9"
     showgrid="false"
     inkscape:zoom="10.727273"
     inkscape:cx="11"
     inkscape:cy="11"
     inkscape:window-x="0"
     inkscape:window-y="0"
     inkscape:window-maximized="1"
     inkscape:current-layer="svg7" />
  <defs
     id="defs3">
    <style
       type="text/css"
       id="current-color-scheme">
   .ColorScheme-Text { color:#4d4d4d; } .ColorScheme-Highlight { color:#3daee9; }
  </style>
  </defs>
  <path
     style="fill:currentColor"
     class="ColorScheme-Text"
     d="m 6.9999999,3 a 4,4 0 0 0 -4,4 A 4,4 0 0 0 4.1152343,9.7695312 7,7 0 0 0 3.9999999,11 7,7 0 0 0 11,18 7,7 0 0 0 12.238281,17.886719 4,4 0 0 0 15,19 4,4 0 0 0 19,15 4,4 0 0 0 17.884766,12.230469 7,7 0 0 0 18,11 7,7 0 0 0 11,4 7,7 0 0 0 9.7617191,4.1132812 4,4 0 0 0 6.9999999,3 Z m -0.00195,1 h 0.00195 c 0.7718073,0.00188 1.5132822,0.3016305 2.0703122,0.8359375 l 0.367188,0.3535156 0.503906,-0.091797 C 10.290985,5.0339791 10.644672,5.0009351 11,5.0000001 c 3.324886,0 5.998927,2.6734217 6,5.9980469 -0.0018,0.352993 -0.03391,0.703584 -0.09766,1.050781 l -0.09375,0.503906 0.355468,0.369141 C 17.700765,13.480714 17.999865,14.225181 18,15 c 0,1.668043 -1.330269,2.998954 -2.998047,3 -0.772531,-0.0013 -1.514693,-0.299272 -2.072265,-0.833984 L 12.5625,16.8125 12.058594,16.902344 C 11.709091,16.96592 11.355234,16.999135 11,17 7.6751138,17 5.0010724,14.326578 4.9999999,11.001953 v -0.002 c 0.00209,-0.351838 0.036015,-0.702771 0.099609,-1.048828 L 5.1914059,9.4472687 4.8359372,9.076175 C 4.2992746,8.5174507 4.0002726,7.7747104 3.9999999,7 c 0,-1.6680432 1.3302689,-2.9989543 2.9980469,-3 z m 4.1289061,3 0.002,0.00195 c -1.9736499,3.1e-6 -3.1289561,0.8909781 -3.1289561,2.4218781 0,1.6671999 2.1581411,2.1022029 3.4941411,2.2832029 1.25083,0.33734 1.296875,0.526216 1.296875,1.072266 0,0.68385 -0.863719,0.951172 -1.449219,0.951172 -1.7631299,0 -1.6372689,-1.289063 -2.5800779,-1.289063 -0.4843905,0 -0.7167973,0.153725 -0.7167973,0.765625 0,0.612 1.2610753,1.792969 3.2343752,1.792969 1.974,0 3.220703,-0.767828 3.220703,-2.298828 0,-1.577 -1.287859,-2.036094 -3.005859,-2.496094 -1.1395,-0.2811499 -1.7851569,-0.4831499 -1.7851569,-1.0312499 0,-0.6818 0.7290499,-0.9472656 1.3124999,-0.9472656 1.7632,0 1.37705,1.1328125 2.31836,1.1328125 0.48439,0 0.779297,-0.091128 0.779297,-0.7050781 C 14.119141,8.0423969 13.100553,7 11.126953,7 Z"
     id="path5" />
  <g
     transform="matrix(-1,0,0,1,452.7143,-525.79071)"
     id="g855">
    <rect
       style="opacity:1;fill:#1d99f3;fill-opacity:1;stroke:none"
       id="rect4153"
       width="8"
       height="8"
       x="433.71429"
       y="536.79071"
       ry="4" />
    <path
       inkscape:connector-curvature="0"
       id="path4198"
       d="m 435.59297,538.66942 a 3,3 0 0 0 -0.32455,3.86008 l 0.72506,-0.72506 a 2,2 0 0 1 0.3066,-2.42791 2,2 0 0 1 2.4293,-0.30798 l 0.71953,-0.71954 a 3,3 0 0 0 -3.85594,0.32041 z m 0.3867,4.56305 a 3,3 0 0 0 3.85594,-0.32041 3,3 0 0 0 0.32455,-3.86008 l -0.72506,0.72506 a 2,2 0 0 1 -0.3066,2.42791 2,2 0 0 1 -2.4293,0.30798 z"
       style="fill:#ffffff;fill-opacity:1;stroke:none;stroke-linecap:butt;stroke-linejoin:round" />
  </g>
</svg>
