<?xml version="1.0" encoding="UTF-8" standalone="no"?>
<svg
   xmlns:dc="http://purl.org/dc/elements/1.1/"
   xmlns:cc="http://creativecommons.org/ns#"
   xmlns:rdf="http://www.w3.org/1999/02/22-rdf-syntax-ns#"
   xmlns:svg="http://www.w3.org/2000/svg"
   xmlns="http://www.w3.org/2000/svg"
   xmlns:sodipodi="http://sodipodi.sourceforge.net/DTD/sodipodi-0.dtd"
   xmlns:inkscape="http://www.inkscape.org/namespaces/inkscape"
   width="22"
   version="1.1"
   height="22"
   id="svg2"
   sodipodi:docname="solaar-attention.svg"
   inkscape:version="0.92.1 r15371">
  <metadata
     id="metadata9">
    <rdf:RDF>
      <cc:Work
         rdf:about="">
        <dc:format>image/svg+xml</dc:format>
        <dc:type
           rdf:resource="http://purl.org/dc/dcmitype/StillImage" />
        <dc:title></dc:title>
      </cc:Work>
    </rdf:RDF>
  </metadata>
  <sodipodi:namedview
     pagecolor="#ffffff"
     bordercolor="#666666"
     borderopacity="1"
     objecttolerance="10"
     gridtolerance="10"
     guidetolerance="10"
     inkscape:pageopacity="0"
     inkscape:pageshadow="2"
     inkscape:window-width="1600"
     inkscape:window-height="822"
     id="namedview7"
     showgrid="true"
     inkscape:zoom="17.43"
     inkscape:cx="8.2741306"
     inkscape:cy="11"
     inkscape:window-x="0"
     inkscape:window-y="0"
     inkscape:window-maximized="1"
     inkscape:current-layer="svg2">
    <inkscape:grid
       type="xygrid"
       id="grid4503" />
  </sodipodi:namedview>
  <defs
     id="defs10">
    <style
       type="text/css"
       id="current-color-scheme">
   .ColorScheme-Text { color:#4d4d4d; } .ColorScheme-Highlight { color:#3daee9; }
  </style>
  </defs>
  <path
     style="fill:#3daee9;fill-opacity:1"
     d="M 5 3 C 3.892 3 3 3.892 3 5 L 3 17 C 3 18.108 3.892 19 5 19 L 17 19 C 18.108 19 19 18.108 19 17 L 19 5 C 19 3.892 18.108 3 17 3 L 5 3 z M 5.75 4 L 16.25 4 C 17.2195 4 18 4.7805 18 5.75 L 18 16.25 C 18 17.2195 17.2195 18 16.25 18 L 5.75 18 C 4.7805 18 4 17.2195 4 16.25 L 4 5.75 C 4 4.7805 4.7805 4 5.75 4 z M 8.8652344 5.3046875 L 8.8652344 5.3535156 L 7.1347656 6.3535156 L 8.71875 9.0996094 A 3 3 0 0 0 8.1738281 10.099609 L 4.9980469 10.099609 L 4.9980469 12.099609 L 8.171875 12.099609 A 3 3 0 0 0 8.71875 13.044922 L 7.1328125 15.794922 L 8.8632812 16.794922 L 10.451172 14.046875 A 3 3 0 0 0 10.998047 14.099609 A 3 3 0 0 0 11.548828 14 L 13.134766 16.748047 L 14.865234 15.748047 L 13.28125 13.001953 A 3 3 0 0 0 13.824219 12.052734 L 17 12.052734 L 17 10.052734 L 13.826172 10.052734 A 3 3 0 0 0 13.279297 9.1074219 L 14.865234 6.3574219 L 13.134766 5.3574219 L 11.546875 8.1054688 A 3 3 0 0 0 11 8.0527344 A 3 3 0 0 0 10.451172 8.0527344 L 8.8652344 5.3046875 z M 11 9.0039062 A 2 2 0 0 1 13 11.003906 A 2 2 0 0 1 11 13.003906 A 2 2 0 0 1 9 11.003906 A 2 2 0 0 1 11 9.0039062 z "
     id="path4490" />
  <g
     id="g4498"
     transform="matrix(0.875,0,0,0.875,1.375,-900.225)" />
</svg>
