<?xml version="1.0" encoding="UTF-8" standalone="no"?>
<svg
   xmlns:dc="http://purl.org/dc/elements/1.1/"
   xmlns:cc="http://creativecommons.org/ns#"
   xmlns:rdf="http://www.w3.org/1999/02/22-rdf-syntax-ns#"
   xmlns:svg="http://www.w3.org/2000/svg"
   xmlns="http://www.w3.org/2000/svg"
   xmlns:sodipodi="http://sodipodi.sourceforge.net/DTD/sodipodi-0.dtd"
   xmlns:inkscape="http://www.inkscape.org/namespaces/inkscape"
   width="22"
   version="1.1"
   height="22"
   id="svg2"
   sodipodi:docname="stremio-tray.svg"
   inkscape:version="0.92.1 r15371">
  <metadata
     id="metadata9">
    <rdf:RDF>
      <cc:Work
         rdf:about="">
        <dc:format>image/svg+xml</dc:format>
        <dc:type
           rdf:resource="http://purl.org/dc/dcmitype/StillImage" />
      </cc:Work>
    </rdf:RDF>
  </metadata>
  <sodipodi:namedview
     pagecolor="#ffffff"
     bordercolor="#666666"
     borderopacity="1"
     objecttolerance="10"
     gridtolerance="10"
     guidetolerance="10"
     inkscape:pageopacity="0"
     inkscape:pageshadow="2"
     inkscape:window-width="1600"
     inkscape:window-height="822"
     id="namedview7"
     showgrid="false"
     inkscape:zoom="10.727273"
     inkscape:cx="-7.2711864"
     inkscape:cy="11"
     inkscape:window-x="0"
     inkscape:window-y="0"
     inkscape:window-maximized="1"
     inkscape:current-layer="svg2" />
  <defs
     id="defs10">
    <style
       type="text/css"
       id="current-color-scheme">
   .ColorScheme-Text { color:#4d4d4d; } .ColorScheme-Highlight { color:#3daee9; }
  </style>
  </defs>
  <path
     style="fill:#4d4d4d;stroke-width:1.12511969;fill-opacity:1"
     d="M 11 2 C 10.708586 2 10.417263 2.112495 10.193359 2.3359375 L 2.3359375 10.193359 C 1.8890275 10.640019 1.8890275 11.359981 2.3359375 11.806641 L 10.193359 19.664062 C 10.640044 20.110723 11.359956 20.110723 11.806641 19.664062 L 19.664062 11.806641 C 20.110747 11.359981 20.110747 10.640019 19.664062 10.193359 L 11.806641 2.3359375 C 11.582737 2.112495 11.291414 2 11 2 z M 11 3 C 11.259035 3 11.517771 3.1002126 11.716797 3.2988281 L 18.703125 10.283203 C 19.100178 10.680234 19.100178 11.319766 18.703125 11.716797 L 11.716797 18.703125 C 11.319744 19.100156 10.680256 19.100156 10.283203 18.703125 L 3.2988281 11.716797 C 2.9015748 11.319766 2.9015748 10.680234 3.2988281 10.283203 L 10.283203 3.2988281 C 10.482229 3.1002126 10.740965 3 11 3 z M 10.892578 7 C 10.008578 7 9.2357656 7.2666281 8.5722656 7.7988281 L 9.0625 8.4628906 C 9.6515 8.0335906 10.260578 7.8203125 10.892578 7.8203125 C 11.296578 7.8203125 11.620328 7.9257719 11.861328 8.1386719 C 12.103328 8.3480719 12.224609 8.6341937 12.224609 8.9960938 C 12.224609 9.4395937 12.067859 9.7971063 11.755859 10.066406 C 11.443859 10.336406 11.002547 10.470703 10.435547 10.470703 L 9.7285156 10.470703 L 9.7285156 11.273438 L 10.435547 11.273438 C 11.787547 11.273438 12.462891 11.733438 12.462891 12.648438 C 12.462891 13.674437 11.836078 14.185547 10.580078 14.185547 C 9.8739781 14.185547 9.1939156 14.014828 8.5410156 13.673828 L 8.5410156 14.580078 C 9.0555156 14.860078 9.7423625 15 10.601562 15 C 11.527562 15 12.234609 14.793813 12.724609 14.382812 C 13.213609 13.967812 13.458984 13.399688 13.458984 12.679688 C 13.458984 11.611687 12.818109 10.993172 11.537109 10.826172 L 11.537109 10.794922 C 12.076109 10.702922 12.492203 10.492109 12.783203 10.162109 C 13.074203 9.8322094 13.21875 9.4214406 13.21875 8.9316406 C 13.21875 8.3462406 13.012562 7.8787437 12.601562 7.5273438 C 12.192563 7.1761437 11.623578 7 10.892578 7 z "
     id="path4492" />
</svg>
