<?xml version="1.0" encoding="UTF-8" standalone="no"?>
<svg
   xmlns:dc="http://purl.org/dc/elements/1.1/"
   xmlns:cc="http://creativecommons.org/ns#"
   xmlns:rdf="http://www.w3.org/1999/02/22-rdf-syntax-ns#"
   xmlns:svg="http://www.w3.org/2000/svg"
   xmlns="http://www.w3.org/2000/svg"
   xmlns:sodipodi="http://sodipodi.sourceforge.net/DTD/sodipodi-0.dtd"
   xmlns:inkscape="http://www.inkscape.org/namespaces/inkscape"
   height="22"
   width="22"
   version="1.1"
   id="svg9"
   sodipodi:docname="teamviewer-indicator-offline.svg"
   inkscape:version="0.92.1 r15371">
  <metadata
     id="metadata13">
    <rdf:RDF>
      <cc:Work
         rdf:about="">
        <dc:format>image/svg+xml</dc:format>
        <dc:type
           rdf:resource="http://purl.org/dc/dcmitype/StillImage" />
        <dc:title></dc:title>
      </cc:Work>
    </rdf:RDF>
  </metadata>
  <sodipodi:namedview
     pagecolor="#ffffff"
     bordercolor="#666666"
     borderopacity="1"
     objecttolerance="10"
     gridtolerance="10"
     guidetolerance="10"
     inkscape:pageopacity="0"
     inkscape:pageshadow="2"
     inkscape:window-width="1600"
     inkscape:window-height="822"
     id="namedview11"
     showgrid="false"
     inkscape:zoom="10.727273"
     inkscape:cx="-25.542373"
     inkscape:cy="11"
     inkscape:window-x="0"
     inkscape:window-y="0"
     inkscape:window-maximized="1"
     inkscape:current-layer="svg9" />
  <defs
     id="defs3">
    <style
       type="text/css"
       id="current-color-scheme">
   .ColorScheme-Text { color:#4d4d4d; } .ColorScheme-Highlight { color:#3daee9; }
  </style>
  </defs>
  <path
     style="opacity:0.5;fill:#4d4d4d;fill-opacity:1"
     d="M 11 3 C 6.5820815 2.9999999 2.9999999 6.5820815 3 11 C 2.9999999 15.417918 6.5820815 19 11 19 C 15.417918 19 19 15.417918 19 11 C 19 6.5820815 15.417918 2.9999999 11 3 z M 11 4 C 14.865678 3.9999999 18 7.1343213 18 11 C 18 14.865678 14.865678 18 11 18 C 7.1343213 18 3.9999999 14.865678 4 11 C 3.9999999 7.1343213 7.1343213 3.9999999 11 4 z M 9 8 L 6 11 L 9 14 L 9 12 L 13 12 L 13 14 L 16 11 L 13 8 L 13 10 L 9 10 L 9 8 z "
     id="path4492" />
</svg>
