<?xml version="1.0" encoding="UTF-8" standalone="no"?>
<svg
   xmlns:dc="http://purl.org/dc/elements/1.1/"
   xmlns:cc="http://creativecommons.org/ns#"
   xmlns:rdf="http://www.w3.org/1999/02/22-rdf-syntax-ns#"
   xmlns:svg="http://www.w3.org/2000/svg"
   xmlns="http://www.w3.org/2000/svg"
   xmlns:sodipodi="http://sodipodi.sourceforge.net/DTD/sodipodi-0.dtd"
   xmlns:inkscape="http://www.inkscape.org/namespaces/inkscape"
   viewBox="0 0 22 22"
   version="1.1"
   id="svg14"
   sodipodi:docname="user-online.svg"
   inkscape:version="0.92.1 r15371">
  <metadata
     id="metadata20">
    <rdf:RDF>
      <cc:Work
         rdf:about="">
        <dc:format>image/svg+xml</dc:format>
        <dc:type
           rdf:resource="http://purl.org/dc/dcmitype/StillImage" />
        <dc:title></dc:title>
      </cc:Work>
    </rdf:RDF>
  </metadata>
  <defs
     id="defs18" />
  <sodipodi:namedview
     pagecolor="#ffffff"
     bordercolor="#666666"
     borderopacity="1"
     objecttolerance="10"
     gridtolerance="10"
     guidetolerance="10"
     inkscape:pageopacity="0"
     inkscape:pageshadow="2"
     inkscape:window-width="1600"
     inkscape:window-height="808"
     id="namedview16"
     showgrid="false"
     inkscape:zoom="10.727273"
     inkscape:cx="11"
     inkscape:cy="11"
     inkscape:window-x="0"
     inkscape:window-y="0"
     inkscape:window-maximized="1"
     inkscape:current-layer="svg14" />
  <g
     transform="translate(-421.71429-525.79071)"
     id="g12">
    <g
       style="fill:#43be80"
       id="g8">
      <path
         d="m432.71429 528.79032a3.99999 4.00003 0 0 0 -4 4 3.99999 4.00003 0 0 0 4 4 3.99999 4.00003 0 0 0 4 -4 3.99999 4.00003 0 0 0 -4 -4m0 1a3 3.00003 0 0 1 3 3 3 3.00003 0 0 1 -3 3 3 3.00003 0 0 1 -3 -3 3 3.00003 0 0 1 3 -3"
         id="path2" />
      <path
         d="M11 12A7.99995 8.00003 0 0 0 3.072266 19H4.080078A6.99996 7.00003 0 0 1 11 13 6.99996 7.00003 0 0 1 12 13.08008V12.07031A7.99995 8.00003 0 0 0 11 12"
         transform="translate(421.71429 525.79071)"
         id="path4" />
      <circle
         cx="437.21429"
         cy="541.29071"
         r="3.5"
         id="circle6" />
    </g>
    <path
       d="m438.71428 539.79074l1 1-3 3-2-2 1-1 1 1z"
       style="fill:#fff;fill-rule:evenodd"
       id="path10" />
  </g>
</svg>
