<?xml version="1.0" encoding="UTF-8" standalone="no"?>
<svg
   xmlns:dc="http://purl.org/dc/elements/1.1/"
   xmlns:cc="http://creativecommons.org/ns#"
   xmlns:rdf="http://www.w3.org/1999/02/22-rdf-syntax-ns#"
   xmlns:svg="http://www.w3.org/2000/svg"
   xmlns="http://www.w3.org/2000/svg"
   xmlns:sodipodi="http://sodipodi.sourceforge.net/DTD/sodipodi-0.dtd"
   xmlns:inkscape="http://www.inkscape.org/namespaces/inkscape"
   height="22"
   version="1.1"
   width="22"
   id="svg9"
   sodipodi:docname="weather-clouds-night.svg"
   inkscape:version="0.92.1 r15371">
  <metadata
     id="metadata13">
    <rdf:RDF>
      <cc:Work
         rdf:about="">
        <dc:format>image/svg+xml</dc:format>
        <dc:type
           rdf:resource="http://purl.org/dc/dcmitype/StillImage" />
      </cc:Work>
    </rdf:RDF>
  </metadata>
  <sodipodi:namedview
     pagecolor="#ffffff"
     bordercolor="#666666"
     borderopacity="1"
     objecttolerance="10"
     gridtolerance="10"
     guidetolerance="10"
     inkscape:pageopacity="0"
     inkscape:pageshadow="2"
     inkscape:window-width="1600"
     inkscape:window-height="822"
     id="namedview11"
     showgrid="false"
     inkscape:zoom="10.727273"
     inkscape:cx="-7.2711864"
     inkscape:cy="11"
     inkscape:window-x="0"
     inkscape:window-y="0"
     inkscape:window-maximized="1"
     inkscape:current-layer="svg9" />
  <defs
     id="defs3">
    <style
       type="text/css"
       id="current-color-scheme">
   .ColorScheme-Text { color:#4d4d4d; } .ColorScheme-Highlight { color:#3daee9; }
  </style>
  </defs>
  <path
     style="fill:#4d4d4d;fill-opacity:1"
     d="M 10.75 4.03125 C 7.98722 4.13269 5.4413 5.83583 4.4375 8.59375 C 3.91328 10.03403 3.8936869 11.535686 4.2792969 12.910156 C 4.6829969 11.592126 5.7637375 10.576502 7.1171875 10.226562 C 7.2872375 9.936333 7.4887314 9.6669125 7.7070312 9.4140625 C 7.7175312 8.7038225 7.83741 7.98554 8.09375 7.28125 C 8.60791 5.8686 9.56819 4.77289 10.75 4.03125 z M 11.099609 8.7851562 C 9.5463002 8.7851562 8.2235769 9.7360917 7.6542969 11.082031 C 6.2084269 11.296981 5.0996094 12.529476 5.0996094 14.035156 C 5.0996094 15.692016 6.4427494 17.035156 8.0996094 17.035156 L 14.474609 17.035156 C 15.924359 17.035156 17.099609 15.859906 17.099609 14.410156 C 17.099609 13.062756 16.086517 11.958634 14.779297 11.808594 C 14.438377 10.088554 12.919759 8.7851564 11.099609 8.7851562 z M 11.099609 9.7851562 C 12.442364 9.7851564 13.549288 10.744902 13.798828 12.003906 L 13.939453 12.71875 L 14.666016 12.802734 C 15.479242 12.896074 16.099609 13.564014 16.099609 14.410156 C 16.099609 15.319468 15.383921 16.035156 14.474609 16.035156 L 8.0996094 16.035156 C 6.9831853 16.035156 6.0996094 15.15158 6.0996094 14.035156 C 6.0996094 13.020425 6.831308 12.214441 7.8007812 12.070312 L 8.3574219 11.988281 L 8.5761719 11.470703 C 8.994791 10.480972 9.9544334 9.7851564 11.099609 9.7851562 z "
     id="path4492" />
</svg>
