<?xml version="1.0" encoding="UTF-8" standalone="no"?>
<svg
   xmlns:dc="http://purl.org/dc/elements/1.1/"
   xmlns:cc="http://creativecommons.org/ns#"
   xmlns:rdf="http://www.w3.org/1999/02/22-rdf-syntax-ns#"
   xmlns:svg="http://www.w3.org/2000/svg"
   xmlns="http://www.w3.org/2000/svg"
   xmlns:sodipodi="http://sodipodi.sourceforge.net/DTD/sodipodi-0.dtd"
   xmlns:inkscape="http://www.inkscape.org/namespaces/inkscape"
   height="22"
   version="1.1"
   width="22"
   id="svg9"
   sodipodi:docname="weather-clear-night.svg"
   inkscape:version="0.92.1 r15371">
  <metadata
     id="metadata13">
    <rdf:RDF>
      <cc:Work
         rdf:about="">
        <dc:format>image/svg+xml</dc:format>
        <dc:type
           rdf:resource="http://purl.org/dc/dcmitype/StillImage" />
      </cc:Work>
    </rdf:RDF>
  </metadata>
  <sodipodi:namedview
     pagecolor="#ffffff"
     bordercolor="#666666"
     borderopacity="1"
     objecttolerance="10"
     gridtolerance="10"
     guidetolerance="10"
     inkscape:pageopacity="0"
     inkscape:pageshadow="2"
     inkscape:window-width="1600"
     inkscape:window-height="822"
     id="namedview11"
     showgrid="false"
     inkscape:zoom="10.727273"
     inkscape:cx="-7.2711864"
     inkscape:cy="11"
     inkscape:window-x="0"
     inkscape:window-y="0"
     inkscape:window-maximized="1"
     inkscape:current-layer="svg9" />
  <defs
     id="defs3">
    <style
       type="text/css"
       id="current-color-scheme">
   .ColorScheme-Text { color:#4d4d4d; } .ColorScheme-Highlight { color:#3daee9; }
  </style>
  </defs>
  <g
     transform="translate(-81.000012,-681.28997)"
     id="g7">
    <path
       style="fill:#4d4d4d;fill-opacity:1"
       d="M 11.642578 4 C 8.9200491 4.10157 6.411051 5.8069694 5.421875 8.5683594 C 4.118889 12.205779 5.9376561 16.256168 9.5175781 17.580078 C 12.235308 18.585138 15.173415 17.725665 17 15.671875 C 15.691565 16.101015 14.233866 16.122242 12.841797 15.607422 C 9.5175829 14.378072 7.8135255 10.631506 9.0234375 7.2539062 C 9.5301065 5.8394762 10.477986 4.74257 11.642578 4 z M 8.5820312 6.0351562 C 8.4229723 6.3367362 8.2007572 6.5865288 8.0820312 6.9179688 C 6.6923932 10.797299 8.6561068 15.126785 12.496094 16.546875 C 12.831635 16.670965 13.173582 16.660902 13.513672 16.732422 C 12.353754 17.081722 11.087804 17.095388 9.8632812 16.642578 C 6.8022943 15.510578 5.2393972 12.04369 6.3632812 8.90625 C 6.8055133 7.67171 7.6010203 6.7061562 8.5820312 6.0351562 z "
       transform="translate(81.000012,681.28997)"
       id="path5" />
  </g>
  <g
     id="g4492"
     transform="translate(-81.000012,-681.28997)"
     style="fill:none;stroke:#000000;stroke-opacity:1;stroke-width:2;stroke-miterlimit:4;stroke-dasharray:none" />
</svg>
