<?xml version="1.0" encoding="UTF-8" standalone="no"?>
<svg
   xmlns:dc="http://purl.org/dc/elements/1.1/"
   xmlns:cc="http://creativecommons.org/ns#"
   xmlns:rdf="http://www.w3.org/1999/02/22-rdf-syntax-ns#"
   xmlns:svg="http://www.w3.org/2000/svg"
   xmlns="http://www.w3.org/2000/svg"
   xmlns:sodipodi="http://sodipodi.sourceforge.net/DTD/sodipodi-0.dtd"
   xmlns:inkscape="http://www.inkscape.org/namespaces/inkscape"
   height="22"
   version="1.1"
   width="22"
   id="svg9"
   sodipodi:docname="weather-clouds.svg"
   inkscape:version="0.92.1 r15371">
  <metadata
     id="metadata13">
    <rdf:RDF>
      <cc:Work
         rdf:about="">
        <dc:format>image/svg+xml</dc:format>
        <dc:type
           rdf:resource="http://purl.org/dc/dcmitype/StillImage" />
      </cc:Work>
    </rdf:RDF>
  </metadata>
  <sodipodi:namedview
     pagecolor="#ffffff"
     bordercolor="#666666"
     borderopacity="1"
     objecttolerance="10"
     gridtolerance="10"
     guidetolerance="10"
     inkscape:pageopacity="0"
     inkscape:pageshadow="2"
     inkscape:window-width="1600"
     inkscape:window-height="822"
     id="namedview11"
     showgrid="false"
     inkscape:zoom="17.43"
     inkscape:cx="-7.2711864"
     inkscape:cy="11"
     inkscape:window-x="0"
     inkscape:window-y="0"
     inkscape:window-maximized="1"
     inkscape:current-layer="svg9" />
  <defs
     id="defs3">
    <style
       type="text/css"
       id="current-color-scheme">
   .ColorScheme-Text { color:#4d4d4d; } .ColorScheme-Highlight { color:#3daee9; }
  </style>
  </defs>
  <path
     style="fill:#4d4d4d;fill-opacity:1"
     d="M 10 3.0019531 L 9.5 4.0332031 C 9.66191 4.0199031 9.8348 4.0019531 10 4.0019531 L 10.5 4.0019531 L 10 3.0019531 z M 10 5.0019531 C 7.23858 5.0019531 5 7.2405432 5 10.001953 C 5 10.471533 5.07869 10.919076 5.2011719 11.347656 C 5.7160869 10.815636 6.3722774 10.416699 7.1152344 10.224609 C 7.9386744 8.8192498 9.3554506 7.7832031 11.097656 7.7832031 C 12.740088 7.7832031 14.156699 8.6455475 14.996094 9.9296875 C 14.956904 7.2020675 12.736948 5.0019531 10 5.0019531 z M 5.0625 5.0644531 L 5.40625 6.1269531 C 5.6253 5.8677331 5.86578 5.6272531 6.125 5.4082031 L 5.0625 5.0644531 z M 14.9375 5.0644531 L 13.84375 5.4394531 L 13.78125 5.4394531 C 13.92042 5.5504031 14.05623 5.6645631 14.1875 5.7832031 C 14.31877 5.9018431 14.44549 6.0249531 14.5625 6.1582031 L 14.9375 5.0644531 z M 11.097656 8.7832031 C 9.5443539 8.7832031 8.2216237 9.7341383 7.6523438 11.080078 C 6.2064717 11.295028 5.0976562 12.527523 5.0976562 14.033203 C 5.0976562 15.690063 6.4408014 17.033203 8.0976562 17.033203 L 14.472656 17.033203 C 15.922406 17.033203 17.097656 15.857953 17.097656 14.408203 C 17.097656 13.060803 16.084564 11.956681 14.777344 11.806641 C 14.436417 10.086601 12.917808 8.7832031 11.097656 8.7832031 z M 4 9.5019531 L 3 10.001953 L 4.03125 10.501953 C 4.01645 10.332643 4 10.175553 4 10.001953 C 4 9.9744531 3.998 9.918353 4 9.8457031 C 4.006 9.7298731 4.02235 9.6134631 4.03125 9.5019531 L 4 9.5019531 z M 15.96875 9.5019531 C 15.98355 9.6712631 16 9.8283532 16 10.001953 C 16 10.029453 16.002 10.085553 16 10.158203 C 15.994 10.274033 15.97765 10.390443 15.96875 10.501953 L 16 10.501953 L 17 10.001953 L 15.96875 9.5019531 z M 11.097656 9.7832031 C 12.440413 9.7832031 13.547328 10.742943 13.796875 12.001953 L 13.9375 12.716797 L 14.664062 12.800781 C 15.47729 12.894121 16.097656 13.562061 16.097656 14.408203 C 16.097656 15.317515 15.381968 16.033203 14.472656 16.033203 L 8.0976562 16.033203 C 6.981239 16.033203 6.0976562 15.149625 6.0976562 14.033203 C 6.0976562 13.018471 6.8293523 12.212486 7.7988281 12.068359 L 8.3554688 11.986328 L 8.5742188 11.46875 C 8.9928364 10.479021 9.9524886 9.7832031 11.097656 9.7832031 z "
     id="path4502" />
</svg>
