<?xml version="1.0" encoding="UTF-8" standalone="no"?>
<svg
   xmlns:dc="http://purl.org/dc/elements/1.1/"
   xmlns:cc="http://creativecommons.org/ns#"
   xmlns:rdf="http://www.w3.org/1999/02/22-rdf-syntax-ns#"
   xmlns:svg="http://www.w3.org/2000/svg"
   xmlns="http://www.w3.org/2000/svg"
   xmlns:sodipodi="http://sodipodi.sourceforge.net/DTD/sodipodi-0.dtd"
   xmlns:inkscape="http://www.inkscape.org/namespaces/inkscape"
   height="22"
   version="1.1"
   width="22"
   id="svg11"
   sodipodi:docname="weather-none-available.svg"
   inkscape:version="0.92.1 r15371">
  <metadata
     id="metadata15">
    <rdf:RDF>
      <cc:Work
         rdf:about="">
        <dc:format>image/svg+xml</dc:format>
        <dc:type
           rdf:resource="http://purl.org/dc/dcmitype/StillImage" />
      </cc:Work>
    </rdf:RDF>
  </metadata>
  <sodipodi:namedview
     pagecolor="#ffffff"
     bordercolor="#666666"
     borderopacity="1"
     objecttolerance="10"
     gridtolerance="10"
     guidetolerance="10"
     inkscape:pageopacity="0"
     inkscape:pageshadow="2"
     inkscape:window-width="1600"
     inkscape:window-height="822"
     id="namedview13"
     showgrid="false"
     inkscape:zoom="10.727273"
     inkscape:cx="11"
     inkscape:cy="11"
     inkscape:window-x="0"
     inkscape:window-y="0"
     inkscape:window-maximized="1"
     inkscape:current-layer="svg11" />
  <defs
     id="defs3">
    <style
       type="text/css"
       id="current-color-scheme">
   .ColorScheme-Text { color:#4d4d4d; } .ColorScheme-Highlight { color:#3daee9; }
  </style>
  </defs>
  <g
     transform="translate(-105.00001,-705.28997)"
     id="g9">
    <path
       style="fill:currentColor;fill-opacity:1;enable-background:new;opacity:0.3"
       class="ColorScheme-Text"
       d="M 11,4 C 8.92893,4 7.16529,5.26792 6.40625,7.0625 4.47842,7.3491 3,8.99242 3,11 c 0,2.20914 1.79086,4 4,4 l 1,0 0,-1 c 5.11e-5,-0.265199 0.1054326,-0.519519 0.2929688,-0.707031 L 10,11.585938 10,11 8,11 C 7.4477381,10.999945 7.0000552,10.552262 7,10 L 7,8 C 7.0000552,7.4477381 7.4477381,7.0000552 8,7 l 5,0 c 0.552262,5.52e-5 0.999945,0.4477381 1,1 l 0,2 0,2 c 4.67e-4,0.265876 -0.104954,0.520994 -0.292969,0.708984 L 12,14.416016 12,15 l 1,0 2.5,0 C 17.433,15 19,13.433 19,11.5 19,9.70346 17.64921,8.2313 15.90625,8.03125 15.45168,5.73786 13.42687,4 11,4 Z"
       transform="translate(105.00001,705.28997)"
       id="path5" />
    <path
       style="fill:#4d4d4d;fill-opacity:1"
       class="ColorScheme-Highlight"
       d="m 113.00001,713.28997 0,2 3,0 0,2 -2,2 0,2 2,0 0,-2 2,-2 0,-2 0,-2 z m 1,9 0,2 2,0 0,-2 z"
       id="path7" />
  </g>
</svg>
