<?xml version="1.0" encoding="UTF-8" standalone="no"?>
<svg
   xmlns:dc="http://purl.org/dc/elements/1.1/"
   xmlns:cc="http://creativecommons.org/ns#"
   xmlns:rdf="http://www.w3.org/1999/02/22-rdf-syntax-ns#"
   xmlns:svg="http://www.w3.org/2000/svg"
   xmlns="http://www.w3.org/2000/svg"
   xmlns:sodipodi="http://sodipodi.sourceforge.net/DTD/sodipodi-0.dtd"
   xmlns:inkscape="http://www.inkscape.org/namespaces/inkscape"
   height="22"
   version="1.1"
   width="22"
   id="svg9"
   sodipodi:docname="weather-snow.svg"
   inkscape:version="0.92.1 r15371">
  <metadata
     id="metadata13">
    <rdf:RDF>
      <cc:Work
         rdf:about="">
        <dc:format>image/svg+xml</dc:format>
        <dc:type
           rdf:resource="http://purl.org/dc/dcmitype/StillImage" />
      </cc:Work>
    </rdf:RDF>
  </metadata>
  <sodipodi:namedview
     pagecolor="#ffffff"
     bordercolor="#666666"
     borderopacity="1"
     objecttolerance="10"
     gridtolerance="10"
     guidetolerance="10"
     inkscape:pageopacity="0"
     inkscape:pageshadow="2"
     inkscape:window-width="1600"
     inkscape:window-height="822"
     id="namedview11"
     showgrid="false"
     inkscape:zoom="10.727273"
     inkscape:cx="-7.2711864"
     inkscape:cy="11"
     inkscape:window-x="0"
     inkscape:window-y="0"
     inkscape:window-maximized="1"
     inkscape:current-layer="svg9" />
  <defs
     id="defs3">
    <style
       type="text/css"
       id="current-color-scheme">
   .ColorScheme-Text { color:#4d4d4d; } .ColorScheme-Highlight { color:#3daee9; }
  </style>
  </defs>
  <path
     style="color:#4d4d4d;opacity:1;fill:currentColor;fill-opacity:1"
     d="M 11 3.0039062 C 8.92893 3.0039062 7.16529 4.2718264 6.40625 6.0664062 C 4.47842 6.3530064 3 7.9963268 3 10.003906 C 3 12.213046 4.79086 14.003906 7 14.003906 L 15.5 14.003906 C 17.433 14.003906 19 12.436906 19 10.503906 C 19 8.7073666 17.64921 7.2352063 15.90625 7.0351562 C 15.45168 4.7417662 13.42687 3.0039063 11 3.0039062 z M 11 4.0039062 C 12.949476 4.0039062 14.562591 5.3981071 14.925781 7.2304688 L 15.066406 7.9453125 L 15.792969 8.0292969 C 17.041935 8.1726487 18 9.2086231 18 10.503906 C 18 11.896468 16.892562 13.003906 15.5 13.003906 L 7 13.003906 C 5.3312996 13.003906 4 11.672607 4 10.003906 C 4 8.4872732 5.1012983 7.2704647 6.5527344 7.0546875 L 7.109375 6.9726562 L 7.328125 6.4550781 C 7.9365026 5.0167057 9.3370669 4.0039063 11 4.0039062 z M 7 15 A 1 1 0 0 0 6 16 A 1 1 0 0 0 7 17 A 1 1 0 0 0 8 16 A 1 1 0 0 0 7 15 z M 11 15 A 1 1 0 0 0 10 16 A 1 1 0 0 0 11 17 A 1 1 0 0 0 12 16 A 1 1 0 0 0 11 15 z M 15 15 A 1 1 0 0 0 14 16 A 1 1 0 0 0 15 17 A 1 1 0 0 0 16 16 A 1 1 0 0 0 15 15 z M 5 17 A 1 1 0 0 0 4 18 A 1 1 0 0 0 5 19 A 1 1 0 0 0 6 18 A 1 1 0 0 0 5 17 z M 9 17 A 1 1 0 0 0 8 18 A 1 1 0 0 0 9 19 A 1 1 0 0 0 10 18 A 1 1 0 0 0 9 17 z M 13 17 A 1 1 0 0 0 12 18 A 1 1 0 0 0 13 19 A 1 1 0 0 0 14 18 A 1 1 0 0 0 13 17 z M 17 17 A 1 1 0 0 0 16 18 A 1 1 0 0 0 17 19 A 1 1 0 0 0 18 18 A 1 1 0 0 0 17 17 z "
     id="path4505" />
</svg>
