<?xml version="1.0" encoding="UTF-8" standalone="no"?>
<svg
   xmlns:dc="http://purl.org/dc/elements/1.1/"
   xmlns:cc="http://creativecommons.org/ns#"
   xmlns:rdf="http://www.w3.org/1999/02/22-rdf-syntax-ns#"
   xmlns:svg="http://www.w3.org/2000/svg"
   xmlns="http://www.w3.org/2000/svg"
   xmlns:sodipodi="http://sodipodi.sourceforge.net/DTD/sodipodi-0.dtd"
   xmlns:inkscape="http://www.inkscape.org/namespaces/inkscape"
   height="22"
   version="1.1"
   width="22"
   id="svg11"
   sodipodi:docname="weather-storm.svg"
   inkscape:version="0.92.1 r15371">
  <metadata
     id="metadata15">
    <rdf:RDF>
      <cc:Work
         rdf:about="">
        <dc:format>image/svg+xml</dc:format>
        <dc:type
           rdf:resource="http://purl.org/dc/dcmitype/StillImage" />
      </cc:Work>
    </rdf:RDF>
  </metadata>
  <sodipodi:namedview
     pagecolor="#ffffff"
     bordercolor="#666666"
     borderopacity="1"
     objecttolerance="10"
     gridtolerance="10"
     guidetolerance="10"
     inkscape:pageopacity="0"
     inkscape:pageshadow="2"
     inkscape:window-width="1600"
     inkscape:window-height="808"
     id="namedview13"
     showgrid="false"
     inkscape:zoom="10.727273"
     inkscape:cx="-8.063559"
     inkscape:cy="11"
     inkscape:window-x="0"
     inkscape:window-y="0"
     inkscape:window-maximized="1"
     inkscape:current-layer="svg11" />
  <defs
     id="defs3">
    <style
       type="text/css"
       id="current-color-scheme">
   .ColorScheme-Text { color:#4d4d4d; } .ColorScheme-Highlight { color:#3daee9; }
  </style>
  </defs>
  <g
     transform="translate(-129.00001,-705.28993)"
     id="g9"
     style="fill:#da4453;fill-opacity:1">
    <path
       d="m 139.99978,708.2928 c -2.07107,0 -3.83471,1.26792 -4.59375,3.0625 -1.92783,0.2866 -3.40625,1.92992 -3.40625,3.9375 0,2.20914 1.79086,4 4,4 l 2,0 0,-2.5 c 0,-0.831 0.669,-1.5 1.5,-1.5 0.831,0 1.5,0.669 1.5,1.5 l 0,2.5 3.5,0 c 1.933,0 3.5,-1.567 3.5,-3.5 0,-1.79654 -1.35079,-3.2687 -3.09375,-3.46875 -0.45457,-2.29339 -2.47938,-4.03125 -4.90625,-4.03125 z"
       style="fill:#da4453;fill-opacity:1"
       class="ColorScheme-Text"
       id="path5" />
    <path
       d="m 139.34375,716.2898 c -0.20652,0.0677 -0.35453,0.28294 -0.34375,0.5 l 0,3.78089 c -0.0134,0.0301 -0.0239,0.0615 -0.0312,0.0937 l -0.625,0.625 -0.0312,0 -1.8125,0 -0.21875,0 -0.125,0.15625 -1,1 c -0.25698,0.15718 -0.30568,0.56716 -0.0927,0.78017 0.21301,0.21301 0.62299,0.16431 0.78017,-0.0927 l 0.84365,-0.8437 1.3125,0 0,1.5 c -0.004,0.26416 0.23582,0.50712 0.5,0.50712 0.26418,0 0.50374,-0.24296 0.5,-0.50712 l 0,-1.8125 0.6875,-0.6875 2.125,0 0.75,0.75 -1.40625,1.40625 c -0.25698,0.15718 -0.30568,0.56716 -0.0927,0.78017 0.21301,0.21301 0.62299,0.16431 0.78017,-0.0927 l 1.40625,-1.40625 1.40625,1.40625 c 0.15718,0.25698 0.56716,0.30568 0.78017,0.0927 0.21301,-0.21301 0.16431,-0.62299 -0.0927,-0.78017 l -3,-3 -0.125,-0.15625 -0.21875,0 -2,0 0,-3.49964 c 0.005,-0.29617 -0.30279,-0.55555 -0.59375,-0.5 -0.0208,-10e-4 -0.0417,-10e-4 -0.0625,0 z"
       style="fill:#da4453;fill-opacity:1"
       class="ColorScheme-Highlight"
       id="path7" />
  </g>
</svg>
