<?xml version="1.0" encoding="UTF-8" standalone="no"?>
<svg
   xmlns:dc="http://purl.org/dc/elements/1.1/"
   xmlns:cc="http://creativecommons.org/ns#"
   xmlns:rdf="http://www.w3.org/1999/02/22-rdf-syntax-ns#"
   xmlns:svg="http://www.w3.org/2000/svg"
   xmlns="http://www.w3.org/2000/svg"
   xmlns:sodipodi="http://sodipodi.sourceforge.net/DTD/sodipodi-0.dtd"
   xmlns:inkscape="http://www.inkscape.org/namespaces/inkscape"
   height="22"
   version="1.1"
   width="22"
   id="svg11"
   sodipodi:docname="weather-freezing-rain.svg"
   inkscape:version="0.92.1 r15371">
  <metadata
     id="metadata15">
    <rdf:RDF>
      <cc:Work
         rdf:about="">
        <dc:format>image/svg+xml</dc:format>
        <dc:type
           rdf:resource="http://purl.org/dc/dcmitype/StillImage" />
      </cc:Work>
    </rdf:RDF>
  </metadata>
  <sodipodi:namedview
     pagecolor="#ffffff"
     bordercolor="#666666"
     borderopacity="1"
     objecttolerance="10"
     gridtolerance="10"
     guidetolerance="10"
     inkscape:pageopacity="0"
     inkscape:pageshadow="2"
     inkscape:window-width="1600"
     inkscape:window-height="822"
     id="namedview13"
     showgrid="false"
     inkscape:zoom="10.727273"
     inkscape:cx="-7.2711864"
     inkscape:cy="11"
     inkscape:window-x="0"
     inkscape:window-y="0"
     inkscape:window-maximized="1"
     inkscape:current-layer="svg11" />
  <defs
     id="defs3">
    <style
       type="text/css"
       id="current-color-scheme">
   .ColorScheme-Text { color:#4d4d4d; } .ColorScheme-Highlight { color:#3daee9; }
  </style>
  </defs>
  <g
     transform="translate(-33.000007,-705.28994)"
     id="g9">
    <path
       style="color:#4d4d4d;fill:#3daee9;fill-opacity:1"
       d="M 11 3.0039062 C 8.92893 3.0039062 7.16529 4.2718263 6.40625 6.0664062 C 4.47842 6.3530063 3 7.9963263 3 10.003906 C 3 11.936906 4.36477 13.537176 6.1875 13.910156 C 6.95162 13.131616 7.70872 12.348706 8.5 11.597656 C 9.07304 12.135666 9.63306 12.696886 10.1875 13.253906 C 10.43042 13.184906 10.57002 12.407736 10.90625 12.160156 C 11.76052 11.292076 12.61549 10.435326 13.5 9.5976562 C 14.16629 10.222146 14.79148 10.858716 15.4375 11.503906 C 16.03544 12.075336 16.66508 12.707556 16.875 13.535156 C 16.891 13.586256 16.89305 13.639806 16.90625 13.691406 C 18.1415 13.150916 19 11.938456 19 10.503906 C 19 8.7073662 17.64921 7.2352063 15.90625 7.0351562 C 15.45168 4.7417662 13.42687 3.0039062 11 3.0039062 z M 11 4.0039062 C 12.949476 4.0039062 14.562591 5.3981088 14.925781 7.2304688 L 15.066406 7.9453125 L 15.792969 8.0292969 C 17.041935 8.1726269 18 9.2086162 18 10.503906 C 18 11.173426 17.688781 11.705511 17.269531 12.144531 C 16.914892 11.610271 16.515388 11.151135 16.144531 10.796875 L 16.132812 10.785156 C 15.495216 10.148226 14.865415 9.5081906 14.183594 8.8691406 L 13.496094 8.2246094 L 12.8125 8.8710938 C 11.914415 9.7216137 11.050872 10.587604 10.193359 11.458984 L 10.3125 11.355469 C 10.122974 11.495029 10.148525 11.589586 10.052734 11.722656 C 9.7635044 11.437146 9.4826757 11.149941 9.1835938 10.869141 L 8.4960938 10.222656 L 7.8105469 10.873047 C 7.1783509 11.473097 6.5856574 12.085619 5.9902344 12.693359 C 4.8612824 12.267229 4 11.295726 4 10.003906 C 4 8.4872662 5.1012984 7.2724206 6.5527344 7.0566406 L 7.1074219 6.9726562 L 7.3261719 6.4570312 C 7.9345489 5.0186812 9.337067 4.0039062 11 4.0039062 z "
       transform="translate(33.000007,705.28994)"
       id="path5" />
    <path
       d="m 46.49998,716.28994 -0.34375,0.34375 -1.40625,1.40625 c -0.45315,0.45315 -0.75,1.0626 -0.75,1.75 0,1.37479 1.12521,2.5 2.5,2.5 1.37479,0 2.5,-1.12521 2.5,-2.5 0,-0.6874 -0.29685,-1.29685 -0.75,-1.75 l -1.40625,-1.40625 z m -5,2 -0.34375,0.34375 -1.40625,1.40625 c -0.45315,0.45315 -0.75,1.0626 -0.75,1.75 0,1.37479 1.12521,2.5 2.5,2.5 1.37479,0 2.5,-1.12521 2.5,-2.5 0,-0.6874 -0.29685,-1.29685 -0.75,-1.75 l -1.40625,-1.40625 z"
       style="fill:#3daee9;fill-opacity:1"
       class="ColorScheme-Highlight"
       id="path7" />
  </g>
</svg>
