<?xml version="1.0" encoding="UTF-8" standalone="no"?>
<svg xmlns="http://www.w3.org/2000/svg" height="22" width="22" version="1.1">
 <defs>
  <style type="text/css" id="current-color-scheme">
   .ColorScheme-Text { color:#4d4d4d; } .ColorScheme-Highlight { color:#3daee9; }
  </style>
 </defs>
 <path style="fill:currentColor" class="ColorScheme-Text" d="M 11.042969 3 A 1.7755 1.8191263 0 0 0 10.111328 3.2441406 L 4.8886719 6.3339844 A 1.7755 1.8191263 0 0 0 4 7.9101562 L 4 14.089844 A 1.7755 1.8191263 0 0 0 4.8886719 15.666016 L 10.111328 18.755859 A 1.7755 1.8191263 0 0 0 11.888672 18.755859 L 17.111328 15.666016 A 1.7755 1.8191263 0 0 0 18 14.089844 L 18 7.9101562 A 1.7755 1.8191263 0 0 0 17.111328 6.3339844 L 11.888672 3.2441406 A 1.7755 1.8191263 0 0 0 11.042969 3.0019531 L 11.042969 3 z M 11.011719 4.0019531 L 11.019531 4.0019531 C 11.145296 4.0048731 11.269128 4.0395551 11.380859 4.1054688 L 16.601562 7.1953125 L 16.603516 7.1953125 C 16.843278 7.3369643 17.000025 7.6071669 17 7.9101562 L 17 14.089844 C 17.000025 14.392833 16.843312 14.663035 16.603516 14.804688 L 16.601562 14.804688 L 11.378906 17.894531 C 11.139126 18.036566 10.860874 18.036566 10.621094 17.894531 L 5.3984375 14.804688 L 5.3964844 14.804688 C 5.1566853 14.663035 4.9999751 14.392833 5 14.089844 L 5 7.9101562 C 4.999975 7.6071669 5.1566883 7.3369643 5.3964844 7.1953125 L 5.3984375 7.1953125 L 10.621094 4.1054688 C 10.741886 4.0338468 10.875666 3.9997714 11.011719 4.0019531 z M 9.3085938 8 C 8.0339089 8 7 9.0296316 7 10.298828 C 7 10.639837 7.0620013 10.967878 7.1679688 11.28125 C 7.1679688 11.28125 7.2625342 11.563098 7.3476562 11.71875 C 8.3205178 13.708879 11 15 11 15 C 11 15 13.679483 13.708879 14.652344 11.71875 C 14.737464 11.563098 14.832031 11.28125 14.832031 11.28125 C 14.937998 10.967878 15 10.639837 15 10.298828 C 15 9.0296316 13.966091 8 12.691406 8 C 12.022905 8 11.42162 8.2977861 11 8.75 C 10.57838 8.2977861 9.9770954 8 9.3085938 8 z"/>
</svg>
