<?xml version="1.0" encoding="UTF-8" standalone="no"?>
<svg
   xmlns:dc="http://purl.org/dc/elements/1.1/"
   xmlns:cc="http://creativecommons.org/ns#"
   xmlns:rdf="http://www.w3.org/1999/02/22-rdf-syntax-ns#"
   xmlns:svg="http://www.w3.org/2000/svg"
   xmlns="http://www.w3.org/2000/svg"
   xmlns:sodipodi="http://sodipodi.sourceforge.net/DTD/sodipodi-0.dtd"
   xmlns:inkscape="http://www.inkscape.org/namespaces/inkscape"
   height="22"
   width="22"
   version="1.1"
   id="svg2"
   sodipodi:docname="wechat-tray.svg"
   inkscape:version="0.92.1 r15371">
  <metadata
     id="metadata8">
    <rdf:RDF>
      <cc:Work
         rdf:about="">
        <dc:format>image/svg+xml</dc:format>
        <dc:type
           rdf:resource="http://purl.org/dc/dcmitype/StillImage" />
        <dc:title></dc:title>
      </cc:Work>
    </rdf:RDF>
  </metadata>
  <sodipodi:namedview
     pagecolor="#ffffff"
     bordercolor="#666666"
     borderopacity="1"
     objecttolerance="10"
     gridtolerance="10"
     guidetolerance="10"
     inkscape:pageopacity="0"
     inkscape:pageshadow="2"
     inkscape:window-width="1600"
     inkscape:window-height="822"
     id="namedview6"
     showgrid="false"
     inkscape:zoom="18.68"
     inkscape:cx="11"
     inkscape:cy="8.8586724"
     inkscape:window-x="0"
     inkscape:window-y="0"
     inkscape:window-maximized="1"
     inkscape:current-layer="svg2" />
  <defs
     id="defs4">
    <style
       type="text/css"
       id="current-color-scheme">
   .ColorScheme-Text { color:#4d4d4d; } .ColorScheme-Highlight { color:#3daee9; }
  </style>
  </defs>
  <path
     style="opacity:1;fill:#4d4d4d;fill-opacity:1"
     d="M 10 3 A 7 6.5 0 0 0 3 9.5 A 7 6.5 0 0 0 5 14.046875 L 5 17 L 6.3203125 15.019531 A 7 6.5 0 0 0 8.5820312 15.853516 C 8.2131045 15.143061 8 14.348082 8 13.5 C 8 11.060117 9.723041 9.0453833 12.048828 8.3066406 A 1 1 0 0 1 12 8 A 1 1 0 0 1 13 7 A 1 1 0 0 1 14 8 C 15.061383 8 16.066598 8.2619524 16.943359 8.7167969 A 7 6.5 0 0 0 10 3 z M 7 7 A 1 1 0 0 1 8 8 A 1 1 0 0 1 7 9 A 1 1 0 0 1 6 8 A 1 1 0 0 1 7 7 z M 14 9 A 5 4.5 0 0 0 9 13.5 A 5 4.5 0 0 0 14 18 A 5 4.5 0 0 0 16.810547 17.216797 L 18 19 L 18 16.191406 A 5 4.5 0 0 0 19 13.5 A 5 4.5 0 0 0 14 9 z M 14 10 C 16.27424 10 17.998807 11.614093 18 13.498047 C 17.9984 14.229243 17.738173 14.943884 17.232422 15.550781 L 17 15.830078 L 17 15.927734 L 16.287109 16.365234 C 15.622894 16.773242 14.8218 16.99844 14 17 C 11.724972 17 10 15.384792 10 13.5 C 10 11.615208 11.724972 9.9999999 14 10 z M 12 11 A 1 1 0 0 0 11 12 A 1 1 0 0 0 12 13 A 1 1 0 0 0 13 12 A 1 1 0 0 0 12 11 z M 16 11 A 1 1 0 0 0 15 12 A 1 1 0 0 0 16 13 A 1 1 0 0 0 17 12 A 1 1 0 0 0 16 11 z "
     id="path4493" />
</svg>
