<?xml version="1.0" encoding="UTF-8" standalone="no"?>
<svg
   xmlns:dc="http://purl.org/dc/elements/1.1/"
   xmlns:cc="http://creativecommons.org/ns#"
   xmlns:rdf="http://www.w3.org/1999/02/22-rdf-syntax-ns#"
   xmlns:svg="http://www.w3.org/2000/svg"
   xmlns="http://www.w3.org/2000/svg"
   xmlns:sodipodi="http://sodipodi.sourceforge.net/DTD/sodipodi-0.dtd"
   xmlns:inkscape="http://www.inkscape.org/namespaces/inkscape"
   height="22"
   width="22"
   version="1"
   id="svg7"
   sodipodi:docname="yd-ind-error.svg"
   inkscape:version="0.92.1 r15371">
  <metadata
     id="metadata11">
    <rdf:RDF>
      <cc:Work
         rdf:about="">
        <dc:format>image/svg+xml</dc:format>
        <dc:type
           rdf:resource="http://purl.org/dc/dcmitype/StillImage" />
      </cc:Work>
    </rdf:RDF>
  </metadata>
  <sodipodi:namedview
     pagecolor="#ffffff"
     bordercolor="#666666"
     borderopacity="1"
     objecttolerance="10"
     gridtolerance="10"
     guidetolerance="10"
     inkscape:pageopacity="0"
     inkscape:pageshadow="2"
     inkscape:window-width="1600"
     inkscape:window-height="822"
     id="namedview9"
     showgrid="false"
     inkscape:zoom="10.727273"
     inkscape:cx="11"
     inkscape:cy="11"
     inkscape:window-x="0"
     inkscape:window-y="0"
     inkscape:window-maximized="1"
     inkscape:current-layer="svg7" />
  <defs
     id="defs3">
    <style
       type="text/css"
       id="current-color-scheme">
   .ColorScheme-Text { color:#4d4d4d; } .ColorScheme-Highlight { color:#3daee9; }
  </style>
  </defs>
  <path
     style="fill:#da4453;fill-opacity:1"
     class="ColorScheme-Highlight"
     d="m 10.091993,5.0465707 c -3.5555565,0 -2.7283825,3.24817 -4.5488294,4.226563 -0.062744,0.0356 -0.098024,0.06839 -0.1542969,0.103515 1.2005478,-0.714589 2.6803078,-1.312067 4.2519528,-1.716797 1.3309085,-0.342378 2.6808405,-0.534458 3.9257815,-0.558593 0.03199,-1.14e-4 0.0639,-1.14e-4 0.0957,0 -1.20058,-0.3411657 -1.331857,-2.054688 -3.570308,-2.054688 z m 3.874999,2.955078 c -1.244941,0.02414 -2.594873,0.216215 -3.925781,0.558594 -4.3864738,1.128761 -7.5126424,3.5833483 -6.9824225,5.4824213 0.3055214,1.085203 1.7775692,1.801316 3.970703,1.931641 -10e-4,-0.0082 -0.003,-0.01523 -0.0039,-0.02344 -0.118387,-1.026756 0.533079,-1.919941 1.296875,-2.525392 0.763796,-0.605453 1.7462705,-1.045085 2.8496105,-1.279297 1.10334,-0.234211 2.136414,-0.222891 2.999999,0.03711 0.811893,0.244438 1.575746,0.777805 1.763672,1.69336 2.198075,-1.232334 3.338167,-2.718164 3.007816,-3.9199183 -0.349958,-1.258197 -2.258558,-2.008004 -4.976562,-1.955079 z m -1.304687,4.9980463 a 1.8585774,3.5769585 76.001371 0 0 -1.376953,0.142578 1.8585774,3.5769585 76.001371 0 0 -3.2792975,2.599611 1.8585774,3.5769585 76.001371 0 0 3.7089845,1.115234 1.8585774,3.5769585 76.001371 0 0 3.277344,-2.599611 1.8585774,3.5769585 76.001371 0 0 -2.330078,-1.257812 z"
     id="path5" />
</svg>
