<?xml version="1.0" encoding="UTF-8" standalone="no"?>
<svg xmlns="http://www.w3.org/2000/svg" xmlns:xlink="http://www.w3.org/1999/xlink" width="48" height="48" version="1.1">
 <defs>
  <linearGradient id="linearGradient4356">
   <stop style="stop-color:#4ea979;stop-opacity:1;" offset="0"/>
   <stop style="stop-color:#5eb085;stop-opacity:1" offset="1"/>
  </linearGradient>
  <linearGradient id="linearGradient4271">
   <stop offset="0" style="stop-color:#2a2c2f;stop-opacity:1"/>
   <stop offset="1" style="stop-color:#424649;stop-opacity:1"/>
  </linearGradient>
  <linearGradient xlink:href="#linearGradient4271" id="linearGradient4354" x1="24" y1="44" x2="24" y2="4" gradientUnits="userSpaceOnUse"/>
  <linearGradient xlink:href="#linearGradient4356" id="linearGradient4362" x1="408.571" y1="532.798" x2="408.571" y2="514.798" gradientUnits="userSpaceOnUse"/>
  <linearGradient xlink:href="#linearGradient4227" id="linearGradient4440" x1="15" y1="15" x2="34" y2="34" gradientUnits="userSpaceOnUse"/>
  <linearGradient id="linearGradient4227">
   <stop style="stop-color:#292c2f;stop-opacity:1" offset="0"/>
   <stop style="stop-color:#000000;stop-opacity:0;" offset="1"/>
  </linearGradient>
 </defs>
 <g transform="translate(-384.57143,-499.798)">
  <path style="fill:url(#linearGradient4354);fill-rule:evenodd;stroke:none;stroke-width:1px;stroke-linecap:butt;stroke-linejoin:miter;stroke-opacity:1;fill-opacity:1" d="M 4 4 L 15 15 L 33 15 L 33 33 L 44 44 L 44 4 L 4 4 z M 15 17 L 4 28 L 4 44 L 20 44 L 31 33 L 15 33 L 15 17 z" transform="translate(384.57143,499.798)"/>
  <rect style="opacity:1;fill:url(#linearGradient4362);fill-opacity:1;stroke:none;stroke-width:2.79999995;stroke-miterlimit:4;stroke-dasharray:none;stroke-opacity:0.55026455" width="18" height="18" x="399.57" y="514.8" ry="0"/>
  <path style="fill:url(#linearGradient4440);fill-rule:evenodd;stroke:none;stroke-width:1px;stroke-linecap:butt;stroke-linejoin:miter;stroke-opacity:1;fill-opacity:1.0;opacity:0.2" d="M 33 15 L 33 33 L 44 44 L 44 26 L 33 15 z M 30.986328 33.013672 L 15 33.125 L 22.9375 41.0625 L 30.986328 33.013672 z" transform="translate(384.57143,499.798)"/>
  <path style="opacity:1;fill:#1c1e20;fill-opacity:1;stroke:none;stroke-width:2.79999995;stroke-miterlimit:4;stroke-dasharray:none;stroke-opacity:0.55026455" d="M 4 43 L 4 44 L 20 44 L 21 43 L 4 43 z M 43 43 L 44 44 L 44 43 L 43 43 z" transform="translate(384.57143,499.798)"/>
  <rect style="opacity:1;fill:#ffffff;fill-opacity:0.23529412;stroke:none;stroke-width:2.79999995;stroke-miterlimit:4;stroke-dasharray:none;stroke-opacity:0.55026455" width="18" height="1" x="399.57" y="514.8" ry="0"/>
 </g>
</svg>
