<?xml version="1.0" encoding="UTF-8" standalone="no"?>
<svg xmlns="http://www.w3.org/2000/svg" xmlns:xlink="http://www.w3.org/1999/xlink" width="48" height="48" version="1.1">
 <defs>
  <linearGradient id="linearGradient4401">
   <stop style="stop-color:#8bb3d0;stop-opacity:1" offset="0"/>
   <stop style="stop-color:#a9cfe4;stop-opacity:1" offset="1"/>
  </linearGradient>
  <linearGradient id="linearGradient4257">
   <stop style="stop-color:#41759c;stop-opacity:1" offset="0"/>
   <stop style="stop-color:#7faac8;stop-opacity:1" offset="1"/>
  </linearGradient>
  <linearGradient id="linearGradient4249">
   <stop style="stop-color:#79a8ca;stop-opacity:1" offset="0"/>
   <stop style="stop-color:#9ecbda;stop-opacity:1" offset="1"/>
  </linearGradient>
  <linearGradient id="linearGradient4230">
   <stop style="stop-color:#548eb5;stop-opacity:1" offset="0"/>
   <stop style="stop-color:#68a0c4;stop-opacity:1" offset="1"/>
  </linearGradient>
  <linearGradient xlink:href="#linearGradient4230" id="linearGradient4236" x1="44" y1="44" x2="24" y2="24" gradientUnits="userSpaceOnUse"/>
  <linearGradient xlink:href="#linearGradient4249" id="linearGradient4255" x1="4" y1="44" x2="24" y2="24" gradientUnits="userSpaceOnUse" gradientTransform="translate(384.57143,499.8605)"/>
  <linearGradient xlink:href="#linearGradient4257" id="linearGradient4263" x1="44" y1="4" x2="24" y2="24" gradientUnits="userSpaceOnUse" gradientTransform="translate(384.56752,499.798)"/>
  <linearGradient xlink:href="#linearGradient4227" id="linearGradient4381" x1="403.571" y1="520.798" x2="420.571" y2="537.798" gradientUnits="userSpaceOnUse" gradientTransform="translate(-384.57143,-499.798)"/>
  <linearGradient xlink:href="#linearGradient4227" id="linearGradient4393" x1="402.571" y1="517.798" x2="423.571" y2="538.798" gradientUnits="userSpaceOnUse" gradientTransform="translate(-384.57143,-499.798)"/>
  <linearGradient xlink:href="#linearGradient4401" id="linearGradient4407" x1="408.571" y1="530.798" x2="408.571" y2="516.798" gradientUnits="userSpaceOnUse"/>
  <linearGradient xlink:href="#linearGradient4249" id="linearGradient4161" x1="409.571" y1="543.798" x2="409.571" y2="502.798" gradientUnits="userSpaceOnUse" gradientTransform="matrix(0.95,0,0,0.95,20.428574,26.189901)"/>
  <linearGradient id="linearGradient4227">
   <stop offset="0" style="stop-color:#292c2f;stop-opacity:1"/>
   <stop offset="1" style="stop-color:#000000;stop-opacity:0;"/>
  </linearGradient>
 </defs>
 <g transform="translate(-384.57143,-499.798)">
  <rect style="opacity:1;fill:url(#linearGradient4161);fill-opacity:1;stroke:none" width="38" height="38" x="389.57" y="504.8" ry="19"/>
  <path style="opacity:0.8;fill:#649cc1;fill-opacity:1" d="M 24.472656,14.699219 C 24.211041,14.699219 24,14.91026 24,15.171875 c 0,0.261615 0.211041,0.472656 0.472656,0.472656 l 17.054688,0 c 0.03442,0 0.06536,-0.0126 0.09766,-0.01953 L 41.857,15 41,14.699219 Z" transform="translate(384.57143,499.798)"/>
  <path style="opacity:1;fill:url(#linearGradient4255);fill-opacity:1;fill-rule:evenodd;stroke:none;stroke-width:1px;stroke-linecap:butt;stroke-linejoin:miter;stroke-opacity:1" d="m 392.57534,511.798 c -2.50446,3.34009 -4.00391,7.54795 -4.00391,12.0625 0,11.08 8.92001,19.9375 20,19.9375 l 7,-14.3375 -13,-2.6625 z"/>
  <path style="fill:url(#linearGradient4236);fill-opacity:1;fill-rule:evenodd;stroke:none;stroke-width:1px;stroke-linecap:butt;stroke-linejoin:miter;stroke-opacity:1" d="M 25,15 31,29.6 24,44 c 11.079995,0 20,-8.920005 20,-20 0,-3.245276 -0.781986,-6.295183 -2.142578,-9 z" transform="translate(384.57143,499.798)"/>
  <path style="fill:url(#linearGradient4393);fill-opacity:1;fill-rule:evenodd;stroke:none;stroke-width:1px;stroke-linecap:butt;stroke-linejoin:miter;stroke-opacity:1;opacity:0.2" d="M 30.7,18 17.3,30 30.064453,43.064453 c 5.934555,-1.874621 10.636514,-6.435695 12.734375,-12.265625 z" transform="translate(384.57143,499.798)"/>
  <path style="fill:url(#linearGradient4263);fill-opacity:1;fill-rule:evenodd;stroke:none;stroke-width:1px;stroke-linecap:butt;stroke-linejoin:miter;stroke-opacity:1" d="m 408.56752,503.798 c -6.56544,0 -12.3539,3.14646 -15.99609,8.00391 l 9.99609,14.99609 13,2.6 -6,-14.6 16.85743,0 c -3.28473,-6.52995 -10.02271,-11 -17.85743,-11 z"/>
  <rect ry="9" y="514.8" x="399.57" height="18" width="18" style="opacity:1;fill:#ecf0f1;fill-opacity:1;stroke:none"/>
  <path style="opacity:0.2;fill:url(#linearGradient4381);fill-opacity:1;fill-rule:evenodd;stroke:none;stroke-width:1px;stroke-linecap:butt;stroke-linejoin:miter;stroke-opacity:1" d="m 30.3,21 -11.2,8 13.128516,13.228516 c 3.982862,-1.792939 7.271899,-4.836679 9.347656,-8.652344 z" transform="translate(384.57143,499.798)"/>
  <rect style="opacity:1;fill:url(#linearGradient4407);fill-opacity:1;stroke:none" width="14" height="14" x="401.57" y="516.8" ry="7"/>
  <path style="opacity:1;fill:#005677;fill-opacity:0.2371134;stroke:none" d="M 4.0117188 23.5 C 4.0076623 23.666545 4 23.832443 4 24 C 4 35.079997 12.920003 44 24 44 C 35.079997 44 44 35.079997 44 24 C 44 23.832443 43.992338 23.666545 43.988281 23.5 C 43.72361 34.346134 34.912123 43 24 43 C 13.087877 43 4.2763903 34.346134 4.0117188 23.5 z" transform="translate(384.57143,499.798)"/>
 </g>
</svg>
