<?xml version="1.0" encoding="UTF-8" standalone="no"?>
<svg xmlns="http://www.w3.org/2000/svg" xmlns:xlink="http://www.w3.org/1999/xlink" width="48" height="48" version="1.1">
 <defs>
  <linearGradient id="linearGradient5980">
   <stop offset="0" style="stop-color:#197cf1;stop-opacity:1"/>
   <stop offset="1" style="stop-color:#21c9fb;stop-opacity:1"/>
  </linearGradient>
  <linearGradient id="linearGradient5921">
   <stop style="stop-color:#000000;stop-opacity:1;" offset="0"/>
   <stop style="stop-color:#000000;stop-opacity:0;" offset="1"/>
  </linearGradient>
  <linearGradient id="linearGradient5232">
   <stop offset="0" style="stop-color:#60c0f4;stop-opacity:0"/>
   <stop offset="1" style="stop-color:#60c0f4;stop-opacity:1"/>
  </linearGradient>
  <linearGradient id="linearGradient5194">
   <stop style="stop-color:#b985ce;stop-opacity:1" offset="0"/>
   <stop style="stop-color:#f7bb5d;stop-opacity:1" offset="1"/>
  </linearGradient>
  <linearGradient xlink:href="#linearGradient4211" id="linearGradient4174" x1="419.384" y1="540.419" x2="409.571" y2="503.798" gradientUnits="userSpaceOnUse"/>
  <linearGradient id="linearGradient4303">
   <stop style="stop-color:#989a9b;stop-opacity:1" offset="0"/>
   <stop style="stop-color:#f6f6f7;stop-opacity:1" offset="1"/>
  </linearGradient>
  <linearGradient gradientTransform="matrix(0.89999947,0,0,0.89999947,40.857352,52.380072)" xlink:href="#linearGradient5194" id="linearGradient4174-9" x1="404.821" y1="505.048" x2="422.321" y2="536.298" gradientUnits="userSpaceOnUse"/>
  <linearGradient gradientTransform="matrix(0.89999947,0,0,0.89999947,40.857343,52.380072)" xlink:href="#linearGradient5232" id="linearGradient4174-9-6" x1="408.571" y1="523.798" x2="393.571" y2="540.048" gradientUnits="userSpaceOnUse"/>
  <linearGradient id="linearGradient4491">
   <stop offset="0" style="stop-color:#212329;stop-opacity:1;"/>
   <stop offset="1" style="stop-color:#31363b;stop-opacity:1;"/>
  </linearGradient>
  <linearGradient id="linearGradient4211">
   <stop offset="0" style="stop-color:#2f3943;stop-opacity:1"/>
   <stop offset="1" style="stop-color:#808c9b;stop-opacity:1"/>
  </linearGradient>
  <linearGradient id="linearGradient4199">
   <stop style="stop-color:#2f3943;stop-opacity:1" offset="0"/>
   <stop style="stop-color:#4d5662;stop-opacity:1" offset="1"/>
  </linearGradient>
  <linearGradient id="linearGradient4191">
   <stop style="stop-color:#18222a;stop-opacity:1" offset="0"/>
   <stop style="stop-color:#566069;stop-opacity:1" offset="1"/>
  </linearGradient>
  <linearGradient gradientTransform="matrix(0.94999997,0,0,0.94999997,20.428577,26.189918)" xlink:href="#linearGradient4199" id="linearGradient4174-0" x1="393.277" y1="510.857" x2="420.336" y2="537.916" gradientUnits="userSpaceOnUse"/>
  <linearGradient xlink:href="#linearGradient4303" id="linearGradient5804" gradientUnits="userSpaceOnUse" gradientTransform="matrix(0.46410711,0,0,1,269.15626,-3.1250946e-6)" x1="404.33" y1="532.49" x2="410.809" y2="521.175"/>
  <linearGradient xlink:href="#linearGradient4491" id="linearGradient5831" x1="454.116" y1="537.011" x2="457.098" y2="533.526" gradientUnits="userSpaceOnUse"/>
  <linearGradient xlink:href="#linearGradient5921" id="linearGradient5927" x1="392.571" y1="514.798" x2="410.571" y2="532.798" gradientUnits="userSpaceOnUse"/>
  <linearGradient xlink:href="#linearGradient5980" id="linearGradient5954" x1="409.05" y1="529.972" x2="414.571" y2="529.798" gradientUnits="userSpaceOnUse" gradientTransform="translate(-384.57143,-499.798)"/>
  <linearGradient xlink:href="#linearGradient5921" id="linearGradient6054" x1="26" y1="26" x2="37" y2="37" gradientUnits="userSpaceOnUse"/>
  <linearGradient gradientTransform="translate(-3.073668e-6,-4.0581346e-6)" xlink:href="#linearGradient4191" id="linearGradient5831-1" x1="454.116" y1="537.011" x2="458.202" y2="531.46" gradientUnits="userSpaceOnUse"/>
 </defs>
 <g transform="translate(-384.57143,-499.798)">
  <rect style="opacity:1;fill:url(#linearGradient4174);fill-opacity:1.0;stroke:none;stroke-width:2.79999995;stroke-miterlimit:4;stroke-dasharray:none;stroke-opacity:0.55026455" width="40" height="40" x="388.57" y="503.8" ry="20"/>
  <rect style="opacity:1;fill:url(#linearGradient4174-0);fill-opacity:1;stroke:none;stroke-width:2.79999995;stroke-miterlimit:4;stroke-dasharray:none;stroke-opacity:0.55026455" width="38" height="38" x="389.57" y="504.8" ry="19"/>
  <path style="opacity:0.2;fill:url(#linearGradient6054);fill-opacity:1;stroke:none;stroke-width:4;stroke-linecap:round;stroke-linejoin:round;stroke-miterlimit:4;stroke-dasharray:none;stroke-opacity:1" d="M 35.314453 12.685547 L 12.685547 35.314453 L 21.167969 43.796875 C 22.092969 43.92693 23.038011 44 24 44 C 35.079992 44 44 35.079992 44 24 C 44 23.038011 43.92693 22.092969 43.796875 21.167969 L 35.314453 12.685547 z" transform="translate(384.57143,499.798)"/>
  <path d="m 388.58313,523.298 c -0.004,0.16655 -0.0117,0.33244 -0.0117,0.5 0,11.08 8.92001,20 20,20 11.08,0 20,-8.92 20,-20 0,-0.16756 -0.008,-0.33345 -0.0117,-0.5 -0.26467,10.84613 -9.07616,19.5 -19.98827,19.5 -10.91213,0 -19.72362,-8.65387 -19.98828,-19.5 z" style="opacity:1;fill:#2a2e32;fill-opacity:1;stroke:none"/>
  <rect style="opacity:1;fill:url(#linearGradient4174-9);fill-opacity:1;stroke:none;stroke-width:2.79999995;stroke-miterlimit:4;stroke-dasharray:none;stroke-opacity:0.55026455" width="36" height="36" x="390.57" y="505.8" ry="18"/>
  <rect style="opacity:1;fill:url(#linearGradient4174-9-6);fill-opacity:1;stroke:none;stroke-width:2.79999995;stroke-miterlimit:4;stroke-dasharray:none;stroke-opacity:0.55026455" width="36" height="36" x="390.57" y="505.8" ry="18"/>
  <path style="fill:url(#linearGradient5954);fill-opacity:1;fill-rule:evenodd;stroke:none;stroke-width:1px;stroke-linecap:butt;stroke-linejoin:miter;stroke-opacity:1" d="m 13.724609,21.179688 c -0.278573,-0.02583 -0.543597,0.07983 -0.6875,0.3125 -0.38373,0.620469 -0.453642,1.756051 -2.687613,3.793466 -0.76892,0.701267 0.515954,2.20104 1.438265,2.7734 0.809313,0.502236 0.977732,2.260911 1.010456,3.768994 0.026,1.19831 1.633651,2.362584 2.955881,2.105354 1.32221,-0.25728 3.191441,-1.859652 3.913871,-0.370902 0.72244,1.48875 0.730957,1.52046 1.560547,1.71875 0.82959,0.19829 2.289757,-0.03208 2.867187,1.398438 0.57742,1.43055 1.82154,1.197612 3.316789,0.861672 1.49525,-0.33595 1.639831,-0.487828 3.370061,-1.274968 1.73023,-0.78714 2.005442,-1.643338 2.81878,-2.385224 1.02413,-0.93416 0.916245,-3.099918 0.916245,-3.099918 l -1.902344,-1.787109 c 0,0 -1.284865,-0.691223 -2.072265,0.716797 -0.78741,1.40803 0.262325,4.36257 -3.328125,4.96875 -3.59045,0.606179 -3.474425,-1.980099 -3.708985,-2.855469 -0.23455,-0.87537 -1.841243,-2.160803 -3.533203,-1.351563 -1.69195,0.80923 -3.472219,0.445396 -3.480468,-1.396484 -0.008,-1.84188 -1.377744,-2.606518 -1.964844,-3.710938 -0.58711,-1.10443 0.298837,-1.66538 0.216797,-2.9375 -0.05125,-0.795068 -0.555243,-1.205 -1.019532,-1.248046 z m 3.052887,13.801661 c 0.09335,0.349663 0.452289,0.558116 0.802735,0.464844 0.350446,-0.09327 0.72599,-0.468132 0.33226,-1.025658 -0.393729,-0.557526 -1.228347,0.211151 -1.134995,0.560814 z m 5.242227,1.332989 c -0.676966,-0.08328 -0.704733,-0.336435 -1.408163,0.08617 -0.983505,0.590864 -0.0049,1.173307 0.868526,1.335402 1.542011,0.286189 1.810691,0.340353 1.785731,-0.441177 -0.01875,-0.586148 -0.601498,-0.901098 -1.246094,-0.980395 z" transform="translate(384.57143,499.798)"/>
  <path style="fill:#1a84f2;fill-opacity:1;fill-rule:evenodd;stroke:none;stroke-width:1px;stroke-linecap:butt;stroke-linejoin:miter;stroke-opacity:1" d="m 25.781554,10.658086 c -0.342392,0.438088 -0.105222,1.620433 1.112404,1.927047 1.217626,0.306613 2.867619,-0.200481 1.97323,-1.146981 -0.894389,-0.9465 -2.743242,-1.218153 -3.085634,-0.780066 z m -7.507659,0.767158 c -0.593416,-0.07151 -1.507432,0.515139 -2.484909,1.213809 -0.977478,0.69867 -1.665987,1.328516 -1.931564,2.616806 -0.265577,1.28829 -3.047269,3.596253 -3.47886,5.727406 -0.431591,2.131153 -0.120221,3.087994 0.522173,2.408088 0.642394,-0.679906 0.95114,-1.328297 1.10524,-2.081342 0.1541,-0.753045 0.616294,-4.171726 2.433169,-4.903833 1.816874,-0.732107 4.277797,-0.771849 4.706155,-2.575297 0.428359,-1.803447 -0.277987,-2.334126 -0.871404,-2.405637 z m 12.899168,1.301701 c -0.274996,0.609621 -0.100041,1.182284 0.510377,1.612171 0.610417,0.429887 2.952368,1.432011 2.206571,0.01823 -0.745798,-1.413782 -2.441952,-2.240019 -2.716948,-1.630401 z m 3.376034,2.751878 c -0.356778,0.210389 -0.695559,0.548622 -0.563955,1.040517 0.131603,0.491896 1.101051,0.761851 1.592946,0.630247 0.491895,-0.131604 -0.672217,-1.881154 -1.028991,-1.670764 z" transform="translate(384.57143,499.798)"/>
  <path style="opacity:0.2;fill:url(#linearGradient5927);fill-opacity:1;fill-rule:evenodd;stroke:none;stroke-width:1px;stroke-linecap:butt;stroke-linejoin:miter;stroke-opacity:1" d="m 391.49331,513.36831 23.07812,23.42969 6,-6 -3,-3 -25.82031,-14.83594"/>
  <g transform="matrix(0.5,-0.86602541,0.86602541,0.5,-274.47061,657.5335)">
   <path d="m 458.31306,531.79801 0.92821,-10e-6 c 0,0 0.46411,-2.00006 0.46412,-8.00003 -1e-5,-2.99999 -0.11603,-8.74999 -0.29007,-13.74997 -0.17405,-5.00001 -0.17404,-9.24999 -0.63815,-9.25001 -0.4641,10e-6 -0.46411,4.25002 -0.63814,9.25002 -0.17405,4.99997 -0.29008,10.74997 -0.29008,13.74996 0,7.00003 0.46411,8.00004 0.46411,8.00004 z" style="fill:#987037;fill-opacity:1;fill-rule:evenodd;stroke:none;stroke-width:1px;stroke-linecap:butt;stroke-linejoin:miter;stroke-opacity:1"/>
   <path d="m 457.84896,523.798 c -10e-6,7.00003 -0.27753,8 -0.27753,8 l 2,0 c 0,0 0.12752,-1.9844 0.13305,-7.90038 -0.14967,-0.0649 -0.30438,-0.0996 -0.46321,-0.0996 l -1.39232,0 z" style="fill:url(#linearGradient5804);fill-opacity:1;fill-rule:evenodd;stroke:none;stroke-width:1px;stroke-linecap:butt;stroke-linejoin:miter;stroke-opacity:1"/>
   <path style="fill:url(#linearGradient5831);fill-opacity:1;fill-rule:evenodd;stroke:none;stroke-width:1px;stroke-linecap:butt;stroke-linejoin:miter;stroke-opacity:1" d="m 457.57143,531.798 2,0 c 0,0 2.4375,1 1.46875,3.78125 -0.96875,2.78125 -4.21875,3.34375 -6.21875,2.15625 -2,-1.1875 -2.375,-2.75 -1.90625,-3.09375 0.26662,-0.19552 1.91271,1.71601 2.6875,-0.1875 0.77479,-1.90351 1.96875,-2.65625 1.96875,-2.65625 z"/>
   <path style="fill:url(#linearGradient5831-1);fill-opacity:1;fill-rule:evenodd;stroke:none;stroke-width:1px;stroke-linecap:butt;stroke-linejoin:miter;stroke-opacity:1" d="m 457.57143,531.798 2,0 c 0,0 2.4375,1 1.46875,3.78125 -0.96875,2.78125 -4.21875,3.34375 -6.21875,2.15625 -2,-1.1875 -1.93306,-1.98454 -1.46431,-2.32829 0.26662,-0.19552 3.96646,1.29574 4.74125,-0.60777 0.77479,-1.90351 -0.52694,-3.00144 -0.52694,-3.00144 z"/>
  </g>
  <path style="fill:#21c9fb;fill-opacity:1;fill-rule:evenodd;stroke:none;stroke-width:1px;stroke-linecap:butt;stroke-linejoin:miter;stroke-opacity:1" d="m 417.78251,532.88303 c 1.64801,-0.59896 1.99282,-1.52574 2.43742,-2.61702 0.4446,-1.09128 -0.27958,-1.05535 -0.42616,-2.02425 -0.14658,-0.9689 0.31116,-1.26479 -0.49766,-2.34257 -0.80882,-1.07778 -1.93268,-0.79983 -1.77302,-1.08573 0.15966,-0.2859 2.33351,0.37766 3.16643,1.67504 0.83292,1.29738 1.46379,3.65183 -0.15913,4.9602 -1.62291,1.30837 -1.74191,2.79612 -4.45107,3.0691 -2.70916,0.27298 0.0552,-1.03584 1.70319,-1.63477 z"/>
 </g>
</svg>
