<?xml version="1.0" encoding="UTF-8" standalone="no"?>
<svg xmlns="http://www.w3.org/2000/svg" xmlns:xlink="http://www.w3.org/1999/xlink" width="48" height="48" version="1.1">
 <defs>
  <linearGradient id="linearGradient4143">
   <stop offset="0" style="stop-color:#197cf1;stop-opacity:1"/>
   <stop offset="1" style="stop-color:#20bcfa;stop-opacity:1"/>
  </linearGradient>
  <linearGradient gradientUnits="userSpaceOnUse" y2="517.798" x2="400.571" y1="545.798" x1="400.571" id="linearGradient4149" xlink:href="#linearGradient4143" gradientTransform="matrix(1.2857138,0,0,1.2857138,-491.02022,-659.74)"/>
  <linearGradient id="linearGradient4227">
   <stop style="stop-color:#292c2f;stop-opacity:1" offset="0"/>
   <stop style="stop-color:#000000;stop-opacity:0;" offset="1"/>
  </linearGradient>
  <linearGradient xlink:href="#linearGradient4290" id="linearGradient4204" x1="407.7" y1="531.838" x2="408.036" y2="516.059" gradientUnits="userSpaceOnUse" gradientTransform="matrix(1.5384616,0,0,1.4999916,-220.00001,-261.89451)"/>
  <linearGradient id="linearGradient4290">
   <stop style="stop-color:#7cbaf8;stop-opacity:1" offset="0"/>
   <stop style="stop-color:#f4fcff;stop-opacity:1" offset="1"/>
  </linearGradient>
  <linearGradient xlink:href="#linearGradient4227" id="linearGradient4304" x1="16.065" y1="13.778" x2="40.536" y2="41.261" gradientUnits="userSpaceOnUse"/>
 </defs>
 <g transform="translate(-384.57143,-499.798)">
  <path style="opacity:1;fill:url(#linearGradient4149);fill-opacity:1;stroke:none" d="M 14 4 C 8.46001 4 4 8.46001 4 14 C 4 15.996067 4.589282 17.843762 5.5898438 19.400391 A 19 19 0 0 0 5 24 A 19 19 0 0 0 24 43 A 19 19 0 0 0 28.603516 42.414062 C 30.159211 43.412836 32.005876 44 34 44 C 39.53999 44 44 39.53998 44 34 C 44 32.003933 43.410718 30.15624 42.410156 28.599609 A 19 19 0 0 0 43 24 A 19 19 0 0 0 24 5 A 19 19 0 0 0 19.394531 5.5859375 C 17.839121 4.58771 15.993534 4 14 4 z" transform="translate(384.57143,499.798)"/>
  <path d="M 408.32743,515.9635" style="fill:#ffffff;fill-opacity:1;fill-rule:nonzero;stroke:none"/>
  <path style="opacity:0.2;fill:url(#linearGradient4304);fill-opacity:1;stroke:none;stroke-width:4;stroke-linecap:round;stroke-linejoin:round;stroke-miterlimit:4;stroke-dasharray:none;stroke-opacity:1" d="M 19.039062 13.580078 L 17.892578 19.943359 L 18.421875 20.287109 L 15.050781 18.865234 L 15.222656 22.5 L 25.867188 33.146484 L 24.025391 33.695312 L 15.025391 30.990234 L 15.037109 32.501953 L 25.455078 42.919922 A 19 19 0 0 0 28.603516 42.414062 C 30.159211 43.412836 32.005876 44 34 44 C 39.53999 44 44 39.53998 44 34 C 44 32.003933 43.410718 30.15624 42.410156 28.599609 A 19 19 0 0 0 42.863281 25.972656 L 31.40625 14.515625 L 19.039062 13.580078 z" transform="translate(384.57143,499.798)"/>
  <path style="opacity:1;fill:url(#linearGradient4204);fill-opacity:1;stroke:none;stroke-width:1;stroke-linecap:round;stroke-linejoin:round;stroke-miterlimit:4;stroke-dasharray:none;stroke-opacity:1" d="m 408.19283,511.79813 c 6.0724,0 9.20673,3.1272 9.20673,4.96286 0,1.84178 -0.90448,2.11816 -2.39484,2.11816 -2.89623,0 -1.71144,-3.40428 -7.13642,-3.40428 -1.79527,0 -4.03845,0.80224 -4.03845,2.84764 0,1.64429 1.98665,2.24723 5.49278,3.09081 5.28423,1.38095 9.2488,2.75745 9.2488,7.48823 0,4.59297 -3.83745,6.89645 -9.90986,6.89645 -6.07241,0 -9.94891,-3.54028 -9.94891,-5.37594 0,-1.83566 0.71519,-2.29686 2.20552,-2.29686 2.90094,0 2.50773,3.86129 7.93269,3.86129 1.80156,0 4.46214,-0.79903 4.46214,-2.85057 0,-1.63815 -0.0849,-2.45673 -3.99038,-3.21992 -4.07014,-0.79537 -10.7512,-1.84618 -10.7512,-6.84642 0,-4.59297 3.55498,-7.26558 9.6274,-7.26558 l -0.006,-0.006 z"/>
 </g>
</svg>
